  0
SECTION
  2
HEADER
  9
$ACADVER
  1
AC1024
  9
$ACADMAINTVER
 70
     6
  9
$DWGCODEPAGE
  3
ANSI_936
  9
$INSBASE
 10
0.0
 20
0.0
 30
0.0
  9
$EXTMIN
 10
1.000000000000000E+20
 20
1.000000000000000E+20
 30
1.000000000000000E+20
  9
$EXTMAX
 10
-1.000000000000000E+20
 20
-1.000000000000000E+20
 30
-1.000000000000000E+20
  9
$LIMMIN
 10
0.0
 20
0.0
  9
$LIMMAX
 10
420.0
 20
297.0
  9
$ORTHOMODE
 70
     0
  9
$REGENMODE
 70
     1
  9
$FILLMODE
 70
     1
  9
$QTEXTMODE
 70
     0
  9
$MIRRTEXT
 70
     1
  9
$LTSCALE
 40
1.0
  9
$ATTMODE
 70
     1
  9
$TEXTSIZE
 40
2.5
  9
$TRACEWID
 40
1.0
  9
$TEXTSTYLE
  7
Standard
  9
$CLAYER
  8
0
  9
$CELTYPE
  6
ByLayer
  9
$CECOLOR
 62
   256
  9
$CELTSCALE
 40
1.0
  9
$DISPSILH
 70
     0
  9
$DIMSCALE
 40
1.0
  9
$DIMASZ
 40
2.5
  9
$DIMEXO
 40
0.625
  9
$DIMDLI
 40
3.75
  9
$DIMRND
 40
0.0
  9
$DIMDLE
 40
0.0
  9
$DIMEXE
 40
1.25
  9
$DIMTP
 40
0.0
  9
$DIMTM
 40
0.0
  9
$DIMTXT
 40
2.5
  9
$DIMCEN
 40
2.5
  9
$DIMTSZ
 40
0.0
  9
$DIMTOL
 70
     0
  9
$DIMLIM
 70
     0
  9
$DIMTIH
 70
     0
  9
$DIMTOH
 70
     0
  9
$DIMSE1
 70
     0
  9
$DIMSE2
 70
     0
  9
$DIMTAD
 70
     1
  9
$DIMZIN
 70
     8
  9
$DIMBLK
  1

  9
$DIMASO
 70
     1
  9
$DIMSHO
 70
     1
  9
$DIMPOST
  1

  9
$DIMAPOST
  1

  9
$DIMALT
 70
     0
  9
$DIMALTD
 70
     3
  9
$DIMALTF
 40
0.03937007874016
  9
$DIMLFAC
 40
1.0
  9
$DIMTOFL
 70
     1
  9
$DIMTVP
 40
0.0
  9
$DIMTIX
 70
     0
  9
$DIMSOXD
 70
     0
  9
$DIMSAH
 70
     0
  9
$DIMBLK1
  1

  9
$DIMBLK2
  1

  9
$DIMSTYLE
  2
ISO-25
  9
$DIMCLRD
 70
     0
  9
$DIMCLRE
 70
     0
  9
$DIMCLRT
 70
     0
  9
$DIMTFAC
 40
1.0
  9
$DIMGAP
 40
0.625
  9
$DIMJUST
 70
     0
  9
$DIMSD1
 70
     0
  9
$DIMSD2
 70
     0
  9
$DIMTOLJ
 70
     0
  9
$DIMTZIN
 70
     8
  9
$DIMALTZ
 70
     0
  9
$DIMALTTZ
 70
     0
  9
$DIMUPT
 70
     0
  9
$DIMDEC
 70
     2
  9
$DIMTDEC
 70
     2
  9
$DIMALTU
 70
     2
  9
$DIMALTTD
 70
     3
  9
$DIMTXSTY
  7
Standard
  9
$DIMAUNIT
 70
     0
  9
$DIMADEC
 70
     0
  9
$DIMALTRND
 40
0.0
  9
$DIMAZIN
 70
     0
  9
$DIMDSEP
 70
    44
  9
$DIMATFIT
 70
     3
  9
$DIMFRAC
 70
     0
  9
$DIMLDRBLK
  1

  9
$DIMLUNIT
 70
     2
  9
$DIMLWD
 70
    -2
  9
$DIMLWE
 70
    -2
  9
$DIMTMOVE
 70
     0
  9
$DIMFXL
 40
1.0
  9
$DIMFXLON
 70
     0
  9
$DIMJOGANG
 40
0.7853981633974483
  9
$DIMTFILL
 70
     0
  9
$DIMTFILLCLR
 70
     0
  9
$DIMARCSYM
 70
     0
  9
$DIMLTYPE
  6

  9
$DIMLTEX1
  6

  9
$DIMLTEX2
  6

  9
$DIMTXTDIRECTION
 70
     0
  9
$LUNITS
 70
     2
  9
$LUPREC
 70
     4
  9
$SKETCHINC
 40
1.0
  9
$FILLETRAD
 40
0.0
  9
$AUNITS
 70
     0
  9
$AUPREC
 70
     0
  9
$MENU
  1
.
  9
$ELEVATION
 40
0.0
  9
$PELEVATION
 40
0.0
  9
$THICKNESS
 40
0.0
  9
$LIMCHECK
 70
     0
  9
$CHAMFERA
 40
0.0
  9
$CHAMFERB
 40
0.0
  9
$CHAMFERC
 40
0.0
  9
$CHAMFERD
 40
0.0
  9
$SKPOLY
 70
     0
  9
$TDCREATE
 40
2459875.582360741
  9
$TDUCREATE
 40
2459875.249027408
  9
$TDUPDATE
 40
2459875.582361204
  9
$TDUUPDATE
 40
2459875.249027871
  9
$TDINDWG
 40
0.0000000116
  9
$TDUSRTIMER
 40
0.0000000116
  9
$USRTIMER
 70
     1
  9
$ANGBASE
 50
0.0
  9
$ANGDIR
 70
     0
  9
$PDMODE
 70
     0
  9
$PDSIZE
 40
0.0
  9
$PLINEWID
 40
0.0
  9
$SPLFRAME
 70
     0
  9
$SPLINETYPE
 70
     6
  9
$SPLINESEGS
 70
     8
  9
$HANDSEED
  5
25E
  9
$SURFTAB1
 70
     6
  9
$SURFTAB2
 70
     6
  9
$SURFTYPE
 70
     6
  9
$SURFU
 70
     6
  9
$SURFV
 70
     6
  9
$UCSBASE
  2

  9
$UCSNAME
  2

  9
$UCSORG
 10
0.0
 20
0.0
 30
0.0
  9
$UCSXDIR
 10
1.0
 20
0.0
 30
0.0
  9
$UCSYDIR
 10
0.0
 20
1.0
 30
0.0
  9
$UCSORTHOREF
  2

  9
$UCSORTHOVIEW
 70
     0
  9
$UCSORGTOP
 10
0.0
 20
0.0
 30
0.0
  9
$UCSORGBOTTOM
 10
0.0
 20
0.0
 30
0.0
  9
$UCSORGLEFT
 10
0.0
 20
0.0
 30
0.0
  9
$UCSORGRIGHT
 10
0.0
 20
0.0
 30
0.0
  9
$UCSORGFRONT
 10
0.0
 20
0.0
 30
0.0
  9
$UCSORGBACK
 10
0.0
 20
0.0
 30
0.0
  9
$PUCSBASE
  2

  9
$PUCSNAME
  2

  9
$PUCSORG
 10
0.0
 20
0.0
 30
0.0
  9
$PUCSXDIR
 10
1.0
 20
0.0
 30
0.0
  9
$PUCSYDIR
 10
0.0
 20
1.0
 30
0.0
  9
$PUCSORTHOREF
  2

  9
$PUCSORTHOVIEW
 70
     0
  9
$PUCSORGTOP
 10
0.0
 20
0.0
 30
0.0
  9
$PUCSORGBOTTOM
 10
0.0
 20
0.0
 30
0.0
  9
$PUCSORGLEFT
 10
0.0
 20
0.0
 30
0.0
  9
$PUCSORGRIGHT
 10
0.0
 20
0.0
 30
0.0
  9
$PUCSORGFRONT
 10
0.0
 20
0.0
 30
0.0
  9
$PUCSORGBACK
 10
0.0
 20
0.0
 30
0.0
  9
$USERI1
 70
     0
  9
$USERI2
 70
     0
  9
$USERI3
 70
     0
  9
$USERI4
 70
     0
  9
$USERI5
 70
     0
  9
$USERR1
 40
0.0
  9
$USERR2
 40
0.0
  9
$USERR3
 40
0.0
  9
$USERR4
 40
0.0
  9
$USERR5
 40
0.0
  9
$WORLDVIEW
 70
     1
  9
$SHADEDGE
 70
     3
  9
$SHADEDIF
 70
    70
  9
$TILEMODE
 70
     1
  9
$MAXACTVP
 70
    64
  9
$PINSBASE
 10
0.0
 20
0.0
 30
0.0
  9
$PLIMCHECK
 70
     0
  9
$PEXTMIN
 10
1.000000000000000E+20
 20
1.000000000000000E+20
 30
1.000000000000000E+20
  9
$PEXTMAX
 10
-1.000000000000000E+20
 20
-1.000000000000000E+20
 30
-1.000000000000000E+20
  9
$PLIMMIN
 10
0.0
 20
0.0
  9
$PLIMMAX
 10
420.0
 20
297.0
  9
$UNITMODE
 70
     0
  9
$VISRETAIN
 70
     1
  9
$PLINEGEN
 70
     0
  9
$PSLTSCALE
 70
     1
  9
$TREEDEPTH
 70
  3020
  9
$CMLSTYLE
  2
Standard
  9
$CMLJUST
 70
     0
  9
$CMLSCALE
 40
20.0
  9
$PROXYGRAPHICS
 70
     1
  9
$MEASUREMENT
 70
     1
  9
$CELWEIGHT
370
    -1
  9
$ENDCAPS
280
     0
  9
$JOINSTYLE
280
     0
  9
$LWDISPLAY
290
     0
  9
$INSUNITS
 70
     4
  9
$HYPERLINKBASE
  1

  9
$STYLESHEET
  1

  9
$XEDIT
290
     1
  9
$CEPSNTYPE
380
     0
  9
$PSTYLEMODE
290
     1
  9
$FINGERPRINTGUID
  2
{afdd43ed-d591-140f-b567-430375a12957}
  9
$VERSIONGUID
  2
{FAEB1C32-E019-11D5-929B-00C0DF256EC4}
  9
$EXTNAMES
290
     1
  9
$PSVPSCALE
 40
0.0
  9
$OLESTARTUP
290
     0
  9
$SORTENTS
280
   127
  9
$INDEXCTL
280
     0
  9
$HIDETEXT
280
     1
  9
$XCLIPFRAME
280
     2
  9
$HALOGAP
280
     0
  9
$OBSCOLOR
 70
   257
  9
$OBSLTYPE
280
     0
  9
$INTERSECTIONDISPLAY
280
     0
  9
$INTERSECTIONCOLOR
 70
   257
  9
$DIMASSOC
280
     2
  9
$PROJECTNAME
  1

  9
$CAMERADISPLAY
290
     0
  9
$LENSLENGTH
 40
50.0
  9
$CAMERAHEIGHT
 40
0.0
  9
$STEPSPERSEC
 40
2.0
  9
$STEPSIZE
 40
6.0
  9
$3DDWFPREC
 40
2.0
  9
$PSOLWIDTH
 40
5.0
  9
$PSOLHEIGHT
 40
80.0
  9
$LOFTANG1
 40
1.570796326794897
  9
$LOFTANG2
 40
1.570796326794897
  9
$LOFTMAG1
 40
0.0
  9
$LOFTMAG2
 40
0.0
  9
$LOFTPARAM
 70
     7
  9
$LOFTNORMALS
280
     1
  9
$LATITUDE
 40
37.795
  9
$LONGITUDE
 40
-122.394
  9
$NORTHDIRECTION
 40
0.0
  9
$TIMEZONE
 70
 -8000
  9
$LIGHTGLYPHDISPLAY
280
     1
  9
$TILEMODELIGHTSYNCH
280
     1
  9
$CMATERIAL
347
44
  9
$SOLIDHIST
280
     0
  9
$SHOWHIST
280
     1
  9
$DWFFRAME
280
     2
  9
$DGNFRAME
280
     2
  9
$REALWORLDSCALE
290
     1
  9
$INTERFERECOLOR
 62
   256
  9
$CSHADOW
280
     0
  9
$SHADOWPLANELOCATION
 40
0.0
  0
ENDSEC
  0
SECTION
  2
CLASSES
  0
CLASS
  1
ACDBDICTIONARYWDFLT
  2
AcDbDictionaryWithDefault
  3
ObjectDBX Classes
 90
        0
 91
        3
280
     0
281
     0
  0
CLASS
  1
VISUALSTYLE
  2
AcDbVisualStyle
  3
ObjectDBX Classes
 90
     4095
 91
        3
280
     0
281
     0
  0
CLASS
  1
MATERIAL
  2
AcDbMaterial
  3
ObjectDBX Classes
 90
     1153
 91
        3
280
     0
281
     0
  0
CLASS
  1
SCALE
  2
AcDbScale
  3
ObjectDBX Classes
 90
     1153
 91
        3
280
     0
281
     0
  0
CLASS
  1
TABLESTYLE
  2
AcDbTableStyle
  3
ObjectDBX Classes
 90
     4095
 91
        3
280
     0
281
     0
  0
CLASS
  1
MLEADERSTYLE
  2
AcDbMLeaderStyle
  3
ACDB_MLEADERSTYLE_CLASS
 90
     4095
 91
        3
280
     0
281
     0
  0
CLASS
  1
SUN
  2
AcDbSun
  3
SCENEOE
 90
     1153
 91
        3
280
     0
281
     0
  0
CLASS
  1
DICTIONARYVAR
  2
AcDbDictionaryVar
  3
ObjectDBX Classes
 90
        0
 91
        3
280
     0
281
     0
  0
CLASS
  1
CELLSTYLEMAP
  2
AcDbCellStyleMap
  3
ObjectDBX Classes
 90
     1152
 91
        3
280
     0
281
     0
  0
ENDSEC
  0
SECTION
  2
TABLES
  0
TABLE
  2
VPORT
  5
8
330
0
100
AcDbSymbolTable
 70
     1
  0
VPORT
  5
29
330
8
100
AcDbSymbolTableRecord
100
AcDbViewportTableRecord
  2
*Active
 70
     0
 10
0.0
 20
0.0
 11
1.0
 21
1.0
 12
344.1869158878504
 22
148.5
 13
0.0
 23
0.0
 14
10.0
 24
10.0
 15
10.0
 25
10.0
 16
0.0
 26
0.0
 36
1.0
 17
0.0
 27
0.0
 37
0.0
 40
297.0
 41
1.972972972850329
 42
50.0
 43
0.0
 44
0.0
 50
0.0
 51
0.0
 71
     0
 72
   100
 73
     1
 74
     3
 75
     0
 76
     0
 77
     0
 78
     0
281
     0
 65
     1
110
0.0
120
0.0
130
0.0
111
1.0
121
0.0
131
0.0
112
0.0
122
1.0
132
0.0
 79
     0
146
0.0
348
2F
 60
     3
 61
     5
292
     1
282
     1
141
0.0
142
0.0
 63
   250
361
5D
  0
ENDTAB
  0
TABLE
  2
LTYPE
  5
5
330
0
100
AcDbSymbolTable
 70
     1
  0
LTYPE
  5
14
330
5
100
AcDbSymbolTableRecord
100
AcDbLinetypeTableRecord
  2
ByBlock
 70
     0
  3

 72
    65
 73
     0
 40
0.0
  0
LTYPE
  5
15
330
5
100
AcDbSymbolTableRecord
100
AcDbLinetypeTableRecord
  2
ByLayer
 70
     0
  3

 72
    65
 73
     0
 40
0.0
  0
LTYPE
  5
16
330
5
100
AcDbSymbolTableRecord
100
AcDbLinetypeTableRecord
  2
Continuous
 70
     0
  3
Solid line
 72
    65
 73
     0
 40
0.0
  0
ENDTAB
  0
TABLE
  2
LAYER
  5
2
330
0
100
AcDbSymbolTable
 70
     5
  0
LAYER
  5
10
330
2
100
AcDbSymbolTableRecord
100
AcDbLayerTableRecord
  2
0
 70
     0
 62
     7
  6
Continuous
370
    -3
390
F
347
46
  0
LAYER
  5
5E
330
2
100
AcDbSymbolTableRecord
100
AcDbLayerTableRecord
  2
Sketch plane 01
 70
     0
 62
     7
  6
Continuous
370
    -3
390
F
347
46
  0
LAYER
  5
BB
330
2
100
AcDbSymbolTableRecord
100
AcDbLayerTableRecord
  2
Dimensions
 70
     0
 62
     7
  6
Continuous
370
    -3
390
F
347
46
  0
LAYER
  5
BD
330
2
100
AcDbSymbolTableRecord
100
AcDbLayerTableRecord
  2
Defpoints
 70
     0
 62
     7
  6
Continuous
290
     0
370
    -3
390
F
347
46
  0
LAYER
  5
220
330
2
100
AcDbSymbolTableRecord
100
AcDbLayerTableRecord
  2
Sketch plane 07
 70
     0
 62
     7
  6
Continuous
370
    -3
390
F
347
46
  0
ENDTAB
  0
TABLE
  2
STYLE
  5
3
330
0
100
AcDbSymbolTable
 70
     1
  0
STYLE
  5
11
330
3
100
AcDbSymbolTableRecord
100
AcDbTextStyleTableRecord
  2
Standard
 70
     0
 40
0.0
 41
1.0
 50
0.0
 71
     0
 42
2.5
  3
txt
  4

  0
ENDTAB
  0
TABLE
  2
VIEW
  5
6
330
0
100
AcDbSymbolTable
 70
     0
  0
ENDTAB
  0
TABLE
  2
UCS
  5
7
330
0
100
AcDbSymbolTable
 70
     0
  0
ENDTAB
  0
TABLE
  2
APPID
  5
9
330
0
100
AcDbSymbolTable
 70
     1
  0
APPID
  5
12
330
9
100
AcDbSymbolTableRecord
100
AcDbRegAppTableRecord
  2
ACAD
 70
     0
  0
ENDTAB
  0
TABLE
  2
DIMSTYLE
  5
A
330
0
100
AcDbSymbolTable
 70
     1
100
AcDbDimStyleTable
  0
DIMSTYLE
105
27
102
{ACAD_REACTORS
330
BC
330
CA
330
D7
330
E4
330
F1
330
FE
330
10B
330
118
330
125
330
134
330
141
330
14E
330
15B
330
16A
330
177
330
184
330
18D
330
199
330
1A2
330
1AB
330
1B4
330
1BD
330
1C9
330
1D2
330
1DB
330
1E7
330
1F3
330
1FC
330
205
330
20E
330
217
102
}
330
A
100
AcDbSymbolTableRecord
100
AcDbDimStyleTableRecord
  2
ISO-25
 70
     0
 41
2.5
 42
0.625
 43
3.75
 44
1.25
 73
     0
 74
     0
 77
     1
 78
     8
140
2.5
141
2.5
143
0.03937007874016
147
0.625
171
     3
172
     1
178
     0
271
     2
272
     2
274
     3
278
    44
283
     0
284
     8
340
11
  0
ENDTAB
  0
TABLE
  2
BLOCK_RECORD
  5
1
330
0
100
AcDbSymbolTable
 70
    32
  0
BLOCK_RECORD
  5
1F
330
1
100
AcDbSymbolTableRecord
100
AcDbBlockTableRecord
  2
*Model_Space
340
22
 70
     0
280
     1
281
     0
  0
BLOCK_RECORD
  5
1B
330
1
100
AcDbSymbolTableRecord
100
AcDbBlockTableRecord
  2
*Paper_Space
340
1E
 70
     0
280
     1
281
     0
  0
BLOCK_RECORD
  5
23
330
1
100
AcDbSymbolTableRecord
100
AcDbBlockTableRecord
  2
*Paper_Space0
340
26
 70
     0
280
     1
281
     0
  0
BLOCK_RECORD
  5
BE
330
1
100
AcDbSymbolTableRecord
100
AcDbBlockTableRecord
  2
*D1
340
0
 70
     0
280
     1
281
     0
  0
BLOCK_RECORD
  5
CB
330
1
100
AcDbSymbolTableRecord
100
AcDbBlockTableRecord
  2
*D2
340
0
 70
     0
280
     1
281
     0
  0
BLOCK_RECORD
  5
D8
330
1
100
AcDbSymbolTableRecord
100
AcDbBlockTableRecord
  2
*D3
340
0
 70
     0
280
     1
281
     0
  0
BLOCK_RECORD
  5
E5
330
1
100
AcDbSymbolTableRecord
100
AcDbBlockTableRecord
  2
*D4
340
0
 70
     0
280
     1
281
     0
  0
BLOCK_RECORD
  5
F2
330
1
100
AcDbSymbolTableRecord
100
AcDbBlockTableRecord
  2
*D5
340
0
 70
     0
280
     1
281
     0
  0
BLOCK_RECORD
  5
FF
330
1
100
AcDbSymbolTableRecord
100
AcDbBlockTableRecord
  2
*D6
340
0
 70
     0
280
     1
281
     0
  0
BLOCK_RECORD
  5
10C
330
1
100
AcDbSymbolTableRecord
100
AcDbBlockTableRecord
  2
*D7
340
0
 70
     0
280
     1
281
     0
  0
BLOCK_RECORD
  5
119
330
1
100
AcDbSymbolTableRecord
100
AcDbBlockTableRecord
  2
*D8
340
0
 70
     0
280
     1
281
     0
  0
BLOCK_RECORD
  5
126
330
1
100
AcDbSymbolTableRecord
100
AcDbBlockTableRecord
  2
*D9
340
0
 70
     0
280
     1
281
     0
  0
BLOCK_RECORD
  5
135
330
1
100
AcDbSymbolTableRecord
100
AcDbBlockTableRecord
  2
*D10
340
0
 70
     0
280
     1
281
     0
  0
BLOCK_RECORD
  5
142
330
1
100
AcDbSymbolTableRecord
100
AcDbBlockTableRecord
  2
*D11
340
0
 70
     0
280
     1
281
     0
  0
BLOCK_RECORD
  5
14F
330
1
100
AcDbSymbolTableRecord
100
AcDbBlockTableRecord
  2
*D12
340
0
 70
     0
280
     1
281
     0
  0
BLOCK_RECORD
  5
15C
330
1
100
AcDbSymbolTableRecord
100
AcDbBlockTableRecord
  2
*D13
340
0
 70
     0
280
     1
281
     0
  0
BLOCK_RECORD
  5
16B
330
1
100
AcDbSymbolTableRecord
100
AcDbBlockTableRecord
  2
*D14
340
0
 70
     0
280
     1
281
     0
  0
BLOCK_RECORD
  5
178
330
1
100
AcDbSymbolTableRecord
100
AcDbBlockTableRecord
  2
*D15
340
0
 70
     0
280
     1
281
     0
  0
BLOCK_RECORD
  5
185
330
1
100
AcDbSymbolTableRecord
100
AcDbBlockTableRecord
  2
*D16
340
0
 70
     0
280
     1
281
     0
  0
BLOCK_RECORD
  5
18E
330
1
100
AcDbSymbolTableRecord
100
AcDbBlockTableRecord
  2
*D17
340
0
 70
     0
280
     1
281
     0
  0
BLOCK_RECORD
  5
19A
330
1
100
AcDbSymbolTableRecord
100
AcDbBlockTableRecord
  2
*D18
340
0
 70
     0
280
     1
281
     0
  0
BLOCK_RECORD
  5
1A3
330
1
100
AcDbSymbolTableRecord
100
AcDbBlockTableRecord
  2
*D19
340
0
 70
     0
280
     1
281
     0
  0
BLOCK_RECORD
  5
1AC
330
1
100
AcDbSymbolTableRecord
100
AcDbBlockTableRecord
  2
*D20
340
0
 70
     0
280
     1
281
     0
  0
BLOCK_RECORD
  5
1B5
330
1
100
AcDbSymbolTableRecord
100
AcDbBlockTableRecord
  2
*D21
340
0
 70
     0
280
     1
281
     0
  0
BLOCK_RECORD
  5
1BE
330
1
100
AcDbSymbolTableRecord
100
AcDbBlockTableRecord
  2
*D22
340
0
 70
     0
280
     1
281
     0
  0
BLOCK_RECORD
  5
1CA
330
1
100
AcDbSymbolTableRecord
100
AcDbBlockTableRecord
  2
*D23
340
0
 70
     0
280
     1
281
     0
  0
BLOCK_RECORD
  5
1D3
330
1
100
AcDbSymbolTableRecord
100
AcDbBlockTableRecord
  2
*D24
340
0
 70
     0
280
     1
281
     0
  0
BLOCK_RECORD
  5
1DC
330
1
100
AcDbSymbolTableRecord
100
AcDbBlockTableRecord
  2
*D25
340
0
 70
     0
280
     1
281
     0
  0
BLOCK_RECORD
  5
1E8
330
1
100
AcDbSymbolTableRecord
100
AcDbBlockTableRecord
  2
*D26
340
0
 70
     0
280
     1
281
     0
  0
BLOCK_RECORD
  5
1F4
330
1
100
AcDbSymbolTableRecord
100
AcDbBlockTableRecord
  2
*D27
340
0
 70
     0
280
     1
281
     0
  0
BLOCK_RECORD
  5
1FD
330
1
100
AcDbSymbolTableRecord
100
AcDbBlockTableRecord
  2
*D28
340
0
 70
     0
280
     1
281
     0
  0
BLOCK_RECORD
  5
206
330
1
100
AcDbSymbolTableRecord
100
AcDbBlockTableRecord
  2
*D29
340
0
 70
     0
280
     1
281
     0
  0
BLOCK_RECORD
  5
20F
330
1
100
AcDbSymbolTableRecord
100
AcDbBlockTableRecord
  2
*D30
340
0
 70
     0
280
     1
281
     0
  0
BLOCK_RECORD
  5
218
330
1
100
AcDbSymbolTableRecord
100
AcDbBlockTableRecord
  2
*D31
340
0
 70
     0
280
     1
281
     0
  0
ENDTAB
  0
ENDSEC
  0
SECTION
  2
BLOCKS
  0
BLOCK
  5
20
330
1F
100
AcDbEntity
  8
0
100
AcDbBlockBegin
  2
*Model_Space
 70
     0
 10
0.0
 20
0.0
 30
0.0
  3
*Model_Space
  1

  0
ENDBLK
  5
21
330
1F
100
AcDbEntity
  8
0
100
AcDbBlockEnd
  0
BLOCK
  5
1C
330
1B
100
AcDbEntity
 67
     1
  8
0
100
AcDbBlockBegin
  2
*Paper_Space
 70
     0
 10
0.0
 20
0.0
 30
0.0
  3
*Paper_Space
  1

  0
ENDBLK
  5
1D
330
1B
100
AcDbEntity
 67
     1
  8
0
100
AcDbBlockEnd
  0
BLOCK
  5
24
330
23
100
AcDbEntity
  8
0
100
AcDbBlockBegin
  2
*Paper_Space0
 70
     0
 10
0.0
 20
0.0
 30
0.0
  3
*Paper_Space0
  1

  0
ENDBLK
  5
25
330
23
100
AcDbEntity
  8
0
100
AcDbBlockEnd
  0
BLOCK
  5
BF
330
BE
100
AcDbEntity
  8
0
100
AcDbBlockBegin
  2
*D1
 70
     1
 10
0.0
 20
0.0
 30
0.0
  3
*D1
  1

  0
LINE
  5
C1
330
BE
100
AcDbEntity
  8
Dimensions
 62
   140
370
    -2
100
AcDbLine
 10
67.49999999999997
 20
120.5357142857143
 30
0.0
 11
67.49999999999997
 21
125.5714285714286
 31
0.0
  0
LINE
  5
C2
330
BE
100
AcDbEntity
  8
Dimensions
 62
   140
370
    -2
100
AcDbLine
 10
112.5
 20
120.5357142857143
 30
0.0
 11
112.5
 21
125.5714285714286
 31
0.0
  0
LINE
  5
C3
330
BE
100
AcDbEntity
  8
Dimensions
 62
   140
370
    -2
100
AcDbLine
 10
69.64285714285711
 20
124.5
 30
0.0
 11
110.3571428571428
 21
124.5
 31
0.0
  0
SOLID
  5
C4
330
BE
100
AcDbEntity
  8
Dimensions
 62
   140
100
AcDbTrace
 10
69.64285714285711
 20
124.8571428571429
 30
0.0
 11
69.64285714285711
 21
124.1428571428571
 31
0.0
 12
67.49999999999997
 22
124.5
 32
0.0
 13
67.49999999999997
 23
124.5
 33
0.0
  0
SOLID
  5
C5
330
BE
100
AcDbEntity
  8
Dimensions
 62
   140
100
AcDbTrace
 10
110.3571428571428
 20
124.1428571428571
 30
0.0
 11
110.3571428571428
 21
124.8571428571429
 31
0.0
 12
112.5
 22
124.5
 32
0.0
 13
112.5
 23
124.5
 33
0.0
  0
MTEXT
  5
C6
330
BE
100
AcDbEntity
  8
Dimensions
 62
   140
100
AcDbMText
 10
89.99999999999997
 20
126.1071428571429
 30
0.0
 40
2.142857142857143
 41
0.0
 46
0.0
 71
     5
 72
     1
  1
45
 73
     1
 44
1.0
  0
POINT
  5
C7
330
BE
100
AcDbEntity
  8
Defpoints
 62
     0
100
AcDbPoint
 10
67.49999999999997
 20
120.0
 30
0.0
  0
POINT
  5
C8
330
BE
100
AcDbEntity
  8
Defpoints
 62
     0
100
AcDbPoint
 10
112.5
 20
120.0
 30
0.0
  0
POINT
  5
C9
330
BE
100
AcDbEntity
  8
Defpoints
 62
     0
100
AcDbPoint
 10
112.5
 20
124.5
 30
0.0
  0
ENDBLK
  5
C0
330
BE
100
AcDbEntity
  8
0
100
AcDbBlockEnd
  0
BLOCK
  5
CC
330
CB
100
AcDbEntity
  8
0
100
AcDbBlockBegin
  2
*D2
 70
     1
 10
0.0
 20
0.0
 30
0.0
  3
*D2
  1

  0
LINE
  5
CE
330
CB
100
AcDbEntity
  8
Dimensions
 62
   140
370
    -2
100
AcDbLine
 10
193.0357142857143
 20
94.00000000000003
 30
0.0
 11
194.3714285714286
 21
94.00000000000004
 31
0.0
  0
LINE
  5
CF
330
CB
100
AcDbEntity
  8
Dimensions
 62
   140
370
    -2
100
AcDbLine
 10
193.0357142857144
 20
86.00000000000003
 30
0.0
 11
194.3714285714287
 21
86.00000000000004
 31
0.0
  0
LINE
  5
D0
330
CB
100
AcDbEntity
  8
Dimensions
 62
   140
370
    -2
100
AcDbLine
 10
193.3
 20
91.85714285714289
 30
0.0
 11
193.3000000000001
 21
88.14285714285717
 31
0.0
  0
SOLID
  5
D1
330
CB
100
AcDbEntity
  8
Dimensions
 62
   140
100
AcDbTrace
 10
193.6571428571429
 20
91.85714285714289
 30
0.0
 11
192.9428571428572
 21
91.85714285714289
 31
0.0
 12
193.3
 22
94.00000000000003
 32
0.0
 13
193.3
 23
94.00000000000003
 33
0.0
  0
SOLID
  5
D2
330
CB
100
AcDbEntity
  8
Dimensions
 62
   140
100
AcDbTrace
 10
192.9428571428572
 20
88.14285714285717
 30
0.0
 11
193.657142857143
 21
88.14285714285717
 31
0.0
 12
193.3000000000001
 22
86.00000000000003
 32
0.0
 13
193.3000000000001
 23
86.00000000000003
 33
0.0
  0
MTEXT
  5
D3
330
CB
100
AcDbEntity
  8
Dimensions
 62
   140
100
AcDbMText
 10
191.6928571428572
 20
90.00000000000001
 30
0.0
 40
2.142857142857143
 41
0.0
 46
0.0
 71
     5
 72
     1
  1
8
 11
-1.065814103640150E-14
 21
1.0
 31
0.0
 73
     1
 44
1.0
  0
POINT
  5
D4
330
CB
100
AcDbEntity
  8
Defpoints
 62
     0
100
AcDbPoint
 10
192.5
 20
94.00000000000001
 30
0.0
  0
POINT
  5
D5
330
CB
100
AcDbEntity
  8
Defpoints
 62
     0
100
AcDbPoint
 10
192.5000000000001
 20
86.00000000000001
 30
0.0
  0
POINT
  5
D6
330
CB
100
AcDbEntity
  8
Defpoints
 62
     0
100
AcDbPoint
 10
193.3000000000001
 20
86.00000000000003
 30
0.0
  0
ENDBLK
  5
CD
330
CB
100
AcDbEntity
  8
0
100
AcDbBlockEnd
  0
BLOCK
  5
D9
330
D8
100
AcDbEntity
  8
0
100
AcDbBlockBegin
  2
*D3
 70
     1
 10
0.0
 20
0.0
 30
0.0
  3
*D3
  1

  0
LINE
  5
DB
330
D8
100
AcDbEntity
  8
Dimensions
 62
   140
370
    -2
100
AcDbLine
 10
113.0357142857143
 20
120.0
 30
0.0
 11
115.0714285714285
 21
120.0
 31
0.0
  0
LINE
  5
DC
330
D8
100
AcDbEntity
  8
Dimensions
 62
   140
370
    -2
100
AcDbLine
 10
113.0357142857143
 20
105.0
 30
0.0
 11
115.0714285714285
 21
105.0
 31
0.0
  0
LINE
  5
DD
330
D8
100
AcDbEntity
  8
Dimensions
 62
   140
370
    -2
100
AcDbLine
 10
114.0
 20
117.8571428571429
 30
0.0
 11
114.0
 21
107.1428571428571
 31
0.0
  0
SOLID
  5
DE
330
D8
100
AcDbEntity
  8
Dimensions
 62
   140
100
AcDbTrace
 10
114.3571428571428
 20
117.8571428571429
 30
0.0
 11
113.6428571428571
 21
117.8571428571429
 31
0.0
 12
114.0
 22
120.0
 32
0.0
 13
114.0
 23
120.0
 33
0.0
  0
SOLID
  5
DF
330
D8
100
AcDbEntity
  8
Dimensions
 62
   140
100
AcDbTrace
 10
113.6428571428571
 20
107.1428571428571
 30
0.0
 11
114.3571428571428
 21
107.1428571428571
 31
0.0
 12
114.0
 22
105.0
 32
0.0
 13
114.0
 23
105.0
 33
0.0
  0
MTEXT
  5
E0
330
D8
100
AcDbEntity
  8
Dimensions
 62
   140
100
AcDbMText
 10
112.3928571428571
 20
112.5
 30
0.0
 40
2.142857142857143
 41
0.0
 46
0.0
 71
     5
 72
     1
  1
15
 11
0.0
 21
1.0
 31
0.0
 73
     1
 44
1.0
  0
POINT
  5
E1
330
D8
100
AcDbEntity
  8
Defpoints
 62
     0
100
AcDbPoint
 10
112.5
 20
120.0
 30
0.0
  0
POINT
  5
E2
330
D8
100
AcDbEntity
  8
Defpoints
 62
     0
100
AcDbPoint
 10
112.5
 20
105.0
 30
0.0
  0
POINT
  5
E3
330
D8
100
AcDbEntity
  8
Defpoints
 62
     0
100
AcDbPoint
 10
114.0
 20
105.0
 30
0.0
  0
ENDBLK
  5
DA
330
D8
100
AcDbEntity
  8
0
100
AcDbBlockEnd
  0
BLOCK
  5
E6
330
E5
100
AcDbEntity
  8
0
100
AcDbBlockBegin
  2
*D4
 70
     1
 10
0.0
 20
0.0
 30
0.0
  3
*D4
  1

  0
LINE
  5
E8
330
E5
100
AcDbEntity
  8
Dimensions
 62
   140
370
    -2
100
AcDbLine
 10
111.9642857142857
 20
60.00000000000001
 30
0.0
 11
109.9285714285714
 21
60.00000000000001
 31
0.0
  0
LINE
  5
E9
330
E5
100
AcDbEntity
  8
Dimensions
 62
   140
370
    -2
100
AcDbLine
 10
111.9642857142857
 20
75.00000000000001
 30
0.0
 11
109.9285714285714
 21
75.00000000000001
 31
0.0
  0
LINE
  5
EA
330
E5
100
AcDbEntity
  8
Dimensions
 62
   140
370
    -2
100
AcDbLine
 10
111.0
 20
62.14285714285716
 30
0.0
 11
111.0
 21
72.85714285714288
 31
0.0
  0
SOLID
  5
EB
330
E5
100
AcDbEntity
  8
Dimensions
 62
   140
100
AcDbTrace
 10
110.6428571428571
 20
62.14285714285716
 30
0.0
 11
111.3571428571428
 21
62.14285714285716
 31
0.0
 12
111.0
 22
60.00000000000001
 32
0.0
 13
111.0
 23
60.00000000000001
 33
0.0
  0
SOLID
  5
EC
330
E5
100
AcDbEntity
  8
Dimensions
 62
   140
100
AcDbTrace
 10
111.3571428571428
 20
72.85714285714288
 30
0.0
 11
110.6428571428571
 21
72.85714285714288
 31
0.0
 12
111.0
 22
75.00000000000001
 32
0.0
 13
111.0
 23
75.00000000000001
 33
0.0
  0
MTEXT
  5
ED
330
E5
100
AcDbEntity
  8
Dimensions
 62
   140
100
AcDbMText
 10
109.3928571428571
 20
67.50000000000001
 30
0.0
 40
2.142857142857143
 41
0.0
 46
0.0
 71
     5
 72
     1
  1
15
 11
0.0
 21
1.0
 31
0.0
 73
     1
 44
1.0
  0
POINT
  5
EE
330
E5
100
AcDbEntity
  8
Defpoints
 62
     0
100
AcDbPoint
 10
112.5
 20
60.00000000000001
 30
0.0
  0
POINT
  5
EF
330
E5
100
AcDbEntity
  8
Defpoints
 62
     0
100
AcDbPoint
 10
112.5
 20
75.00000000000001
 30
0.0
  0
POINT
  5
F0
330
E5
100
AcDbEntity
  8
Defpoints
 62
     0
100
AcDbPoint
 10
111.0
 20
75.00000000000001
 30
0.0
  0
ENDBLK
  5
E7
330
E5
100
AcDbEntity
  8
0
100
AcDbBlockEnd
  0
BLOCK
  5
F3
330
F2
100
AcDbEntity
  8
0
100
AcDbBlockBegin
  2
*D5
 70
     1
 10
0.0
 20
0.0
 30
0.0
  3
*D5
  1

  0
LINE
  5
F5
330
F2
100
AcDbEntity
  8
Dimensions
 62
   140
370
    -2
100
AcDbLine
 10
112.5
 20
74.46428571428572
 30
0.0
 11
112.5
 21
72.12857142857145
 31
0.0
  0
LINE
  5
F6
330
F2
100
AcDbEntity
  8
Dimensions
 62
   140
370
    -2
100
AcDbLine
 10
94.49999999999996
 20
74.46428571428571
 30
0.0
 11
94.49999999999996
 21
72.12857142857145
 31
0.0
  0
LINE
  5
F7
330
F2
100
AcDbEntity
  8
Dimensions
 62
   140
370
    -2
100
AcDbLine
 10
110.3571428571428
 20
73.20000000000002
 30
0.0
 11
96.6428571428571
 21
73.20000000000002
 31
0.0
  0
SOLID
  5
F8
330
F2
100
AcDbEntity
  8
Dimensions
 62
   140
100
AcDbTrace
 10
110.3571428571428
 20
72.84285714285716
 30
0.0
 11
110.3571428571428
 21
73.55714285714288
 31
0.0
 12
112.5
 22
73.20000000000002
 32
0.0
 13
112.5
 23
73.20000000000002
 33
0.0
  0
SOLID
  5
F9
330
F2
100
AcDbEntity
  8
Dimensions
 62
   140
100
AcDbTrace
 10
96.6428571428571
 20
73.55714285714288
 30
0.0
 11
96.6428571428571
 21
72.84285714285716
 31
0.0
 12
94.49999999999996
 22
73.20000000000002
 32
0.0
 13
94.49999999999996
 23
73.20000000000002
 33
0.0
  0
MTEXT
  5
FA
330
F2
100
AcDbEntity
  8
Dimensions
 62
   140
100
AcDbMText
 10
103.5
 20
74.80714285714288
 30
0.0
 40
2.142857142857143
 41
0.0
 46
0.0
 71
     5
 72
     1
  1
18
 73
     1
 44
1.0
  0
POINT
  5
FB
330
F2
100
AcDbEntity
  8
Defpoints
 62
     0
100
AcDbPoint
 10
112.5
 20
75.00000000000001
 30
0.0
  0
POINT
  5
FC
330
F2
100
AcDbEntity
  8
Defpoints
 62
     0
100
AcDbPoint
 10
94.49999999999996
 20
75.0
 30
0.0
  0
POINT
  5
FD
330
F2
100
AcDbEntity
  8
Defpoints
 62
     0
100
AcDbPoint
 10
94.49999999999996
 20
73.20000000000002
 30
0.0
  0
ENDBLK
  5
F4
330
F2
100
AcDbEntity
  8
0
100
AcDbBlockEnd
  0
BLOCK
  5
100
330
FF
100
AcDbEntity
  8
0
100
AcDbBlockBegin
  2
*D6
 70
     1
 10
0.0
 20
0.0
 30
0.0
  3
*D6
  1

  0
LINE
  5
102
330
FF
100
AcDbEntity
  8
Dimensions
 62
   140
370
    -2
100
AcDbLine
 10
95.03571428571425
 20
86.0
 30
0.0
 11
96.67142857142852
 21
86.0
 31
0.0
  0
LINE
  5
103
330
FF
100
AcDbEntity
  8
Dimensions
 62
   140
370
    -2
100
AcDbLine
 10
95.03571428571425
 20
75.0
 30
0.0
 11
96.67142857142852
 21
75.0
 31
0.0
  0
LINE
  5
104
330
FF
100
AcDbEntity
  8
Dimensions
 62
   140
370
    -2
100
AcDbLine
 10
95.59999999999995
 20
83.85714285714286
 30
0.0
 11
95.59999999999995
 21
77.14285714285714
 31
0.0
  0
SOLID
  5
105
330
FF
100
AcDbEntity
  8
Dimensions
 62
   140
100
AcDbTrace
 10
95.95714285714281
 20
83.85714285714286
 30
0.0
 11
95.24285714285709
 21
83.85714285714286
 31
0.0
 12
95.59999999999995
 22
86.0
 32
0.0
 13
95.59999999999995
 23
86.0
 33
0.0
  0
SOLID
  5
106
330
FF
100
AcDbEntity
  8
Dimensions
 62
   140
100
AcDbTrace
 10
95.24285714285709
 20
77.14285714285714
 30
0.0
 11
95.95714285714281
 21
77.14285714285714
 31
0.0
 12
95.59999999999995
 22
75.0
 32
0.0
 13
95.59999999999995
 23
75.0
 33
0.0
  0
MTEXT
  5
107
330
FF
100
AcDbEntity
  8
Dimensions
 62
   140
100
AcDbMText
 10
93.99285714285709
 20
80.5
 30
0.0
 40
2.142857142857143
 41
0.0
 46
0.0
 71
     5
 72
     1
  1
11
 11
0.0
 21
1.0
 31
0.0
 73
     1
 44
1.0
  0
POINT
  5
108
330
FF
100
AcDbEntity
  8
Defpoints
 62
     0
100
AcDbPoint
 10
94.49999999999996
 20
86.0
 30
0.0
  0
POINT
  5
109
330
FF
100
AcDbEntity
  8
Defpoints
 62
     0
100
AcDbPoint
 10
94.49999999999996
 20
75.0
 30
0.0
  0
POINT
  5
10A
330
FF
100
AcDbEntity
  8
Defpoints
 62
     0
100
AcDbPoint
 10
95.59999999999995
 20
75.0
 30
0.0
  0
ENDBLK
  5
101
330
FF
100
AcDbEntity
  8
0
100
AcDbBlockEnd
  0
BLOCK
  5
10D
330
10C
100
AcDbEntity
  8
0
100
AcDbBlockBegin
  2
*D7
 70
     1
 10
0.0
 20
0.0
 30
0.0
  3
*D7
  1

  0
LINE
  5
10F
330
10C
100
AcDbEntity
  8
Dimensions
 62
   140
370
    -2
100
AcDbLine
 10
71.79999999999998
 20
94.53571428571429
 30
0.0
 11
71.79999999999998
 21
95.97142857142858
 31
0.0
  0
LINE
  5
110
330
10C
100
AcDbEntity
  8
Dimensions
 62
   140
370
    -2
100
AcDbLine
 10
80.79999999999998
 20
94.53571428571429
 30
0.0
 11
80.79999999999998
 21
95.97142857142858
 31
0.0
  0
LINE
  5
111
330
10C
100
AcDbEntity
  8
Dimensions
 62
   140
370
    -2
100
AcDbLine
 10
73.94285714285712
 20
94.9
 30
0.0
 11
78.65714285714284
 21
94.9
 31
0.0
  0
SOLID
  5
112
330
10C
100
AcDbEntity
  8
Dimensions
 62
   140
100
AcDbTrace
 10
73.94285714285712
 20
95.25714285714287
 30
0.0
 11
73.94285714285712
 21
94.54285714285714
 31
0.0
 12
71.79999999999998
 22
94.9
 32
0.0
 13
71.79999999999998
 23
94.9
 33
0.0
  0
SOLID
  5
113
330
10C
100
AcDbEntity
  8
Dimensions
 62
   140
100
AcDbTrace
 10
78.65714285714284
 20
94.54285714285714
 30
0.0
 11
78.65714285714284
 21
95.25714285714287
 31
0.0
 12
80.79999999999998
 22
94.9
 32
0.0
 13
80.79999999999998
 23
94.9
 33
0.0
  0
MTEXT
  5
114
330
10C
100
AcDbEntity
  8
Dimensions
 62
   140
100
AcDbMText
 10
76.29999999999998
 20
96.50714285714287
 30
0.0
 40
2.142857142857143
 41
0.0
 46
0.0
 71
     5
 72
     1
  1
9
 73
     1
 44
1.0
  0
POINT
  5
115
330
10C
100
AcDbEntity
  8
Defpoints
 62
     0
100
AcDbPoint
 10
71.79999999999998
 20
94.0
 30
0.0
  0
POINT
  5
116
330
10C
100
AcDbEntity
  8
Defpoints
 62
     0
100
AcDbPoint
 10
80.79999999999998
 20
94.0
 30
0.0
  0
POINT
  5
117
330
10C
100
AcDbEntity
  8
Defpoints
 62
     0
100
AcDbPoint
 10
80.79999999999998
 20
94.9
 30
0.0
  0
ENDBLK
  5
10E
330
10C
100
AcDbEntity
  8
0
100
AcDbBlockEnd
  0
BLOCK
  5
11A
330
119
100
AcDbEntity
  8
0
100
AcDbBlockBegin
  2
*D8
 70
     1
 10
0.0
 20
0.0
 30
0.0
  3
*D8
  1

  0
LINE
  5
11C
330
119
100
AcDbEntity
  8
Dimensions
 62
   140
370
    -2
100
AcDbLine
 10
71.79999999999998
 20
105.5357142857143
 30
0.0
 11
71.79999999999998
 21
107.8714285714286
 31
0.0
  0
LINE
  5
11D
330
119
100
AcDbEntity
  8
Dimensions
 62
   140
370
    -2
100
AcDbLine
 10
89.80000000000001
 20
105.5357142857143
 30
0.0
 11
89.80000000000001
 21
107.8714285714286
 31
0.0
  0
LINE
  5
11E
330
119
100
AcDbEntity
  8
Dimensions
 62
   140
370
    -2
100
AcDbLine
 10
73.94285714285712
 20
106.8
 30
0.0
 11
87.65714285714287
 21
106.8
 31
0.0
  0
SOLID
  5
11F
330
119
100
AcDbEntity
  8
Dimensions
 62
   140
100
AcDbTrace
 10
73.94285714285712
 20
107.1571428571429
 30
0.0
 11
73.94285714285712
 21
106.4428571428571
 31
0.0
 12
71.79999999999998
 22
106.8
 32
0.0
 13
71.79999999999998
 23
106.8
 33
0.0
  0
SOLID
  5
120
330
119
100
AcDbEntity
  8
Dimensions
 62
   140
100
AcDbTrace
 10
87.65714285714287
 20
106.4428571428571
 30
0.0
 11
87.65714285714287
 21
107.1571428571429
 31
0.0
 12
89.80000000000001
 22
106.8
 32
0.0
 13
89.80000000000001
 23
106.8
 33
0.0
  0
MTEXT
  5
121
330
119
100
AcDbEntity
  8
Dimensions
 62
   140
100
AcDbMText
 10
80.8
 20
108.4071428571429
 30
0.0
 40
2.142857142857143
 41
0.0
 46
0.0
 71
     5
 72
     1
  1
18
 73
     1
 44
1.0
  0
POINT
  5
122
330
119
100
AcDbEntity
  8
Defpoints
 62
     0
100
AcDbPoint
 10
71.79999999999998
 20
105.0
 30
0.0
  0
POINT
  5
123
330
119
100
AcDbEntity
  8
Defpoints
 62
     0
100
AcDbPoint
 10
89.80000000000001
 20
105.0
 30
0.0
  0
POINT
  5
124
330
119
100
AcDbEntity
  8
Defpoints
 62
     0
100
AcDbPoint
 10
89.80000000000001
 20
106.8
 30
0.0
  0
ENDBLK
  5
11B
330
119
100
AcDbEntity
  8
0
100
AcDbBlockEnd
  0
BLOCK
  5
127
330
126
100
AcDbEntity
  8
0
100
AcDbBlockBegin
  2
*D9
 70
     1
 10
0.0
 20
0.0
 30
0.0
  3
*D9
  1

  0
LINE
  5
129
330
126
100
AcDbEntity
  8
Dimensions
 62
   140
370
    -2
100
AcDbLine
 10
89.79999999999998
 20
94.53571428571429
 30
0.0
 11
89.79999999999998
 21
95.37142857142857
 31
0.0
  0
LINE
  5
12A
330
126
100
AcDbEntity
  8
Dimensions
 62
   140
370
    -2
100
AcDbLine
 10
92.79999999999998
 20
94.53571428571429
 30
0.0
 11
92.79999999999998
 21
95.37142857142857
 31
0.0
  0
LINE
  5
12B
330
126
100
AcDbEntity
  8
Dimensions
 62
   140
370
    -2
100
AcDbLine
 10
89.79999999999998
 20
94.3
 30
0.0
 11
92.79999999999998
 21
94.3
 31
0.0
  0
LINE
  5
12C
330
126
100
AcDbEntity
  8
Dimensions
 62
   140
370
    -2
100
AcDbLine
 10
87.65714285714284
 20
94.3
 30
0.0
 11
85.5142857142857
 21
94.3
 31
0.0
  0
LINE
  5
12D
330
126
100
AcDbEntity
  8
Dimensions
 62
   140
370
    -2
100
AcDbLine
 10
94.94285714285712
 20
94.3
 30
0.0
 11
97.08571428571426
 21
94.3
 31
0.0
  0
SOLID
  5
12E
330
126
100
AcDbEntity
  8
Dimensions
 62
   140
100
AcDbTrace
 10
87.65714285714284
 20
93.94285714285714
 30
0.0
 11
87.65714285714284
 21
94.65714285714286
 31
0.0
 12
89.79999999999998
 22
94.3
 32
0.0
 13
89.79999999999998
 23
94.3
 33
0.0
  0
SOLID
  5
12F
330
126
100
AcDbEntity
  8
Dimensions
 62
   140
100
AcDbTrace
 10
94.94285714285712
 20
94.65714285714286
 30
0.0
 11
94.94285714285712
 21
93.94285714285714
 31
0.0
 12
92.79999999999998
 22
94.3
 32
0.0
 13
92.79999999999998
 23
94.3
 33
0.0
  0
MTEXT
  5
130
330
126
100
AcDbEntity
  8
Dimensions
 62
   140
100
AcDbMText
 10
91.29999999999998
 20
95.90714285714286
 30
0.0
 40
2.142857142857143
 41
0.0
 46
0.0
 71
     5
 72
     1
  1
3
 73
     1
 44
1.0
  0
POINT
  5
131
330
126
100
AcDbEntity
  8
Defpoints
 62
     0
100
AcDbPoint
 10
89.79999999999998
 20
94.0
 30
0.0
  0
POINT
  5
132
330
126
100
AcDbEntity
  8
Defpoints
 62
     0
100
AcDbPoint
 10
92.79999999999998
 20
94.0
 30
0.0
  0
POINT
  5
133
330
126
100
AcDbEntity
  8
Defpoints
 62
     0
100
AcDbPoint
 10
92.79999999999998
 20
94.3
 30
0.0
  0
ENDBLK
  5
128
330
126
100
AcDbEntity
  8
0
100
AcDbBlockEnd
  0
BLOCK
  5
136
330
135
100
AcDbEntity
  8
0
100
AcDbBlockBegin
  2
*D10
 70
     1
 10
0.0
 20
0.0
 30
0.0
  3
*D10
  1

  0
LINE
  5
138
330
135
100
AcDbEntity
  8
Dimensions
 62
   140
370
    -2
100
AcDbLine
 10
90.3357142857143
 20
105.0
 30
0.0
 11
91.97142857142858
 21
105.0
 31
0.0
  0
LINE
  5
139
330
135
100
AcDbEntity
  8
Dimensions
 62
   140
370
    -2
100
AcDbLine
 10
90.33571428571427
 20
94.0
 30
0.0
 11
91.97142857142855
 21
94.0
 31
0.0
  0
LINE
  5
13A
330
135
100
AcDbEntity
  8
Dimensions
 62
   140
370
    -2
100
AcDbLine
 10
90.9
 20
102.8571428571429
 30
0.0
 11
90.89999999999998
 21
96.14285714285714
 31
0.0
  0
SOLID
  5
13B
330
135
100
AcDbEntity
  8
Dimensions
 62
   140
100
AcDbTrace
 10
91.25714285714287
 20
102.8571428571429
 30
0.0
 11
90.54285714285714
 21
102.8571428571429
 31
0.0
 12
90.9
 22
105.0
 32
0.0
 13
90.9
 23
105.0
 33
0.0
  0
SOLID
  5
13C
330
135
100
AcDbEntity
  8
Dimensions
 62
   140
100
AcDbTrace
 10
90.54285714285712
 20
96.14285714285714
 30
0.0
 11
91.25714285714284
 21
96.14285714285714
 31
0.0
 12
90.89999999999998
 22
94.0
 32
0.0
 13
90.89999999999998
 23
94.0
 33
0.0
  0
MTEXT
  5
13D
330
135
100
AcDbEntity
  8
Dimensions
 62
   140
100
AcDbMText
 10
89.29285714285713
 20
99.5
 30
0.0
 40
2.142857142857143
 41
0.0
 46
0.0
 71
     5
 72
     1
  1
11
 11
2.583791766400364E-15
 21
1.0
 31
0.0
 73
     1
 44
1.0
  0
POINT
  5
13E
330
135
100
AcDbEntity
  8
Defpoints
 62
     0
100
AcDbPoint
 10
89.80000000000001
 20
105.0
 30
0.0
  0
POINT
  5
13F
330
135
100
AcDbEntity
  8
Defpoints
 62
     0
100
AcDbPoint
 10
89.79999999999998
 20
94.0
 30
0.0
  0
POINT
  5
140
330
135
100
AcDbEntity
  8
Defpoints
 62
     0
100
AcDbPoint
 10
90.89999999999998
 20
94.0
 30
0.0
  0
ENDBLK
  5
137
330
135
100
AcDbEntity
  8
0
100
AcDbBlockEnd
  0
BLOCK
  5
143
330
142
100
AcDbEntity
  8
0
100
AcDbBlockBegin
  2
*D11
 70
     1
 10
0.0
 20
0.0
 30
0.0
  3
*D11
  1

  0
LINE
  5
145
330
142
100
AcDbEntity
  8
Dimensions
 62
   140
370
    -2
100
AcDbLine
 10
93.33571428571427
 20
94.0
 30
0.0
 11
94.67142857142855
 21
94.0
 31
0.0
  0
LINE
  5
146
330
142
100
AcDbEntity
  8
Dimensions
 62
   140
370
    -2
100
AcDbLine
 10
93.33571428571427
 20
86.0
 30
0.0
 11
94.67142857142855
 21
86.0
 31
0.0
  0
LINE
  5
147
330
142
100
AcDbEntity
  8
Dimensions
 62
   140
370
    -2
100
AcDbLine
 10
93.59999999999998
 20
91.85714285714286
 30
0.0
 11
93.59999999999998
 21
88.14285714285714
 31
0.0
  0
SOLID
  5
148
330
142
100
AcDbEntity
  8
Dimensions
 62
   140
100
AcDbTrace
 10
93.95714285714284
 20
91.85714285714286
 30
0.0
 11
93.24285714285712
 21
91.85714285714286
 31
0.0
 12
93.59999999999998
 22
94.0
 32
0.0
 13
93.59999999999998
 23
94.0
 33
0.0
  0
SOLID
  5
149
330
142
100
AcDbEntity
  8
Dimensions
 62
   140
100
AcDbTrace
 10
93.24285714285712
 20
88.14285714285714
 30
0.0
 11
93.95714285714284
 21
88.14285714285714
 31
0.0
 12
93.59999999999998
 22
86.0
 32
0.0
 13
93.59999999999998
 23
86.0
 33
0.0
  0
MTEXT
  5
14A
330
142
100
AcDbEntity
  8
Dimensions
 62
   140
100
AcDbMText
 10
91.99285714285712
 20
90.0
 30
0.0
 40
2.142857142857143
 41
0.0
 46
0.0
 71
     5
 72
     1
  1
8
 11
0.0
 21
1.0
 31
0.0
 73
     1
 44
1.0
  0
POINT
  5
14B
330
142
100
AcDbEntity
  8
Defpoints
 62
     0
100
AcDbPoint
 10
92.79999999999998
 20
94.0
 30
0.0
  0
POINT
  5
14C
330
142
100
AcDbEntity
  8
Defpoints
 62
     0
100
AcDbPoint
 10
92.79999999999998
 20
86.0
 30
0.0
  0
POINT
  5
14D
330
142
100
AcDbEntity
  8
Defpoints
 62
     0
100
AcDbPoint
 10
93.59999999999998
 20
86.0
 30
0.0
  0
ENDBLK
  5
144
330
142
100
AcDbEntity
  8
0
100
AcDbBlockEnd
  0
BLOCK
  5
150
330
14F
100
AcDbEntity
  8
0
100
AcDbBlockBegin
  2
*D12
 70
     1
 10
0.0
 20
0.0
 30
0.0
  3
*D12
  1

  0
LINE
  5
152
330
14F
100
AcDbEntity
  8
Dimensions
 62
   140
370
    -2
100
AcDbLine
 10
95.03571428571425
 20
105.0
 30
0.0
 11
96.6714285714285
 21
105.0
 31
0.0
  0
LINE
  5
153
330
14F
100
AcDbEntity
  8
Dimensions
 62
   140
370
    -2
100
AcDbLine
 10
95.03571428571429
 20
94.0
 30
0.0
 11
96.67142857142856
 21
94.0
 31
0.0
  0
LINE
  5
154
330
14F
100
AcDbEntity
  8
Dimensions
 62
   140
370
    -2
100
AcDbLine
 10
95.59999999999995
 20
102.8571428571429
 30
0.0
 11
95.59999999999998
 21
96.14285714285714
 31
0.0
  0
SOLID
  5
155
330
14F
100
AcDbEntity
  8
Dimensions
 62
   140
100
AcDbTrace
 10
95.95714285714281
 20
102.8571428571429
 30
0.0
 11
95.24285714285709
 21
102.8571428571429
 31
0.0
 12
95.59999999999994
 22
105.0
 32
0.0
 13
95.59999999999994
 23
105.0
 33
0.0
  0
SOLID
  5
156
330
14F
100
AcDbEntity
  8
Dimensions
 62
   140
100
AcDbTrace
 10
95.24285714285712
 20
96.14285714285714
 30
0.0
 11
95.95714285714284
 21
96.14285714285714
 31
0.0
 12
95.6
 22
94.0
 32
0.0
 13
95.6
 23
94.0
 33
0.0
  0
MTEXT
  5
157
330
14F
100
AcDbEntity
  8
Dimensions
 62
   140
100
AcDbMText
 10
93.9928571428571
 20
99.5
 30
0.0
 40
2.142857142857143
 41
0.0
 46
0.0
 71
     5
 72
     1
  1
11
 11
-3.875687649600546E-15
 21
1.0
 31
0.0
 73
     1
 44
1.0
  0
POINT
  5
158
330
14F
100
AcDbEntity
  8
Defpoints
 62
     0
100
AcDbPoint
 10
94.49999999999996
 20
105.0
 30
0.0
  0
POINT
  5
159
330
14F
100
AcDbEntity
  8
Defpoints
 62
     0
100
AcDbPoint
 10
94.5
 20
94.0
 30
0.0
  0
POINT
  5
15A
330
14F
100
AcDbEntity
  8
Defpoints
 62
     0
100
AcDbPoint
 10
95.6
 20
94.0
 30
0.0
  0
ENDBLK
  5
151
330
14F
100
AcDbEntity
  8
0
100
AcDbBlockEnd
  0
BLOCK
  5
15D
330
15C
100
AcDbEntity
  8
0
100
AcDbBlockBegin
  2
*D13
 70
     1
 10
0.0
 20
0.0
 30
0.0
  3
*D13
  1

  0
LINE
  5
15F
330
15C
100
AcDbEntity
  8
Dimensions
 62
   140
370
    -2
100
AcDbLine
 10
94.5
 20
94.53571428571429
 30
0.0
 11
94.5
 21
95.37142857142858
 31
0.0
  0
LINE
  5
160
330
15C
100
AcDbEntity
  8
Dimensions
 62
   140
370
    -2
100
AcDbLine
 10
97.5
 20
94.5357142857143
 30
0.0
 11
97.5
 21
95.37142857142858
 31
0.0
  0
LINE
  5
161
330
15C
100
AcDbEntity
  8
Dimensions
 62
   140
370
    -2
100
AcDbLine
 10
94.5
 20
94.30000000000001
 30
0.0
 11
97.5
 21
94.30000000000001
 31
0.0
  0
LINE
  5
162
330
15C
100
AcDbEntity
  8
Dimensions
 62
   140
370
    -2
100
AcDbLine
 10
92.35714285714286
 20
94.3
 30
0.0
 11
90.21428571428572
 21
94.29999999999998
 31
0.0
  0
LINE
  5
163
330
15C
100
AcDbEntity
  8
Dimensions
 62
   140
370
    -2
100
AcDbLine
 10
99.64285714285714
 20
94.30000000000003
 30
0.0
 11
101.7857142857143
 21
94.30000000000004
 31
0.0
  0
SOLID
  5
164
330
15C
100
AcDbEntity
  8
Dimensions
 62
   140
100
AcDbTrace
 10
92.35714285714286
 20
93.94285714285714
 30
0.0
 11
92.35714285714286
 21
94.65714285714286
 31
0.0
 12
94.5
 22
94.30000000000001
 32
0.0
 13
94.5
 23
94.30000000000001
 33
0.0
  0
SOLID
  5
165
330
15C
100
AcDbEntity
  8
Dimensions
 62
   140
100
AcDbTrace
 10
99.64285714285714
 20
94.65714285714289
 30
0.0
 11
99.64285714285714
 21
93.94285714285716
 31
0.0
 12
97.5
 22
94.30000000000001
 32
0.0
 13
97.5
 23
94.30000000000001
 33
0.0
  0
MTEXT
  5
166
330
15C
100
AcDbEntity
  8
Dimensions
 62
   140
100
AcDbMText
 10
95.99999999999999
 20
95.90714285714287
 30
0.0
 40
2.142857142857143
 41
0.0
 46
0.0
 71
     5
 72
     1
  1
3
 73
     1
 44
1.0
  0
POINT
  5
167
330
15C
100
AcDbEntity
  8
Defpoints
 62
     0
100
AcDbPoint
 10
94.5
 20
94.0
 30
0.0
  0
POINT
  5
168
330
15C
100
AcDbEntity
  8
Defpoints
 62
     0
100
AcDbPoint
 10
97.5
 20
94.00000000000001
 30
0.0
  0
POINT
  5
169
330
15C
100
AcDbEntity
  8
Defpoints
 62
     0
100
AcDbPoint
 10
97.5
 20
94.30000000000001
 30
0.0
  0
ENDBLK
  5
15E
330
15C
100
AcDbEntity
  8
0
100
AcDbBlockEnd
  0
BLOCK
  5
16C
330
16B
100
AcDbEntity
  8
0
100
AcDbBlockBegin
  2
*D14
 70
     1
 10
0.0
 20
0.0
 30
0.0
  3
*D14
  1

  0
LINE
  5
16E
330
16B
100
AcDbEntity
  8
Dimensions
 62
   140
370
    -2
100
AcDbLine
 10
98.03571428571429
 20
94.00000000000001
 30
0.0
 11
99.37142857142855
 21
94.00000000000001
 31
0.0
  0
LINE
  5
16F
330
16B
100
AcDbEntity
  8
Dimensions
 62
   140
370
    -2
100
AcDbLine
 10
98.03571428571433
 20
86.00000000000001
 30
0.0
 11
99.37142857142861
 21
86.00000000000001
 31
0.0
  0
LINE
  5
170
330
16B
100
AcDbEntity
  8
Dimensions
 62
   140
370
    -2
100
AcDbLine
 10
98.3
 20
91.85714285714288
 30
0.0
 11
98.30000000000003
 21
88.14285714285715
 31
0.0
  0
SOLID
  5
171
330
16B
100
AcDbEntity
  8
Dimensions
 62
   140
100
AcDbTrace
 10
98.65714285714286
 20
91.85714285714288
 30
0.0
 11
97.94285714285714
 21
91.85714285714288
 31
0.0
 12
98.29999999999998
 22
94.00000000000001
 32
0.0
 13
98.29999999999998
 23
94.00000000000001
 33
0.0
  0
SOLID
  5
172
330
16B
100
AcDbEntity
  8
Dimensions
 62
   140
100
AcDbTrace
 10
97.94285714285716
 20
88.14285714285715
 30
0.0
 11
98.65714285714289
 21
88.14285714285715
 31
0.0
 12
98.30000000000004
 22
86.00000000000001
 32
0.0
 13
98.30000000000004
 23
86.00000000000001
 33
0.0
  0
MTEXT
  5
173
330
16B
100
AcDbEntity
  8
Dimensions
 62
   140
100
AcDbMText
 10
96.69285714285715
 20
90.0
 30
0.0
 40
2.142857142857143
 41
0.0
 46
0.0
 71
     5
 72
     1
  1
8
 11
-5.329070518200751E-15
 21
1.0
 31
0.0
 73
     1
 44
1.0
  0
POINT
  5
174
330
16B
100
AcDbEntity
  8
Defpoints
 62
     0
100
AcDbPoint
 10
97.5
 20
94.00000000000001
 30
0.0
  0
POINT
  5
175
330
16B
100
AcDbEntity
  8
Defpoints
 62
     0
100
AcDbPoint
 10
97.50000000000004
 20
86.00000000000001
 30
0.0
  0
POINT
  5
176
330
16B
100
AcDbEntity
  8
Defpoints
 62
     0
100
AcDbPoint
 10
98.30000000000004
 20
86.00000000000001
 30
0.0
  0
ENDBLK
  5
16D
330
16B
100
AcDbEntity
  8
0
100
AcDbBlockEnd
  0
BLOCK
  5
179
330
178
100
AcDbEntity
  8
0
100
AcDbBlockBegin
  2
*D15
 70
     1
 10
0.0
 20
0.0
 30
0.0
  3
*D15
  1

  0
LINE
  5
17B
330
178
100
AcDbEntity
  8
Dimensions
 62
   140
370
    -2
100
AcDbLine
 10
71.80000000000001
 20
86.53571428571429
 30
0.0
 11
71.80000000000001
 21
87.97142857142858
 31
0.0
  0
LINE
  5
17C
330
178
100
AcDbEntity
  8
Dimensions
 62
   140
370
    -2
100
AcDbLine
 10
80.80000000000001
 20
86.53571428571429
 30
0.0
 11
80.80000000000001
 21
87.97142857142858
 31
0.0
  0
LINE
  5
17D
330
178
100
AcDbEntity
  8
Dimensions
 62
   140
370
    -2
100
AcDbLine
 10
73.94285714285715
 20
86.9
 30
0.0
 11
78.65714285714287
 21
86.9
 31
0.0
  0
SOLID
  5
17E
330
178
100
AcDbEntity
  8
Dimensions
 62
   140
100
AcDbTrace
 10
73.94285714285715
 20
87.25714285714287
 30
0.0
 11
73.94285714285715
 21
86.54285714285714
 31
0.0
 12
71.80000000000001
 22
86.9
 32
0.0
 13
71.80000000000001
 23
86.9
 33
0.0
  0
SOLID
  5
17F
330
178
100
AcDbEntity
  8
Dimensions
 62
   140
100
AcDbTrace
 10
78.65714285714287
 20
86.54285714285714
 30
0.0
 11
78.65714285714287
 21
87.25714285714287
 31
0.0
 12
80.80000000000001
 22
86.9
 32
0.0
 13
80.80000000000001
 23
86.9
 33
0.0
  0
MTEXT
  5
180
330
178
100
AcDbEntity
  8
Dimensions
 62
   140
100
AcDbMText
 10
76.30000000000001
 20
88.50714285714287
 30
0.0
 40
2.142857142857143
 41
0.0
 46
0.0
 71
     5
 72
     1
  1
9
 73
     1
 44
1.0
  0
POINT
  5
181
330
178
100
AcDbEntity
  8
Defpoints
 62
     0
100
AcDbPoint
 10
71.80000000000001
 20
86.0
 30
0.0
  0
POINT
  5
182
330
178
100
AcDbEntity
  8
Defpoints
 62
     0
100
AcDbPoint
 10
80.80000000000001
 20
86.0
 30
0.0
  0
POINT
  5
183
330
178
100
AcDbEntity
  8
Defpoints
 62
     0
100
AcDbPoint
 10
80.80000000000001
 20
86.9
 30
0.0
  0
ENDBLK
  5
17A
330
178
100
AcDbEntity
  8
0
100
AcDbBlockEnd
  0
BLOCK
  5
186
330
185
100
AcDbEntity
  8
0
100
AcDbBlockBegin
  2
*D16
 70
     1
 10
0.0
 20
0.0
 30
0.0
  3
*D16
  1

  0
LINE
  5
188
330
185
100
AcDbEntity
  8
Dimensions
 62
   140
370
    -2
100
AcDbLine
 10
164.9571428571429
 20
15.00000000000001
 30
0.0
 11
155.3142857142857
 21
15.00000000000001
 31
0.0
  0
MTEXT
  5
189
330
185
100
AcDbEntity
  8
Dimensions
 62
   140
100
AcDbMText
 10
159.0642857142857
 20
16.81122448979593
 30
0.0
 40
2.142857142857143
 41
0.0
 46
0.0
 71
     5
 72
     1
  1
%%c4,2
 73
     1
 44
1.0
  0
SOLID
  5
18A
330
185
100
AcDbEntity
  8
Dimensions
 62
   140
100
AcDbTrace
 10
164.9571428571429
 20
14.64285714285716
 30
0.0
 11
164.9571428571429
 21
15.35714285714287
 31
0.0
 12
167.1
 22
15.00000000000001
 32
0.0
 13
167.1
 23
15.00000000000001
 33
0.0
  0
POINT
  5
18B
330
185
100
AcDbEntity
  8
Defpoints
 62
     0
100
AcDbPoint
 10
167.1
 20
15.00000000000001
 30
0.0
  0
POINT
  5
18C
330
185
100
AcDbEntity
  8
Defpoints
 62
     0
100
AcDbPoint
 10
162.9
 20
15.00000000000001
 30
0.0
  0
ENDBLK
  5
187
330
185
100
AcDbEntity
  8
0
100
AcDbBlockEnd
  0
BLOCK
  5
18F
330
18E
100
AcDbEntity
  8
0
100
AcDbBlockBegin
  2
*D17
 70
     1
 10
0.0
 20
0.0
 30
0.0
  3
*D17
  1

  0
LINE
  5
191
330
18E
100
AcDbEntity
  8
Dimensions
 62
   140
370
    -2
100
AcDbLine
 10
101.3697934373844
 20
81.62448906057706
 30
0.0
 11
103.8446303200538
 21
75.52587685909866
 31
0.0
  0
LINE
  5
192
330
18E
100
AcDbEntity
  8
Dimensions
 62
   140
370
    -2
100
AcDbLine
 10
98.63020656261557
 20
88.37551093942294
 30
0.0
 11
97.82444571709532
 21
90.36110560967172
 31
0.0
  0
MTEXT
  5
193
330
18E
100
AcDbEntity
  8
Dimensions
 62
   140
100
AcDbMText
 10
104.4992883041658
 20
78.18670625885366
 30
0.0
 40
2.142857142857143
 41
0.0
 46
0.0
 71
     5
 72
     1
  1
%%c3
 11
0.3760217279094501
 21
-0.9266108461160985
 31
0.0
 73
     1
 44
1.0
  0
LINE
  5
194
330
18E
100
AcDbEntity
  8
Dimensions
 62
   140
370
    -2
100
AcDbLine
 10
99.43596740813582
 20
86.38991626917415
 30
0.0
 11
100.5640325918642
 21
83.61008373082585
 31
0.0
  0
SOLID
  5
195
330
18E
100
AcDbEntity
  8
Dimensions
 62
   140
100
AcDbTrace
 10
98.2992741175741
 20
88.24121746516957
 30
0.0
 11
98.96113900765704
 21
88.5098044136763
 31
0.0
 12
99.43596740813582
 22
86.38991626917415
 32
0.0
 13
99.43596740813582
 23
86.38991626917415
 33
0.0
  0
SOLID
  5
196
330
18E
100
AcDbEntity
  8
Dimensions
 62
   140
100
AcDbTrace
 10
101.7007258824259
 20
81.75878253483043
 30
0.0
 11
101.038860992343
 21
81.4901955863237
 31
0.0
 12
100.5640325918642
 22
83.61008373082585
 32
0.0
 13
100.5640325918642
 23
83.61008373082585
 33
0.0
  0
POINT
  5
197
330
18E
100
AcDbEntity
  8
Defpoints
 62
     0
100
AcDbPoint
 10
100.5640325918642
 20
83.61008373082585
 30
0.0
  0
POINT
  5
198
330
18E
100
AcDbEntity
  8
Defpoints
 62
     0
100
AcDbPoint
 10
99.43596740813582
 20
86.38991626917415
 30
0.0
  0
ENDBLK
  5
190
330
18E
100
AcDbEntity
  8
0
100
AcDbBlockEnd
  0
BLOCK
  5
19B
330
19A
100
AcDbEntity
  8
0
100
AcDbBlockBegin
  2
*D18
 70
     1
 10
0.0
 20
0.0
 30
0.0
  3
*D18
  1

  0
LINE
  5
19D
330
19A
100
AcDbEntity
  8
Dimensions
 62
   140
370
    -2
100
AcDbLine
 10
39.85714285714285
 20
123.0
 30
0.0
 11
33.1734693877551
 21
123.0
 31
0.0
  0
MTEXT
  5
19E
330
19A
100
AcDbEntity
  8
Dimensions
 62
   140
100
AcDbMText
 10
35.44387755102041
 20
124.6071428571429
 30
0.0
 40
2.142857142857143
 41
0.0
 46
0.0
 71
     5
 72
     1
  1
%%c4
 73
     1
 44
1.0
  0
SOLID
  5
19F
330
19A
100
AcDbEntity
  8
Dimensions
 62
   140
100
AcDbTrace
 10
39.85714285714285
 20
122.6428571428571
 30
0.0
 11
39.85714285714285
 21
123.3571428571429
 31
0.0
 12
42.0
 22
123.0
 32
0.0
 13
42.0
 23
123.0
 33
0.0
  0
POINT
  5
1A0
330
19A
100
AcDbEntity
  8
Defpoints
 62
     0
100
AcDbPoint
 10
42.0
 20
123.0
 30
0.0
  0
POINT
  5
1A1
330
19A
100
AcDbEntity
  8
Defpoints
 62
     0
100
AcDbPoint
 10
38.0
 20
123.0
 30
0.0
  0
ENDBLK
  5
19C
330
19A
100
AcDbEntity
  8
0
100
AcDbBlockEnd
  0
BLOCK
  5
1A4
330
1A3
100
AcDbEntity
  8
0
100
AcDbBlockBegin
  2
*D19
 70
     1
 10
0.0
 20
0.0
 30
0.0
  3
*D19
  1

  0
LINE
  5
1A6
330
1A3
100
AcDbEntity
  8
Dimensions
 62
   140
370
    -2
100
AcDbLine
 10
14.95714285714287
 20
15.00000000000001
 30
0.0
 11
5.314285714285726
 21
15.00000000000001
 31
0.0
  0
MTEXT
  5
1A7
330
1A3
100
AcDbEntity
  8
Dimensions
 62
   140
100
AcDbMText
 10
9.064285714285727
 20
16.81122448979593
 30
0.0
 40
2.142857142857143
 41
0.0
 46
0.0
 71
     5
 72
     1
  1
%%c4,2
 73
     1
 44
1.0
  0
SOLID
  5
1A8
330
1A3
100
AcDbEntity
  8
Dimensions
 62
   140
100
AcDbTrace
 10
14.95714285714287
 20
14.64285714285716
 30
0.0
 11
14.95714285714287
 21
15.35714285714287
 31
0.0
 12
17.10000000000002
 22
15.00000000000001
 32
0.0
 13
17.10000000000002
 23
15.00000000000001
 33
0.0
  0
POINT
  5
1A9
330
1A3
100
AcDbEntity
  8
Defpoints
 62
     0
100
AcDbPoint
 10
17.10000000000002
 20
15.00000000000001
 30
0.0
  0
POINT
  5
1AA
330
1A3
100
AcDbEntity
  8
Defpoints
 62
     0
100
AcDbPoint
 10
12.90000000000001
 20
15.00000000000001
 30
0.0
  0
ENDBLK
  5
1A5
330
1A3
100
AcDbEntity
  8
0
100
AcDbBlockEnd
  0
BLOCK
  5
1AD
330
1AC
100
AcDbEntity
  8
0
100
AcDbBlockBegin
  2
*D20
 70
     1
 10
0.0
 20
0.0
 30
0.0
  3
*D20
  1

  0
LINE
  5
1AF
330
1AC
100
AcDbEntity
  8
Dimensions
 62
   140
370
    -2
100
AcDbLine
 10
201.3571428571429
 20
100.0
 30
0.0
 11
194.7755102040817
 21
100.0
 31
0.0
  0
MTEXT
  5
1B0
330
1AC
100
AcDbEntity
  8
Dimensions
 62
   140
100
AcDbMText
 10
196.9948979591837
 20
101.6071428571429
 30
0.0
 40
2.142857142857143
 41
0.0
 46
0.0
 71
     5
 72
     1
  1
%%c3
 73
     1
 44
1.0
  0
SOLID
  5
1B1
330
1AC
100
AcDbEntity
  8
Dimensions
 62
   140
100
AcDbTrace
 10
201.3571428571429
 20
99.64285714285714
 30
0.0
 11
201.3571428571429
 21
100.3571428571429
 31
0.0
 12
203.5
 22
100.0
 32
0.0
 13
203.5
 23
100.0
 33
0.0
  0
POINT
  5
1B2
330
1AC
100
AcDbEntity
  8
Defpoints
 62
     0
100
AcDbPoint
 10
203.5
 20
100.0
 30
0.0
  0
POINT
  5
1B3
330
1AC
100
AcDbEntity
  8
Defpoints
 62
     0
100
AcDbPoint
 10
200.5
 20
100.0
 30
0.0
  0
ENDBLK
  5
1AE
330
1AC
100
AcDbEntity
  8
0
100
AcDbBlockEnd
  0
BLOCK
  5
1B6
330
1B5
100
AcDbEntity
  8
0
100
AcDbBlockBegin
  2
*D21
 70
     1
 10
0.0
 20
0.0
 30
0.0
  3
*D21
  1

  0
LINE
  5
1B8
330
1B5
100
AcDbEntity
  8
Dimensions
 62
   140
370
    -2
100
AcDbLine
 10
39.85714285714285
 20
57.0
 30
0.0
 11
33.1734693877551
 21
57.0
 31
0.0
  0
MTEXT
  5
1B9
330
1B5
100
AcDbEntity
  8
Dimensions
 62
   140
100
AcDbMText
 10
35.44387755102041
 20
58.60714285714285
 30
0.0
 40
2.142857142857143
 41
0.0
 46
0.0
 71
     5
 72
     1
  1
%%c4
 73
     1
 44
1.0
  0
SOLID
  5
1BA
330
1B5
100
AcDbEntity
  8
Dimensions
 62
   140
100
AcDbTrace
 10
39.85714285714285
 20
56.64285714285715
 30
0.0
 11
39.85714285714285
 21
57.35714285714285
 31
0.0
 12
42.0
 22
57.0
 32
0.0
 13
42.0
 23
57.0
 33
0.0
  0
POINT
  5
1BB
330
1B5
100
AcDbEntity
  8
Defpoints
 62
     0
100
AcDbPoint
 10
42.0
 20
57.0
 30
0.0
  0
POINT
  5
1BC
330
1B5
100
AcDbEntity
  8
Defpoints
 62
     0
100
AcDbPoint
 10
38.0
 20
57.0
 30
0.0
  0
ENDBLK
  5
1B7
330
1B5
100
AcDbEntity
  8
0
100
AcDbBlockEnd
  0
BLOCK
  5
1BF
330
1BE
100
AcDbEntity
  8
0
100
AcDbBlockBegin
  2
*D22
 70
     1
 10
0.0
 20
0.0
 30
0.0
  3
*D22
  1

  0
LINE
  5
1C1
330
1BE
100
AcDbEntity
  8
Dimensions
 62
   140
370
    -2
100
AcDbLine
 10
102.5091101766
 20
92.3590202036086
 30
0.0
 11
107.0423764620538
 21
87.58750208407791
 31
0.0
  0
LINE
  5
1C2
330
1BE
100
AcDbEntity
  8
Dimensions
 62
   140
370
    -2
100
AcDbLine
 10
97.49088982339998
 20
97.6409797963914
 30
0.0
 11
96.01494266069409
 21
99.19449732368047
 31
0.0
  0
MTEXT
  5
1C3
330
1BE
100
AcDbEntity
  8
Dimensions
 62
   140
100
AcDbMText
 10
106.6788550461467
 20
90.30346275222814
 30
0.0
 40
2.142857142857143
 41
0.0
 46
0.0
 71
     5
 72
     1
  1
%%c3
 11
0.688775342596081
 21
-0.7249748460682283
 31
0.0
 73
     1
 44
1.0
  0
LINE
  5
1C4
330
1BE
100
AcDbEntity
  8
Dimensions
 62
   140
370
    -2
100
AcDbLine
 10
98.96683698610587
 20
96.08746226910235
 30
0.0
 11
101.0331630138941
 21
93.91253773089765
 31
0.0
  0
SOLID
  5
1C5
330
1BE
100
AcDbEntity
  8
Dimensions
 62
   140
100
AcDbTrace
 10
97.23197023551847
 20
97.39498860260709
 30
0.0
 11
97.74980941128149
 21
97.88697099017573
 31
0.0
 12
98.96683698610587
 22
96.08746226910235
 32
0.0
 13
98.96683698610587
 23
96.08746226910235
 33
0.0
  0
SOLID
  5
1C6
330
1BE
100
AcDbEntity
  8
Dimensions
 62
   140
100
AcDbTrace
 10
102.7680297644815
 20
92.60501139739291
 30
0.0
 11
102.2501905887185
 21
92.11302900982427
 31
0.0
 12
101.0331630138941
 22
93.91253773089765
 32
0.0
 13
101.0331630138941
 23
93.91253773089765
 33
0.0
  0
POINT
  5
1C7
330
1BE
100
AcDbEntity
  8
Defpoints
 62
     0
100
AcDbPoint
 10
101.0331630138941
 20
93.91253773089765
 30
0.0
  0
POINT
  5
1C8
330
1BE
100
AcDbEntity
  8
Defpoints
 62
     0
100
AcDbPoint
 10
98.96683698610587
 20
96.08746226910235
 30
0.0
  0
ENDBLK
  5
1C0
330
1BE
100
AcDbEntity
  8
0
100
AcDbBlockEnd
  0
BLOCK
  5
1CB
330
1CA
100
AcDbEntity
  8
0
100
AcDbBlockBegin
  2
*D23
 70
     1
 10
0.0
 20
0.0
 30
0.0
  3
*D23
  1

  0
LINE
  5
1CD
330
1CA
100
AcDbEntity
  8
Dimensions
 62
   140
370
    -2
100
AcDbLine
 10
85.65714285714286
 20
80.0
 30
0.0
 11
79.07551020408162
 21
80.0
 31
0.0
  0
MTEXT
  5
1CE
330
1CA
100
AcDbEntity
  8
Dimensions
 62
   140
100
AcDbMText
 10
81.29489795918367
 20
81.60714285714286
 30
0.0
 40
2.142857142857143
 41
0.0
 46
0.0
 71
     5
 72
     1
  1
%%c3
 73
     1
 44
1.0
  0
SOLID
  5
1CF
330
1CA
100
AcDbEntity
  8
Dimensions
 62
   140
100
AcDbTrace
 10
85.65714285714286
 20
79.64285714285714
 30
0.0
 11
85.65714285714286
 21
80.35714285714286
 31
0.0
 12
87.8
 22
80.0
 32
0.0
 13
87.8
 23
80.0
 33
0.0
  0
POINT
  5
1D0
330
1CA
100
AcDbEntity
  8
Defpoints
 62
     0
100
AcDbPoint
 10
87.8
 20
80.0
 30
0.0
  0
POINT
  5
1D1
330
1CA
100
AcDbEntity
  8
Defpoints
 62
     0
100
AcDbPoint
 10
84.8
 20
80.0
 30
0.0
  0
ENDBLK
  5
1CC
330
1CA
100
AcDbEntity
  8
0
100
AcDbBlockEnd
  0
BLOCK
  5
1D4
330
1D3
100
AcDbEntity
  8
0
100
AcDbBlockBegin
  2
*D24
 70
     1
 10
0.0
 20
0.0
 30
0.0
  3
*D24
  1

  0
LINE
  5
1D6
330
1D3
100
AcDbEntity
  8
Dimensions
 62
   140
370
    -2
100
AcDbLine
 10
194.3571428571429
 20
85.0
 30
0.0
 11
187.7755102040817
 21
85.0
 31
0.0
  0
MTEXT
  5
1D7
330
1D3
100
AcDbEntity
  8
Dimensions
 62
   140
100
AcDbMText
 10
189.9948979591837
 20
86.60714285714286
 30
0.0
 40
2.142857142857143
 41
0.0
 46
0.0
 71
     5
 72
     1
  1
%%c3
 73
     1
 44
1.0
  0
SOLID
  5
1D8
330
1D3
100
AcDbEntity
  8
Dimensions
 62
   140
100
AcDbTrace
 10
194.3571428571429
 20
84.64285714285714
 30
0.0
 11
194.3571428571429
 21
85.35714285714286
 31
0.0
 12
196.5
 22
85.0
 32
0.0
 13
196.5
 23
85.0
 33
0.0
  0
POINT
  5
1D9
330
1D3
100
AcDbEntity
  8
Defpoints
 62
     0
100
AcDbPoint
 10
196.5
 20
85.0
 30
0.0
  0
POINT
  5
1DA
330
1D3
100
AcDbEntity
  8
Defpoints
 62
     0
100
AcDbPoint
 10
193.5
 20
85.0
 30
0.0
  0
ENDBLK
  5
1D5
330
1D3
100
AcDbEntity
  8
0
100
AcDbBlockEnd
  0
BLOCK
  5
1DD
330
1DC
100
AcDbEntity
  8
0
100
AcDbBlockBegin
  2
*D25
 70
     1
 10
0.0
 20
0.0
 30
0.0
  3
*D25
  1

  0
LINE
  5
1DF
330
1DC
100
AcDbEntity
  8
Dimensions
 62
   140
370
    -2
100
AcDbLine
 10
109.3802100522055
 20
97.24228205382694
 30
0.0
 11
113.6805895582912
 21
92.25985047040501
 31
0.0
  0
LINE
  5
1E0
330
1DC
100
AcDbEntity
  8
Dimensions
 62
   140
370
    -2
100
AcDbLine
 10
104.6197899477945
 20
102.7577179461731
 30
0.0
 11
103.2196663876736
 21
104.3799049733337
 31
0.0
  0
MTEXT
  5
1E1
330
1DC
100
AcDbEntity
  8
Dimensions
 62
   140
100
AcDbMText
 10
113.4471018556793
 20
94.99006541862634
 30
0.0
 40
2.142857142857143
 41
0.0
 46
0.0
 71
     5
 72
     1
  1
%%c3
 11
0.6533909947230913
 21
-0.7570206126749583
 31
0.0
 73
     1
 44
1.0
  0
LINE
  5
1E2
330
1DC
100
AcDbEntity
  8
Dimensions
 62
   140
370
    -2
100
AcDbLine
 10
106.0199135079154
 20
101.1355309190124
 30
0.0
 11
107.9800864920846
 21
98.86446908098756
 31
0.0
  0
SOLID
  5
1E3
330
1DC
100
AcDbEntity
  8
Dimensions
 62
   140
100
AcDbTrace
 10
104.3494254432677
 20
102.5243640194862
 30
0.0
 11
104.8901544523212
 21
102.9910718728599
 31
0.0
 12
106.0199135079154
 22
101.1355309190124
 32
0.0
 13
106.0199135079154
 23
101.1355309190124
 33
0.0
  0
SOLID
  5
1E4
330
1DC
100
AcDbEntity
  8
Dimensions
 62
   140
100
AcDbTrace
 10
109.6505745567323
 20
97.47563598051376
 30
0.0
 11
109.1098455476788
 21
97.00892812714012
 31
0.0
 12
107.9800864920846
 22
98.86446908098756
 32
0.0
 13
107.9800864920846
 23
98.86446908098756
 33
0.0
  0
POINT
  5
1E5
330
1DC
100
AcDbEntity
  8
Defpoints
 62
     0
100
AcDbPoint
 10
107.9800864920846
 20
98.86446908098756
 30
0.0
  0
POINT
  5
1E6
330
1DC
100
AcDbEntity
  8
Defpoints
 62
     0
100
AcDbPoint
 10
106.0199135079154
 20
101.1355309190124
 30
0.0
  0
ENDBLK
  5
1DE
330
1DC
100
AcDbEntity
  8
0
100
AcDbBlockEnd
  0
BLOCK
  5
1E9
330
1E8
100
AcDbEntity
  8
0
100
AcDbBlockBegin
  2
*D26
 70
     1
 10
0.0
 20
0.0
 30
0.0
  3
*D26
  1

  0
LINE
  5
1EB
330
1E8
100
AcDbEntity
  8
Dimensions
 62
   140
370
    -2
100
AcDbLine
 10
109.523952170951
 20
82.62679911717987
 30
0.0
 11
114.2075454477824
 21
87.50124120305136
 31
0.0
  0
LINE
  5
1EC
330
1E8
100
AcDbEntity
  8
Dimensions
 62
   140
370
    -2
100
AcDbLine
 10
104.476047829049
 20
77.37320088282013
 30
0.0
 11
102.9913700814307
 21
75.82802493153785
 31
0.0
  0
MTEXT
  5
1ED
330
1E8
100
AcDbEntity
  8
Dimensions
 62
   140
100
AcDbMText
 10
111.5109615314304
 20
87.01438870707983
 30
0.0
 40
2.142857142857143
 41
0.0
 46
0.0
 71
     5
 72
     1
  1
%%c3
 11
0.69284961555518
 21
0.7210821105983974
 31
0.0
 73
     1
 44
1.0
  0
LINE
  5
1EE
330
1E8
100
AcDbEntity
  8
Dimensions
 62
   140
370
    -2
100
AcDbLine
 10
105.9607255766672
 20
78.9183768341024
 30
0.0
 11
108.0392744233328
 21
81.0816231658976
 31
0.0
  0
SOLID
  5
1EF
330
1E8
100
AcDbEntity
  8
Dimensions
 62
   140
100
AcDbTrace
 10
104.7335771542627
 20
77.12575459155042
 30
0.0
 11
104.2185185038353
 21
77.62064717408984
 31
0.0
 12
105.9607255766672
 22
78.9183768341024
 32
0.0
 13
105.9607255766672
 23
78.9183768341024
 33
0.0
  0
SOLID
  5
1F0
330
1E8
100
AcDbEntity
  8
Dimensions
 62
   140
100
AcDbTrace
 10
109.2664228457373
 20
82.87424540844958
 30
0.0
 11
109.7814814961647
 21
82.37935282591016
 31
0.0
 12
108.0392744233328
 22
81.0816231658976
 32
0.0
 13
108.0392744233328
 23
81.0816231658976
 33
0.0
  0
POINT
  5
1F1
330
1E8
100
AcDbEntity
  8
Defpoints
 62
     0
100
AcDbPoint
 10
108.0392744233328
 20
81.0816231658976
 30
0.0
  0
POINT
  5
1F2
330
1E8
100
AcDbEntity
  8
Defpoints
 62
     0
100
AcDbPoint
 10
105.9607255766672
 20
78.9183768341024
 30
0.0
  0
ENDBLK
  5
1EA
330
1E8
100
AcDbEntity
  8
0
100
AcDbBlockEnd
  0
BLOCK
  5
1F5
330
1F4
100
AcDbEntity
  8
0
100
AcDbBlockBegin
  2
*D27
 70
     1
 10
0.0
 20
0.0
 30
0.0
  3
*D27
  1

  0
LINE
  5
1F7
330
1F4
100
AcDbEntity
  8
Dimensions
 62
   140
370
    -2
100
AcDbLine
 10
194.3571428571429
 20
95.0
 30
0.0
 11
187.7755102040817
 21
95.0
 31
0.0
  0
MTEXT
  5
1F8
330
1F4
100
AcDbEntity
  8
Dimensions
 62
   140
100
AcDbMText
 10
189.9948979591837
 20
96.60714285714286
 30
0.0
 40
2.142857142857143
 41
0.0
 46
0.0
 71
     5
 72
     1
  1
%%c3
 73
     1
 44
1.0
  0
SOLID
  5
1F9
330
1F4
100
AcDbEntity
  8
Dimensions
 62
   140
100
AcDbTrace
 10
194.3571428571429
 20
94.64285714285714
 30
0.0
 11
194.3571428571429
 21
95.35714285714286
 31
0.0
 12
196.5
 22
95.0
 32
0.0
 13
196.5
 23
95.0
 33
0.0
  0
POINT
  5
1FA
330
1F4
100
AcDbEntity
  8
Defpoints
 62
     0
100
AcDbPoint
 10
196.5
 20
95.0
 30
0.0
  0
POINT
  5
1FB
330
1F4
100
AcDbEntity
  8
Defpoints
 62
     0
100
AcDbPoint
 10
193.5
 20
95.0
 30
0.0
  0
ENDBLK
  5
1F6
330
1F4
100
AcDbEntity
  8
0
100
AcDbBlockEnd
  0
BLOCK
  5
1FE
330
1FD
100
AcDbEntity
  8
0
100
AcDbBlockBegin
  2
*D28
 70
     1
 10
0.0
 20
0.0
 30
0.0
  3
*D28
  1

  0
LINE
  5
200
330
1FD
100
AcDbEntity
  8
Dimensions
 62
   140
370
    -2
100
AcDbLine
 10
164.9571428571429
 20
165.0
 30
0.0
 11
155.3142857142857
 21
165.0
 31
0.0
  0
MTEXT
  5
201
330
1FD
100
AcDbEntity
  8
Dimensions
 62
   140
100
AcDbMText
 10
159.0642857142857
 20
166.8112244897959
 30
0.0
 40
2.142857142857143
 41
0.0
 46
0.0
 71
     5
 72
     1
  1
%%c4,2
 73
     1
 44
1.0
  0
SOLID
  5
202
330
1FD
100
AcDbEntity
  8
Dimensions
 62
   140
100
AcDbTrace
 10
164.9571428571429
 20
164.6428571428571
 30
0.0
 11
164.9571428571429
 21
165.3571428571429
 31
0.0
 12
167.1
 22
165.0
 32
0.0
 13
167.1
 23
165.0
 33
0.0
  0
POINT
  5
203
330
1FD
100
AcDbEntity
  8
Defpoints
 62
     0
100
AcDbPoint
 10
167.1
 20
165.0
 30
0.0
  0
POINT
  5
204
330
1FD
100
AcDbEntity
  8
Defpoints
 62
     0
100
AcDbPoint
 10
162.9
 20
165.0
 30
0.0
  0
ENDBLK
  5
1FF
330
1FD
100
AcDbEntity
  8
0
100
AcDbBlockEnd
  0
BLOCK
  5
207
330
206
100
AcDbEntity
  8
0
100
AcDbBlockBegin
  2
*D29
 70
     1
 10
0.0
 20
0.0
 30
0.0
  3
*D29
  1

  0
LINE
  5
209
330
206
100
AcDbEntity
  8
Dimensions
 62
   140
370
    -2
100
AcDbLine
 10
201.3571428571429
 20
80.0
 30
0.0
 11
194.7755102040817
 21
80.0
 31
0.0
  0
MTEXT
  5
20A
330
206
100
AcDbEntity
  8
Dimensions
 62
   140
100
AcDbMText
 10
196.9948979591837
 20
81.60714285714286
 30
0.0
 40
2.142857142857143
 41
0.0
 46
0.0
 71
     5
 72
     1
  1
%%c3
 73
     1
 44
1.0
  0
SOLID
  5
20B
330
206
100
AcDbEntity
  8
Dimensions
 62
   140
100
AcDbTrace
 10
201.3571428571429
 20
79.64285714285714
 30
0.0
 11
201.3571428571429
 21
80.35714285714286
 31
0.0
 12
203.5
 22
80.0
 32
0.0
 13
203.5
 23
80.0
 33
0.0
  0
POINT
  5
20C
330
206
100
AcDbEntity
  8
Defpoints
 62
     0
100
AcDbPoint
 10
203.5
 20
80.0
 30
0.0
  0
POINT
  5
20D
330
206
100
AcDbEntity
  8
Defpoints
 62
     0
100
AcDbPoint
 10
200.5
 20
80.0
 30
0.0
  0
ENDBLK
  5
208
330
206
100
AcDbEntity
  8
0
100
AcDbBlockEnd
  0
BLOCK
  5
210
330
20F
100
AcDbEntity
  8
0
100
AcDbBlockBegin
  2
*D30
 70
     1
 10
0.0
 20
0.0
 30
0.0
  3
*D30
  1

  0
LINE
  5
212
330
20F
100
AcDbEntity
  8
Dimensions
 62
   140
370
    -2
100
AcDbLine
 10
14.95714285714287
 20
165.0
 30
0.0
 11
5.314285714285726
 21
165.0
 31
0.0
  0
MTEXT
  5
213
330
20F
100
AcDbEntity
  8
Dimensions
 62
   140
100
AcDbMText
 10
9.064285714285727
 20
166.8112244897959
 30
0.0
 40
2.142857142857143
 41
0.0
 46
0.0
 71
     5
 72
     1
  1
%%c4,2
 73
     1
 44
1.0
  0
SOLID
  5
214
330
20F
100
AcDbEntity
  8
Dimensions
 62
   140
100
AcDbTrace
 10
14.95714285714287
 20
164.6428571428571
 30
0.0
 11
14.95714285714287
 21
165.3571428571429
 31
0.0
 12
17.10000000000002
 22
165.0
 32
0.0
 13
17.10000000000002
 23
165.0
 33
0.0
  0
POINT
  5
215
330
20F
100
AcDbEntity
  8
Defpoints
 62
     0
100
AcDbPoint
 10
17.10000000000002
 20
165.0
 30
0.0
  0
POINT
  5
216
330
20F
100
AcDbEntity
  8
Defpoints
 62
     0
100
AcDbPoint
 10
12.90000000000001
 20
165.0
 30
0.0
  0
ENDBLK
  5
211
330
20F
100
AcDbEntity
  8
0
100
AcDbBlockEnd
  0
BLOCK
  5
219
330
218
100
AcDbEntity
  8
0
100
AcDbBlockBegin
  2
*D31
 70
     1
 10
0.0
 20
0.0
 30
0.0
  3
*D31
  1

  0
LINE
  5
21B
330
218
100
AcDbEntity
  8
Dimensions
 62
   140
370
    -2
100
AcDbLine
 10
85.65714285714286
 20
100.0
 30
0.0
 11
79.07551020408162
 21
100.0
 31
0.0
  0
MTEXT
  5
21C
330
218
100
AcDbEntity
  8
Dimensions
 62
   140
100
AcDbMText
 10
81.29489795918367
 20
101.6071428571429
 30
0.0
 40
2.142857142857143
 41
0.0
 46
0.0
 71
     5
 72
     1
  1
%%c3
 73
     1
 44
1.0
  0
SOLID
  5
21D
330
218
100
AcDbEntity
  8
Dimensions
 62
   140
100
AcDbTrace
 10
85.65714285714286
 20
99.64285714285714
 30
0.0
 11
85.65714285714286
 21
100.3571428571429
 31
0.0
 12
87.8
 22
100.0
 32
0.0
 13
87.8
 23
100.0
 33
0.0
  0
POINT
  5
21E
330
218
100
AcDbEntity
  8
Defpoints
 62
     0
100
AcDbPoint
 10
87.8
 20
100.0
 30
0.0
  0
POINT
  5
21F
330
218
100
AcDbEntity
  8
Defpoints
 62
     0
100
AcDbPoint
 10
84.8
 20
100.0
 30
0.0
  0
ENDBLK
  5
21A
330
218
100
AcDbEntity
  8
0
100
AcDbBlockEnd
  0
ENDSEC
  0
SECTION
  2
ENTITIES
  0
LINE
  5
5F
330
1F
100
AcDbEntity
  8
Sketch plane 01
100
AcDbLine
 10
160.0
 20
0.0
 30
0.0
 11
169.9999999999999
 21
0.0
 31
0.0
  0
LINE
  5
60
330
1F
100
AcDbEntity
  8
Sketch plane 01
100
AcDbLine
 10
169.9999999999999
 20
180.0
 30
0.0
 11
160.0
 21
180.0
 31
0.0
  0
LINE
  5
61
330
1F
100
AcDbEntity
  8
Sketch plane 01
100
AcDbLine
 10
180.0
 20
159.9999999999999
 30
0.0
 11
180.0
 21
169.9999999999999
 31
0.0
  0
LINE
  5
62
330
1F
100
AcDbEntity
  8
Sketch plane 01
100
AcDbLine
 10
0.0
 20
10.00000000000001
 30
0.0
 11
0.0
 21
20.0
 31
0.0
  0
LINE
  5
63
330
1F
100
AcDbEntity
  8
Sketch plane 01
100
AcDbLine
 10
-0.0000000000000069
 20
20.0
 30
0.0
 11
35.0
 21
55.00000000000001
 31
0.0
  0
LINE
  5
64
330
1F
100
AcDbEntity
  8
Sketch plane 01
100
AcDbLine
 10
145.0
 20
125.0
 30
0.0
 11
180.0
 21
159.9999999999999
 31
0.0
  0
LINE
  5
65
330
1F
100
AcDbEntity
  8
Sketch plane 01
100
AcDbLine
 10
125.0
 20
145.0
 30
0.0
 11
160.0
 21
180.0
 31
0.0
  0
LINE
  5
66
330
1F
100
AcDbEntity
  8
Sketch plane 01
100
AcDbLine
 10
19.99999999999999
 20
-0.0000000000000139
 30
0.0
 11
55.0
 21
35.0
 31
0.0
  0
LINE
  5
67
330
1F
100
AcDbEntity
  8
Sketch plane 01
100
AcDbLine
 10
35.0
 20
55.00000000000001
 30
0.0
 11
35.0
 21
125.0
 31
0.0
  0
LINE
  5
68
330
1F
100
AcDbEntity
  8
Sketch plane 01
100
AcDbLine
 10
55.00000000000001
 20
35.0
 30
0.0
 11
125.0
 21
35.0
 31
0.0
  0
LINE
  5
69
330
1F
100
AcDbEntity
  8
Sketch plane 01
100
AcDbLine
 10
125.0
 20
145.0
 30
0.0
 11
55.00000000000003
 21
145.0
 31
0.0
  0
LINE
  5
6A
330
1F
100
AcDbEntity
  8
Sketch plane 01
100
AcDbLine
 10
145.0
 20
55.00000000000005
 30
0.0
 11
145.0
 21
125.0
 31
0.0
  0
LINE
  5
6B
330
1F
100
AcDbEntity
  8
Sketch plane 01
100
AcDbLine
 10
67.49999999999997
 20
120.0
 30
0.0
 11
112.5
 21
120.0
 31
0.0
  0
LINE
  5
6C
330
1F
100
AcDbEntity
  8
Sketch plane 01
100
AcDbLine
 10
112.5
 20
60.00000000000001
 30
0.0
 11
67.49999999999999
 21
60.00000000000001
 31
0.0
  0
LINE
  5
6D
330
1F
100
AcDbEntity
  8
Sketch plane 01
100
AcDbLine
 10
94.49999999999996
 20
105.0
 30
0.0
 11
112.5
 21
105.0
 31
0.0
  0
LINE
  5
6E
330
1F
100
AcDbEntity
  8
Sketch plane 01
100
AcDbLine
 10
67.49999999999999
 20
60.00000000000001
 30
0.0
 11
67.49999999999997
 21
120.0
 31
0.0
  0
LINE
  5
6F
330
1F
100
AcDbEntity
  8
Sketch plane 01
100
AcDbLine
 10
145.0
 20
55.00000000000005
 30
0.0
 11
180.0
 21
20.00000000000006
 31
0.0
  0
LINE
  5
70
330
1F
100
AcDbEntity
  8
Sketch plane 01
100
AcDbLine
 10
55.00000000000003
 20
145.0
 30
0.0
 11
20.00000000000003
 21
180.0
 31
0.0
  0
LINE
  5
71
330
1F
100
AcDbEntity
  8
Sketch plane 01
100
AcDbLine
 10
125.0
 20
35.0
 30
0.0
 11
160.0
 21
0.0
 31
0.0
  0
LINE
  5
72
330
1F
100
AcDbEntity
  8
Sketch plane 01
100
AcDbLine
 10
35.0
 20
125.0
 30
0.0
 11
0.0000000000000071
 21
160.0
 31
0.0
  0
LINE
  5
73
330
1F
100
AcDbEntity
  8
Sketch plane 01
100
AcDbLine
 10
0.0
 20
160.0
 30
0.0
 11
0.0
 21
170.0
 31
0.0
  0
LINE
  5
74
330
1F
100
AcDbEntity
  8
Sketch plane 01
100
AcDbLine
 10
20.00000000000003
 20
180.0
 30
0.0
 11
9.999999999999938
 21
180.0
 31
0.0
  0
LINE
  5
75
330
1F
100
AcDbEntity
  8
Sketch plane 01
100
AcDbLine
 10
180.0
 20
10.0
 30
0.0
 11
180.0
 21
20.00000000000006
 31
0.0
  0
LINE
  5
76
330
1F
100
AcDbEntity
  8
Sketch plane 01
100
AcDbLine
 10
10.00000000000001
 20
0.0
 30
0.0
 11
19.99999999999999
 21
0.0
 31
0.0
  0
LINE
  5
77
330
1F
100
AcDbEntity
  8
Sketch plane 01
100
AcDbLine
 10
112.5
 20
120.0
 30
0.0
 11
112.5
 21
105.0
 31
0.0
  0
LINE
  5
78
330
1F
100
AcDbEntity
  8
Sketch plane 01
100
AcDbLine
 10
112.5
 20
60.00000000000001
 30
0.0
 11
112.5
 21
75.00000000000001
 31
0.0
  0
LINE
  5
79
330
1F
100
AcDbEntity
  8
Sketch plane 01
100
AcDbLine
 10
112.5
 20
75.00000000000001
 30
0.0
 11
94.49999999999996
 21
75.0
 31
0.0
  0
LINE
  5
7A
330
1F
100
AcDbEntity
  8
Sketch plane 01
100
AcDbLine
 10
94.49999999999996
 20
86.0
 30
0.0
 11
94.49999999999996
 21
75.0
 31
0.0
  0
LINE
  5
7B
330
1F
100
AcDbEntity
  8
Sketch plane 01
100
AcDbLine
 10
71.79999999999998
 20
94.0
 30
0.0
 11
80.79999999999998
 21
94.0
 31
0.0
  0
LINE
  5
7C
330
1F
100
AcDbEntity
  8
Sketch plane 01
100
AcDbLine
 10
97.5
 20
94.00000000000001
 30
0.0
 11
97.50000000000004
 21
86.00000000000001
 31
0.0
  0
LINE
  5
7D
330
1F
100
AcDbEntity
  8
Sketch plane 01
100
AcDbLine
 10
71.8
 20
105.0
 30
0.0
 11
71.8
 21
95.2
 31
0.0
  0
LINE
  5
7E
330
1F
100
AcDbEntity
  8
Sketch plane 01
100
AcDbLine
 10
92.79999999999998
 20
86.0
 30
0.0
 11
89.80000000000001
 21
86.0
 31
0.0
  0
LINE
  5
7F
330
1F
100
AcDbEntity
  8
Sketch plane 01
100
AcDbLine
 10
140.5
 20
121.0
 30
0.0
 11
139.5
 21
121.0
 31
0.0
  0
LINE
  5
80
330
1F
100
AcDbEntity
  8
Sketch plane 01
100
AcDbLine
 10
80.80000000000001
 20
84.79999999999998
 30
0.0
 11
71.8
 21
84.79999999999998
 31
0.0
  0
LINE
  5
81
330
1F
100
AcDbEntity
  8
Sketch plane 01
100
AcDbLine
 10
140.0
 20
121.0
 30
0.0
 11
140.5
 21
121.0
 31
0.0
  0
LINE
  5
82
330
1F
100
AcDbEntity
  8
Sketch plane 01
100
AcDbLine
 10
140.0
 20
55.0
 30
0.0
 11
140.5
 21
55.0
 31
0.0
  0
LINE
  5
83
330
1F
100
AcDbEntity
  8
Sketch plane 01
100
AcDbLine
 10
140.0
 20
59.00000000000001
 30
0.0
 11
140.5
 21
59.00000000000001
 31
0.0
  0
LINE
  5
84
330
1F
100
AcDbEntity
  8
Sketch plane 01
100
AcDbLine
 10
71.79999999999998
 20
94.0
 30
0.0
 11
71.8
 21
86.0
 31
0.0
  0
LINE
  5
85
330
1F
100
AcDbEntity
  8
Sketch plane 01
100
AcDbLine
 10
140.5
 20
55.0
 30
0.0
 11
139.5
 21
55.0
 31
0.0
  0
LINE
  5
86
330
1F
100
AcDbEntity
  8
Sketch plane 01
100
AcDbLine
 10
92.79999999999998
 20
94.0
 30
0.0
 11
89.80000000000001
 21
94.0
 31
0.0
  0
LINE
  5
87
330
1F
100
AcDbEntity
  8
Sketch plane 01
100
AcDbLine
 10
71.80000000000001
 20
86.0
 30
0.0
 11
80.80000000000001
 21
86.0
 31
0.0
  0
LINE
  5
88
330
1F
100
AcDbEntity
  8
Sketch plane 01
100
AcDbLine
 10
140.0
 20
125.0
 30
0.0
 11
140.5
 21
125.0
 31
0.0
  0
LINE
  5
89
330
1F
100
AcDbEntity
  8
Sketch plane 01
100
AcDbLine
 10
80.80000000000001
 20
86.0
 30
0.0
 11
71.80000000000001
 21
86.0
 31
0.0
  0
LINE
  5
8A
330
1F
100
AcDbEntity
  8
Sketch plane 01
100
AcDbLine
 10
80.8
 20
95.2
 30
0.0
 11
71.79999999999998
 21
95.2
 31
0.0
  0
LINE
  5
8B
330
1F
100
AcDbEntity
  8
Sketch plane 01
100
AcDbLine
 10
140.5
 20
59.00000000000001
 30
0.0
 11
139.5
 21
59.00000000000001
 31
0.0
  0
LINE
  5
8C
330
1F
100
AcDbEntity
  8
Sketch plane 01
100
AcDbLine
 10
94.5
 20
94.0
 30
0.0
 11
97.5
 21
94.00000000000001
 31
0.0
  0
LINE
  5
8D
330
1F
100
AcDbEntity
  8
Sketch plane 01
100
AcDbLine
 10
97.50000000000004
 20
86.00000000000001
 30
0.0
 11
94.49999999999996
 21
86.0
 31
0.0
  0
LINE
  5
8E
330
1F
100
AcDbEntity
  8
Sketch plane 01
100
AcDbLine
 10
140.5
 20
125.0
 30
0.0
 11
139.5
 21
125.0
 31
0.0
  0
LINE
  5
8F
330
1F
100
AcDbEntity
  8
Sketch plane 01
100
AcDbLine
 10
94.49999999999996
 20
105.0
 30
0.0
 11
94.5
 21
94.0
 31
0.0
  0
LINE
  5
90
330
1F
100
AcDbEntity
  8
Sketch plane 01
100
AcDbLine
 10
92.79999999999998
 20
86.0
 30
0.0
 11
89.80000000000001
 21
86.0
 31
0.0
  0
LINE
  5
91
330
1F
100
AcDbEntity
  8
Sketch plane 01
100
AcDbLine
 10
80.79999999999998
 20
94.0
 30
0.0
 11
71.79999999999998
 21
94.0
 31
0.0
  0
LINE
  5
92
330
1F
100
AcDbEntity
  8
Sketch plane 01
100
AcDbLine
 10
89.80000000000001
 20
86.0
 30
0.0
 11
89.80000000000001
 21
75.0
 31
0.0
  0
LINE
  5
93
330
1F
100
AcDbEntity
  8
Sketch plane 01
100
AcDbLine
 10
71.79999999999998
 20
105.0
 30
0.0
 11
89.80000000000001
 21
105.0
 31
0.0
  0
LINE
  5
94
330
1F
100
AcDbEntity
  8
Sketch plane 01
100
AcDbLine
 10
89.80000000000001
 20
75.0
 30
0.0
 11
71.80000000000001
 21
75.0
 31
0.0
  0
LINE
  5
95
330
1F
100
AcDbEntity
  8
Sketch plane 01
100
AcDbLine
 10
89.80000000000001
 20
105.0
 30
0.0
 11
89.80000000000001
 21
94.0
 31
0.0
  0
LINE
  5
96
330
1F
100
AcDbEntity
  8
Sketch plane 01
100
AcDbLine
 10
71.8
 20
84.79999999999998
 30
0.0
 11
71.8
 21
75.0
 31
0.0
  0
LINE
  5
97
330
1F
100
AcDbEntity
  8
Sketch plane 01
100
AcDbLine
 10
89.80000000000001
 20
105.0
 30
0.0
 11
89.79999999999998
 21
94.0
 31
0.0
  0
LINE
  5
98
330
1F
100
AcDbEntity
  8
Sketch plane 01
100
AcDbLine
 10
89.79999999999998
 20
94.0
 30
0.0
 11
92.79999999999998
 21
94.0
 31
0.0
  0
LINE
  5
99
330
1F
100
AcDbEntity
  8
Sketch plane 01
100
AcDbLine
 10
92.79999999999998
 20
94.0
 30
0.0
 11
92.79999999999998
 21
86.0
 31
0.0
  0
LINE
  5
9A
330
1F
100
AcDbEntity
  8
Sketch plane 01
100
AcDbLine
 10
192.5
 20
94.00000000000001
 30
0.0
 11
192.5
 21
75.0
 31
0.0
  0
LINE
  5
9B
330
1F
100
AcDbEntity
  8
Sketch plane 01
100
AcDbLine
 10
192.5
 20
105.0
 30
0.0
 11
205.0
 21
105.0
 31
0.0
  0
LINE
  5
9C
330
1F
100
AcDbEntity
  8
Sketch plane 01
100
AcDbLine
 10
192.5
 20
75.0
 30
0.0
 11
192.5
 21
105.0
 31
0.0
  0
LINE
  5
9D
330
1F
100
AcDbEntity
  8
Sketch plane 01
100
AcDbLine
 10
205.0
 20
75.00000000000001
 30
0.0
 11
192.5
 21
75.00000000000001
 31
0.0
  0
LINE
  5
9E
330
1F
100
AcDbEntity
  8
Sketch plane 01
100
AcDbLine
 10
192.5
 20
94.00000000000001
 30
0.0
 11
192.5000000000001
 21
86.00000000000001
 31
0.0
  0
LINE
  5
9F
330
1F
100
AcDbEntity
  8
Sketch plane 01
100
AcDbLine
 10
205.0
 20
105.0
 30
0.0
 11
205.0
 21
75.0
 31
0.0
  0
ARC
  5
A0
330
1F
100
AcDbEntity
  8
Sketch plane 01
100
AcDbCircle
 10
10.00000000000001
 20
10.00000000000001
 30
0.0
 40
10.00000000000001
100
AcDbArc
 50
180.0
 51
269.9999999999999
  0
ARC
  5
A1
330
1F
100
AcDbEntity
  8
Sketch plane 01
100
AcDbCircle
 10
9.999999999999957
 20
170.0
 30
0.0
 40
9.99999999999998
100
AcDbArc
 50
89.99999999999955
 51
180.0
  0
ARC
  5
A2
330
1F
100
AcDbEntity
  8
Sketch plane 01
100
AcDbCircle
 10
170.0
 20
170.0
 30
0.0
 40
9.99999999999998
100
AcDbArc
 50
0.0
 51
90.0
  0
ARC
  5
A3
330
1F
100
AcDbEntity
  8
Sketch plane 01
100
AcDbCircle
 10
169.9999999999999
 20
9.999999999999996
 30
0.0
 40
9.999999999999996
100
AcDbArc
 50
270.0000000000003
 51
0.0000000000000382
  0
ARC
  5
A4
330
1F
100
AcDbEntity
  8
Sketch plane 01
100
AcDbCircle
 10
19.0
 20
177.5000000000001
 30
0.0
 40
2.499999999999969
100
AcDbArc
 50
36.869897645843
 51
90.00000000000001
  0
ARC
  5
A5
330
1F
100
AcDbEntity
  8
Sketch plane 01
100
AcDbCircle
 10
80.79999999999998
 20
94.60000000000001
 30
0.0
 40
0.6000000000000033
100
AcDbArc
 50
270.0
 51
90.0
  0
ARC
  5
A6
330
1F
100
AcDbEntity
  8
Sketch plane 01
100
AcDbCircle
 10
80.80000000000001
 20
85.39999999999999
 30
0.0
 40
0.6000000000000033
100
AcDbArc
 50
270.0
 51
90.0
  0
ARC
  5
A7
330
1F
100
AcDbEntity
  8
Sketch plane 01
100
AcDbCircle
 10
140.5
 20
57.0
 30
0.0
 40
2.000000000000002
100
AcDbArc
 50
270.0
 51
90.0
  0
ARC
  5
A8
330
1F
100
AcDbEntity
  8
Sketch plane 01
100
AcDbCircle
 10
139.5
 20
57.0
 30
0.0
 40
2.000000000000009
100
AcDbArc
 50
90.0
 51
270.0
  0
ARC
  5
A9
330
1F
100
AcDbEntity
  8
Sketch plane 01
100
AcDbCircle
 10
139.5
 20
123.0
 30
0.0
 40
2.000000000000002
100
AcDbArc
 50
90.0
 51
270.0
  0
ARC
  5
AA
330
1F
100
AcDbEntity
  8
Sketch plane 01
100
AcDbCircle
 10
140.5
 20
123.0
 30
0.0
 40
2.000000000000002
100
AcDbArc
 50
270.0
 51
90.0
  0
CIRCLE
  5
AB
330
1F
100
AcDbEntity
  8
Sketch plane 01
100
AcDbCircle
 10
15.00000000000001
 20
165.0
 30
0.0
 40
2.1
  0
CIRCLE
  5
AC
330
1F
100
AcDbEntity
  8
Sketch plane 01
100
AcDbCircle
 10
165.0
 20
165.0
 30
0.0
 40
2.1
  0
CIRCLE
  5
AD
330
1F
100
AcDbEntity
  8
Sketch plane 01
100
AcDbCircle
 10
165.0
 20
15.00000000000001
 30
0.0
 40
2.1
  0
CIRCLE
  5
AE
330
1F
100
AcDbEntity
  8
Sketch plane 01
100
AcDbCircle
 10
15.00000000000001
 20
15.00000000000001
 30
0.0
 40
2.1
  0
CIRCLE
  5
AF
330
1F
100
AcDbEntity
  8
Sketch plane 01
100
AcDbCircle
 10
86.3
 20
80.0
 30
0.0
 40
1.5
  0
CIRCLE
  5
B0
330
1F
100
AcDbEntity
  8
Sketch plane 01
100
AcDbCircle
 10
107.0
 20
100.0
 30
0.0
 40
1.5
  0
CIRCLE
  5
B1
330
1F
100
AcDbEntity
  8
Sketch plane 01
100
AcDbCircle
 10
107.0
 20
80.0
 30
0.0
 40
1.5
  0
CIRCLE
  5
B2
330
1F
100
AcDbEntity
  8
Sketch plane 01
100
AcDbCircle
 10
100.0
 20
85.0
 30
0.0
 40
1.5
  0
CIRCLE
  5
B3
330
1F
100
AcDbEntity
  8
Sketch plane 01
100
AcDbCircle
 10
40.0
 20
123.0
 30
0.0
 40
2.0
  0
CIRCLE
  5
B4
330
1F
100
AcDbEntity
  8
Sketch plane 01
100
AcDbCircle
 10
40.0
 20
57.0
 30
0.0
 40
2.0
  0
CIRCLE
  5
B5
330
1F
100
AcDbEntity
  8
Sketch plane 01
100
AcDbCircle
 10
100.0
 20
95.0
 30
0.0
 40
1.5
  0
CIRCLE
  5
B6
330
1F
100
AcDbEntity
  8
Sketch plane 01
100
AcDbCircle
 10
86.3
 20
100.0
 30
0.0
 40
1.5
  0
CIRCLE
  5
B7
330
1F
100
AcDbEntity
  8
Sketch plane 01
100
AcDbCircle
 10
202.0
 20
80.0
 30
0.0
 40
1.5
  0
CIRCLE
  5
B8
330
1F
100
AcDbEntity
  8
Sketch plane 01
100
AcDbCircle
 10
195.0
 20
95.0
 30
0.0
 40
1.5
  0
CIRCLE
  5
B9
330
1F
100
AcDbEntity
  8
Sketch plane 01
100
AcDbCircle
 10
195.0
 20
85.0
 30
0.0
 40
1.5
  0
CIRCLE
  5
BA
330
1F
100
AcDbEntity
  8
Sketch plane 01
100
AcDbCircle
 10
202.0
 20
100.0
 30
0.0
 40
1.5
  0
DIMENSION
  5
BC
330
1F
100
AcDbEntity
  8
Dimensions
100
AcDbDimension
280
     0
  2
*D1
 10
112.5
 20
124.5
 30
0.0
 11
89.99999999999997
 21
124.5
 31
0.0
 70
   161
 71
     5
 42
45.0
 73
     0
 74
     0
 75
     0
  3
ISO-25
100
AcDbAlignedDimension
 13
67.49999999999997
 23
120.0
 33
0.0
 14
112.5
 24
120.0
 34
0.0
1001
ACAD
1000
DSTYLE
1002
{
1070
   271
1070
     3
1070
    78
1070
     8
1070
   177
1070
   140
1070
   176
1070
   140
1070
   178
1070
   140
1070
    40
1040
0.8571428571428573
1070
   277
1070
     2
1002
}
  0
DIMENSION
  5
CA
330
1F
100
AcDbEntity
  8
Dimensions
100
AcDbDimension
280
     0
  2
*D2
 10
193.3000000000001
 20
86.00000000000003
 30
0.0
 11
193.3000000000001
 21
90.00000000000003
 31
0.0
 70
   161
 71
     5
 42
8.0
 73
     0
 74
     0
 75
     0
  3
ISO-25
100
AcDbAlignedDimension
 13
192.5
 23
94.00000000000001
 33
0.0
 14
192.5000000000001
 24
86.00000000000001
 34
0.0
1001
ACAD
1000
DSTYLE
1002
{
1070
   271
1070
     3
1070
    78
1070
     8
1070
   177
1070
   140
1070
   176
1070
   140
1070
   178
1070
   140
1070
    40
1040
0.8571428571428573
1070
   277
1070
     2
1002
}
  0
DIMENSION
  5
D7
330
1F
100
AcDbEntity
  8
Dimensions
100
AcDbDimension
280
     0
  2
*D3
 10
114.0
 20
105.0
 30
0.0
 11
114.0
 21
112.5
 31
0.0
 70
   161
 71
     5
 42
15.0
 73
     0
 74
     0
 75
     0
  3
ISO-25
100
AcDbAlignedDimension
 13
112.5
 23
120.0
 33
0.0
 14
112.5
 24
105.0
 34
0.0
1001
ACAD
1000
DSTYLE
1002
{
1070
   271
1070
     3
1070
    78
1070
     8
1070
   177
1070
   140
1070
   176
1070
   140
1070
   178
1070
   140
1070
    40
1040
0.8571428571428573
1070
   277
1070
     2
1002
}
  0
DIMENSION
  5
E4
330
1F
100
AcDbEntity
  8
Dimensions
100
AcDbDimension
280
     0
  2
*D4
 10
111.0
 20
75.00000000000001
 30
0.0
 11
111.0
 21
67.50000000000001
 31
0.0
 70
   161
 71
     5
 42
15.0
 73
     0
 74
     0
 75
     0
  3
ISO-25
100
AcDbAlignedDimension
 13
112.5
 23
60.00000000000001
 33
0.0
 14
112.5
 24
75.00000000000001
 34
0.0
1001
ACAD
1000
DSTYLE
1002
{
1070
   271
1070
     3
1070
    78
1070
     8
1070
   177
1070
   140
1070
   176
1070
   140
1070
   178
1070
   140
1070
    40
1040
0.8571428571428573
1070
   277
1070
     2
1002
}
  0
DIMENSION
  5
F1
330
1F
100
AcDbEntity
  8
Dimensions
100
AcDbDimension
280
     0
  2
*D5
 10
94.49999999999996
 20
73.20000000000002
 30
0.0
 11
103.5
 21
73.20000000000002
 31
0.0
 70
   161
 71
     5
 42
18.00000000000001
 73
     0
 74
     0
 75
     0
  3
ISO-25
100
AcDbAlignedDimension
 13
112.5
 23
75.00000000000001
 33
0.0
 14
94.49999999999996
 24
75.0
 34
0.0
1001
ACAD
1000
DSTYLE
1002
{
1070
   271
1070
     3
1070
    78
1070
     8
1070
   177
1070
   140
1070
   176
1070
   140
1070
   178
1070
   140
1070
    40
1040
0.8571428571428573
1070
   277
1070
     2
1002
}
  0
DIMENSION
  5
FE
330
1F
100
AcDbEntity
  8
Dimensions
100
AcDbDimension
280
     0
  2
*D6
 10
95.59999999999995
 20
75.0
 30
0.0
 11
95.59999999999995
 21
80.5
 31
0.0
 70
   161
 71
     5
 42
11.0
 73
     0
 74
     0
 75
     0
  3
ISO-25
100
AcDbAlignedDimension
 13
94.49999999999996
 23
86.0
 33
0.0
 14
94.49999999999996
 24
75.0
 34
0.0
1001
ACAD
1000
DSTYLE
1002
{
1070
   271
1070
     3
1070
    78
1070
     8
1070
   177
1070
   140
1070
   176
1070
   140
1070
   178
1070
   140
1070
    40
1040
0.8571428571428573
1070
   277
1070
     2
1002
}
  0
DIMENSION
  5
10B
330
1F
100
AcDbEntity
  8
Dimensions
100
AcDbDimension
280
     0
  2
*D7
 10
80.79999999999998
 20
94.9
 30
0.0
 11
76.29999999999998
 21
94.9
 31
0.0
 70
   161
 71
     5
 42
9.0
 73
     0
 74
     0
 75
     0
  3
ISO-25
100
AcDbAlignedDimension
 13
71.79999999999998
 23
94.0
 33
0.0
 14
80.79999999999998
 24
94.0
 34
0.0
1001
ACAD
1000
DSTYLE
1002
{
1070
   271
1070
     3
1070
    78
1070
     8
1070
   177
1070
   140
1070
   176
1070
   140
1070
   178
1070
   140
1070
    40
1040
0.8571428571428573
1070
   277
1070
     2
1002
}
  0
DIMENSION
  5
118
330
1F
100
AcDbEntity
  8
Dimensions
100
AcDbDimension
280
     0
  2
*D8
 10
89.80000000000001
 20
106.8
 30
0.0
 11
80.8
 21
106.8
 31
0.0
 70
   161
 71
     5
 42
18.00000000000003
 73
     0
 74
     0
 75
     0
  3
ISO-25
100
AcDbAlignedDimension
 13
71.79999999999998
 23
105.0
 33
0.0
 14
89.80000000000001
 24
105.0
 34
0.0
1001
ACAD
1000
DSTYLE
1002
{
1070
   271
1070
     3
1070
    78
1070
     8
1070
   177
1070
   140
1070
   176
1070
   140
1070
   178
1070
   140
1070
    40
1040
0.8571428571428573
1070
   277
1070
     2
1002
}
  0
DIMENSION
  5
125
330
1F
100
AcDbEntity
  8
Dimensions
100
AcDbDimension
280
     0
  2
*D9
 10
92.79999999999998
 20
94.3
 30
0.0
 11
91.29999999999998
 21
94.3
 31
0.0
 70
   161
 71
     5
 42
3.0
 73
     0
 74
     0
 75
     0
  3
ISO-25
100
AcDbAlignedDimension
 13
89.79999999999998
 23
94.0
 33
0.0
 14
92.79999999999998
 24
94.0
 34
0.0
1001
ACAD
1000
DSTYLE
1002
{
1070
   271
1070
     3
1070
    78
1070
     8
1070
   177
1070
   140
1070
   176
1070
   140
1070
   178
1070
   140
1070
    40
1040
0.8571428571428573
1070
   277
1070
     2
1002
}
  0
DIMENSION
  5
134
330
1F
100
AcDbEntity
  8
Dimensions
100
AcDbDimension
280
     0
  2
*D10
 10
90.89999999999998
 20
94.0
 30
0.0
 11
90.89999999999999
 21
99.5
 31
0.0
 70
   161
 71
     5
 42
11.0
 73
     0
 74
     0
 75
     0
  3
ISO-25
100
AcDbAlignedDimension
 13
89.80000000000001
 23
105.0
 33
0.0
 14
89.79999999999998
 24
94.0
 34
0.0
1001
ACAD
1000
DSTYLE
1002
{
1070
   271
1070
     3
1070
    78
1070
     8
1070
   177
1070
   140
1070
   176
1070
   140
1070
   178
1070
   140
1070
    40
1040
0.8571428571428573
1070
   277
1070
     2
1002
}
  0
DIMENSION
  5
141
330
1F
100
AcDbEntity
  8
Dimensions
100
AcDbDimension
280
     0
  2
*D11
 10
93.59999999999998
 20
86.0
 30
0.0
 11
93.59999999999998
 21
90.0
 31
0.0
 70
   161
 71
     5
 42
8.0
 73
     0
 74
     0
 75
     0
  3
ISO-25
100
AcDbAlignedDimension
 13
92.79999999999998
 23
94.0
 33
0.0
 14
92.79999999999998
 24
86.0
 34
0.0
1001
ACAD
1000
DSTYLE
1002
{
1070
   271
1070
     3
1070
    78
1070
     8
1070
   177
1070
   140
1070
   176
1070
   140
1070
   178
1070
   140
1070
    40
1040
0.8571428571428573
1070
   277
1070
     2
1002
}
  0
DIMENSION
  5
14E
330
1F
100
AcDbEntity
  8
Dimensions
100
AcDbDimension
280
     0
  2
*D12
 10
95.6
 20
94.0
 30
0.0
 11
95.59999999999997
 21
99.5
 31
0.0
 70
   161
 71
     5
 42
11.0
 73
     0
 74
     0
 75
     0
  3
ISO-25
100
AcDbAlignedDimension
 13
94.49999999999996
 23
105.0
 33
0.0
 14
94.5
 24
94.0
 34
0.0
1001
ACAD
1000
DSTYLE
1002
{
1070
   271
1070
     3
1070
    78
1070
     8
1070
   177
1070
   140
1070
   176
1070
   140
1070
   178
1070
   140
1070
    40
1040
0.8571428571428573
1070
   277
1070
     2
1002
}
  0
DIMENSION
  5
15B
330
1F
100
AcDbEntity
  8
Dimensions
100
AcDbDimension
280
     0
  2
*D13
 10
97.5
 20
94.30000000000001
 30
0.0
 11
96.0
 21
94.30000000000001
 31
0.0
 70
   161
 71
     5
 42
3.0
 73
     0
 74
     0
 75
     0
  3
ISO-25
100
AcDbAlignedDimension
 13
94.5
 23
94.0
 33
0.0
 14
97.5
 24
94.00000000000001
 34
0.0
1001
ACAD
1000
DSTYLE
1002
{
1070
   271
1070
     3
1070
    78
1070
     8
1070
   177
1070
   140
1070
   176
1070
   140
1070
   178
1070
   140
1070
    40
1040
0.8571428571428573
1070
   277
1070
     2
1002
}
  0
DIMENSION
  5
16A
330
1F
100
AcDbEntity
  8
Dimensions
100
AcDbDimension
280
     0
  2
*D14
 10
98.30000000000004
 20
86.00000000000001
 30
0.0
 11
98.30000000000001
 21
90.00000000000001
 31
0.0
 70
   161
 71
     5
 42
8.0
 73
     0
 74
     0
 75
     0
  3
ISO-25
100
AcDbAlignedDimension
 13
97.5
 23
94.00000000000001
 33
0.0
 14
97.50000000000004
 24
86.00000000000001
 34
0.0
1001
ACAD
1000
DSTYLE
1002
{
1070
   271
1070
     3
1070
    78
1070
     8
1070
   177
1070
   140
1070
   176
1070
   140
1070
   178
1070
   140
1070
    40
1040
0.8571428571428573
1070
   277
1070
     2
1002
}
  0
DIMENSION
  5
177
330
1F
100
AcDbEntity
  8
Dimensions
100
AcDbDimension
280
     0
  2
*D15
 10
80.80000000000001
 20
86.9
 30
0.0
 11
76.30000000000001
 21
86.9
 31
0.0
 70
   161
 71
     5
 42
9.0
 73
     0
 74
     0
 75
     0
  3
ISO-25
100
AcDbAlignedDimension
 13
71.80000000000001
 23
86.0
 33
0.0
 14
80.80000000000001
 24
86.0
 34
0.0
1001
ACAD
1000
DSTYLE
1002
{
1070
   271
1070
     3
1070
    78
1070
     8
1070
   177
1070
   140
1070
   176
1070
   140
1070
   178
1070
   140
1070
    40
1040
0.8571428571428573
1070
   277
1070
     2
1002
}
  0
DIMENSION
  5
184
330
1F
100
AcDbEntity
  8
Dimensions
100
AcDbDimension
280
     0
  2
*D16
 10
162.9
 20
15.00000000000001
 30
0.0
 11
159.0642857142857
 21
15.00000000000001
 31
0.0
 70
   163
 71
     5
 42
4.199999999999989
 73
     0
 74
     0
 75
     0
  3
ISO-25
100
AcDbDiametricDimension
 15
167.1
 25
15.00000000000001
 35
0.0
 40
0.0
1001
ACAD
1000
DSTYLE
1002
{
1070
   271
1070
     3
1070
    78
1070
     8
1070
   177
1070
   140
1070
   176
1070
   140
1070
   178
1070
   140
1070
    40
1040
0.8571428571428573
1070
   277
1070
     2
1002
}
  0
DIMENSION
  5
18D
330
1F
100
AcDbEntity
  8
Dimensions
100
AcDbDimension
280
     0
  2
*D17
 10
99.43596740813582
 20
86.38991626917415
 30
0.0
 11
103.0100923014792
 21
77.58238562471348
 31
0.0
 70
   163
 71
     5
 42
3.000000000000008
 73
     0
 74
     0
 75
     0
  3
ISO-25
100
AcDbDiametricDimension
 15
100.5640325918642
 25
83.61008373082585
 35
0.0
 40
0.0
1001
ACAD
1000
DSTYLE
1002
{
1070
   271
1070
     3
1070
    78
1070
     8
1070
   177
1070
   140
1070
   176
1070
   140
1070
   178
1070
   140
1070
    40
1040
0.8571428571428573
1070
   277
1070
     2
1002
}
  0
DIMENSION
  5
199
330
1F
100
AcDbEntity
  8
Dimensions
100
AcDbDimension
280
     0
  2
*D18
 10
38.0
 20
123.0
 30
0.0
 11
35.44387755102041
 21
123.0
 31
0.0
 70
   163
 71
     5
 42
4.0
 73
     0
 74
     0
 75
     0
  3
ISO-25
100
AcDbDiametricDimension
 15
42.0
 25
123.0
 35
0.0
 40
0.0
1001
ACAD
1000
DSTYLE
1002
{
1070
   271
1070
     3
1070
    78
1070
     8
1070
   177
1070
   140
1070
   176
1070
   140
1070
   178
1070
   140
1070
    40
1040
0.8571428571428573
1070
   277
1070
     2
1002
}
  0
DIMENSION
  5
1A2
330
1F
100
AcDbEntity
  8
Dimensions
100
AcDbDimension
280
     0
  2
*D19
 10
12.90000000000001
 20
15.00000000000001
 30
0.0
 11
9.064285714285727
 21
15.00000000000001
 31
0.0
 70
   163
 71
     5
 42
4.200000000000003
 73
     0
 74
     0
 75
     0
  3
ISO-25
100
AcDbDiametricDimension
 15
17.10000000000002
 25
15.00000000000001
 35
0.0
 40
0.0
1001
ACAD
1000
DSTYLE
1002
{
1070
   271
1070
     3
1070
    78
1070
     8
1070
   177
1070
   140
1070
   176
1070
   140
1070
   178
1070
   140
1070
    40
1040
0.8571428571428573
1070
   277
1070
     2
1002
}
  0
DIMENSION
  5
1AB
330
1F
100
AcDbEntity
  8
Dimensions
100
AcDbDimension
280
     0
  2
*D20
 10
200.5
 20
100.0
 30
0.0
 11
196.9948979591837
 21
100.0
 31
0.0
 70
   163
 71
     5
 42
3.0
 73
     0
 74
     0
 75
     0
  3
ISO-25
100
AcDbDiametricDimension
 15
203.5
 25
100.0
 35
0.0
 40
0.0
1001
ACAD
1000
DSTYLE
1002
{
1070
   271
1070
     3
1070
    78
1070
     8
1070
   177
1070
   140
1070
   176
1070
   140
1070
   178
1070
   140
1070
    40
1040
0.8571428571428573
1070
   277
1070
     2
1002
}
  0
DIMENSION
  5
1B4
330
1F
100
AcDbEntity
  8
Dimensions
100
AcDbDimension
280
     0
  2
*D21
 10
38.0
 20
57.0
 30
0.0
 11
35.44387755102041
 21
57.0
 31
0.0
 70
   163
 71
     5
 42
4.0
 73
     0
 74
     0
 75
     0
  3
ISO-25
100
AcDbDiametricDimension
 15
42.0
 25
57.0
 35
0.0
 40
0.0
1001
ACAD
1000
DSTYLE
1002
{
1070
   271
1070
     3
1070
    78
1070
     8
1070
   177
1070
   140
1070
   176
1070
   140
1070
   178
1070
   140
1070
    40
1040
0.8571428571428573
1070
   277
1070
     2
1002
}
  0
DIMENSION
  5
1BD
330
1F
100
AcDbEntity
  8
Dimensions
100
AcDbDimension
280
     0
  2
*D22
 10
98.96683698610587
 20
96.08746226910235
 30
0.0
 11
105.5137169006799
 21
89.19650238019872
 31
0.0
 70
   163
 71
     5
 42
3.00000000000001
 73
     0
 74
     0
 75
     0
  3
ISO-25
100
AcDbDiametricDimension
 15
101.0331630138941
 25
93.91253773089765
 35
0.0
 40
0.0
1001
ACAD
1000
DSTYLE
1002
{
1070
   271
1070
     3
1070
    78
1070
     8
1070
   177
1070
   140
1070
   176
1070
   140
1070
   178
1070
   140
1070
    40
1040
0.8571428571428573
1070
   277
1070
     2
1002
}
  0
DIMENSION
  5
1C9
330
1F
100
AcDbEntity
  8
Dimensions
100
AcDbDimension
280
     0
  2
*D23
 10
84.8
 20
80.0
 30
0.0
 11
81.29489795918367
 21
80.0
 31
0.0
 70
   163
 71
     5
 42
3.0
 73
     0
 74
     0
 75
     0
  3
ISO-25
100
AcDbDiametricDimension
 15
87.8
 25
80.0
 35
0.0
 40
0.0
1001
ACAD
1000
DSTYLE
1002
{
1070
   271
1070
     3
1070
    78
1070
     8
1070
   177
1070
   140
1070
   176
1070
   140
1070
   178
1070
   140
1070
    40
1040
0.8571428571428573
1070
   277
1070
     2
1002
}
  0
DIMENSION
  5
1D2
330
1F
100
AcDbEntity
  8
Dimensions
100
AcDbDimension
280
     0
  2
*D24
 10
193.5
 20
85.0
 30
0.0
 11
189.9948979591837
 21
85.0
 31
0.0
 70
   163
 71
     5
 42
3.0
 73
     0
 74
     0
 75
     0
  3
ISO-25
100
AcDbDiametricDimension
 15
196.5
 25
85.0
 35
0.0
 40
0.0
1001
ACAD
1000
DSTYLE
1002
{
1070
   271
1070
     3
1070
    78
1070
     8
1070
   177
1070
   140
1070
   176
1070
   140
1070
   178
1070
   140
1070
    40
1040
0.8571428571428573
1070
   277
1070
     2
1002
}
  0
DIMENSION
  5
1DB
330
1F
100
AcDbEntity
  8
Dimensions
100
AcDbDimension
280
     0
  2
*D25
 10
106.0199135079154
 20
101.1355309190124
 30
0.0
 11
112.2304615853088
 21
93.93997274853567
 31
0.0
 70
   163
 71
     5
 42
3.000000000000003
 73
     0
 74
     0
 75
     0
  3
ISO-25
100
AcDbDiametricDimension
 15
107.9800864920846
 25
98.86446908098756
 35
0.0
 40
0.0
1001
ACAD
1000
DSTYLE
1002
{
1070
   271
1070
     3
1070
    78
1070
     8
1070
   177
1070
   140
1070
   176
1070
   140
1070
   178
1070
   140
1070
    40
1040
0.8571428571428573
1070
   277
1070
     2
1002
}
  0
DIMENSION
  5
1E7
330
1F
100
AcDbEntity
  8
Dimensions
100
AcDbDimension
280
     0
  2
*D26
 10
105.9607255766672
 20
78.9183768341024
 30
0.0
 11
112.6698434948921
 21
85.90088039636615
 31
0.0
 70
   163
 71
     5
 42
3.000000000000001
 73
     0
 74
     0
 75
     0
  3
ISO-25
100
AcDbDiametricDimension
 15
108.0392744233328
 25
81.0816231658976
 35
0.0
 40
0.0
1001
ACAD
1000
DSTYLE
1002
{
1070
   271
1070
     3
1070
    78
1070
     8
1070
   177
1070
   140
1070
   176
1070
   140
1070
   178
1070
   140
1070
    40
1040
0.8571428571428573
1070
   277
1070
     2
1002
}
  0
DIMENSION
  5
1F3
330
1F
100
AcDbEntity
  8
Dimensions
100
AcDbDimension
280
     0
  2
*D27
 10
193.5
 20
95.0
 30
0.0
 11
189.9948979591837
 21
95.0
 31
0.0
 70
   163
 71
     5
 42
3.0
 73
     0
 74
     0
 75
     0
  3
ISO-25
100
AcDbDiametricDimension
 15
196.5
 25
95.0
 35
0.0
 40
0.0
1001
ACAD
1000
DSTYLE
1002
{
1070
   271
1070
     3
1070
    78
1070
     8
1070
   177
1070
   140
1070
   176
1070
   140
1070
   178
1070
   140
1070
    40
1040
0.8571428571428573
1070
   277
1070
     2
1002
}
  0
DIMENSION
  5
1FC
330
1F
100
AcDbEntity
  8
Dimensions
100
AcDbDimension
280
     0
  2
*D28
 10
162.9
 20
165.0
 30
0.0
 11
159.0642857142857
 21
165.0
 31
0.0
 70
   163
 71
     5
 42
4.199999999999989
 73
     0
 74
     0
 75
     0
  3
ISO-25
100
AcDbDiametricDimension
 15
167.1
 25
165.0
 35
0.0
 40
0.0
1001
ACAD
1000
DSTYLE
1002
{
1070
   271
1070
     3
1070
    78
1070
     8
1070
   177
1070
   140
1070
   176
1070
   140
1070
   178
1070
   140
1070
    40
1040
0.8571428571428573
1070
   277
1070
     2
1002
}
  0
DIMENSION
  5
205
330
1F
100
AcDbEntity
  8
Dimensions
100
AcDbDimension
280
     0
  2
*D29
 10
200.5
 20
80.0
 30
0.0
 11
196.9948979591837
 21
80.0
 31
0.0
 70
   163
 71
     5
 42
3.0
 73
     0
 74
     0
 75
     0
  3
ISO-25
100
AcDbDiametricDimension
 15
203.5
 25
80.0
 35
0.0
 40
0.0
1001
ACAD
1000
DSTYLE
1002
{
1070
   271
1070
     3
1070
    78
1070
     8
1070
   177
1070
   140
1070
   176
1070
   140
1070
   178
1070
   140
1070
    40
1040
0.8571428571428573
1070
   277
1070
     2
1002
}
  0
DIMENSION
  5
20E
330
1F
100
AcDbEntity
  8
Dimensions
100
AcDbDimension
280
     0
  2
*D30
 10
12.90000000000001
 20
165.0
 30
0.0
 11
9.064285714285727
 21
165.0
 31
0.0
 70
   163
 71
     5
 42
4.200000000000003
 73
     0
 74
     0
 75
     0
  3
ISO-25
100
AcDbDiametricDimension
 15
17.10000000000002
 25
165.0
 35
0.0
 40
0.0
1001
ACAD
1000
DSTYLE
1002
{
1070
   271
1070
     3
1070
    78
1070
     8
1070
   177
1070
   140
1070
   176
1070
   140
1070
   178
1070
   140
1070
    40
1040
0.8571428571428573
1070
   277
1070
     2
1002
}
  0
DIMENSION
  5
217
330
1F
100
AcDbEntity
  8
Dimensions
100
AcDbDimension
280
     0
  2
*D31
 10
84.8
 20
100.0
 30
0.0
 11
81.29489795918367
 21
100.0
 31
0.0
 70
   163
 71
     5
 42
3.0
 73
     0
 74
     0
 75
     0
  3
ISO-25
100
AcDbDiametricDimension
 15
87.8
 25
100.0
 35
0.0
 40
0.0
1001
ACAD
1000
DSTYLE
1002
{
1070
   271
1070
     3
1070
    78
1070
     8
1070
   177
1070
   140
1070
   176
1070
   140
1070
   178
1070
   140
1070
    40
1040
0.8571428571428573
1070
   277
1070
     2
1002
}
  0
LINE
  5
221
330
1F
100
AcDbEntity
  8
Sketch plane 07
100
AcDbLine
 10
154.9444776998633
 20
75.00000000000001
 30
6.258628386078068
 11
154.8777218730795
 21
75.00000000000001
 31
6.26261186982068
210
0.0
220
-1.0
230
0.0
  0
LINE
  5
222
330
1F
100
AcDbEntity
  8
Sketch plane 07
100
AcDbLine
 10
154.8777218730795
 20
75.00000000000001
 30
6.26261186982068
 11
155.079498962911
 21
75.00000000000001
 31
5.691930957335505
210
0.0
220
-1.0
230
0.0
  0
ENDSEC
  0
SECTION
  2
OBJECTS
  0
DICTIONARY
  5
C
330
0
100
AcDbDictionary
281
     1
  3
ACAD_DETAILVIEWSTYLE
350
25A
  3
ACAD_GROUP
350
D
  3
ACAD_LAYOUT
350
1A
  3
ACAD_MATERIAL
350
43
  3
ACAD_MLEADERSTYLE
350
5B
  3
ACAD_MLINESTYLE
350
17
  3
ACAD_PLOTSETTINGS
350
19
  3
ACAD_PLOTSTYLENAME
350
E
  3
ACAD_SCALELIST
350
47
  3
ACAD_SECTIONVIEWSTYLE
350
25B
  3
ACAD_TABLESTYLE
350
59
  3
ACAD_VISUALSTYLE
350
2A
  3
ACDB_RECOMPOSE_DATA
350
257
  3
AcDbVariableDictionary
350
223
  0
SUN
  5
5D
330
29
100
AcDbSun
 90
        1
290
     0
 63
     7
421
 16777215
 40
1.0
291
     1
 91
  2455826
 92
 54000000
292
     0
 70
     2
 71
   256
280
     1
  0
DICTIONARY
  5
25A
102
{ACAD_REACTORS
330
C
102
}
330
C
100
AcDbDictionary
281
     1
  0
DICTIONARY
  5
D
102
{ACAD_REACTORS
330
C
102
}
330
C
100
AcDbDictionary
281
     1
  0
DICTIONARY
  5
1A
102
{ACAD_REACTORS
330
C
102
}
330
C
100
AcDbDictionary
281
     1
  3
Layout1
350
1E
  3
Layout2
350
26
  3
Model
350
22
  0
DICTIONARY
  5
43
102
{ACAD_REACTORS
330
C
102
}
330
C
100
AcDbDictionary
281
     1
  3
ByBlock
350
45
  3
ByLayer
350
44
  3
Global
350
46
  0
DICTIONARY
  5
5B
102
{ACAD_REACTORS
330
C
102
}
330
C
100
AcDbDictionary
281
     1
  3
Standard
350
5C
  0
DICTIONARY
  5
17
102
{ACAD_REACTORS
330
C
102
}
330
C
100
AcDbDictionary
281
     1
  3
Standard
350
18
  0
DICTIONARY
  5
19
102
{ACAD_REACTORS
330
C
102
}
330
C
100
AcDbDictionary
281
     1
  0
ACDBDICTIONARYWDFLT
  5
E
102
{ACAD_REACTORS
330
C
102
}
330
C
100
AcDbDictionary
281
     1
  3
Normal
350
F
100
AcDbDictionaryWithDefault
340
F
  0
DICTIONARY
  5
47
102
{ACAD_REACTORS
330
C
102
}
330
C
100
AcDbDictionary
281
     1
  3
A0
350
48
  3
A1
350
49
  3
A2
350
4A
  3
A3
350
4B
  3
A4
350
4C
  3
A5
350
4D
  3
A6
350
4E
  3
A7
350
4F
  3
A8
350
50
  3
A9
350
51
  3
B0
350
52
  3
B1
350
53
  3
B2
350
54
  3
B3
350
55
  3
B4
350
56
  3
B5
350
57
  3
B6
350
58
  0
DICTIONARY
  5
25B
102
{ACAD_REACTORS
330
C
102
}
330
C
100
AcDbDictionary
281
     1
  0
DICTIONARY
  5
59
102
{ACAD_REACTORS
330
C
102
}
330
C
100
AcDbDictionary
281
     1
  3
Standard
350
5A
  0
DICTIONARY
  5
2A
102
{ACAD_REACTORS
330
C
102
}
330
C
100
AcDbDictionary
281
     1
  3
2dWireframe
350
2F
  3
Basic
350
32
  3
Brighten
350
36
  3
ColorChange
350
3A
  3
Conceptual
350
34
  3
Dim
350
35
  3
EdgeColorOff
350
3D
  3
Facepattern
350
39
  3
Flat
350
2B
  3
FlatWithEdges
350
2C
  3
Gouraud
350
2D
  3
GouraudWithEdges
350
2E
  3
Hidden
350
31
  3
JitterOff
350
3B
  3
Linepattern
350
38
  3
OverhangOff
350
3C
  3
Realistic
350
33
  3
Shaded
350
42
  3
Shaded with edges
350
41
  3
Shades of Gray
350
3E
  3
Sketchy
350
3F
  3
Thicken
350
37
  3
Wireframe
350
30
  3
X-Ray
350
40
  0
XRECORD
  5
257
102
{ACAD_REACTORS
330
C
102
}
330
C
100
AcDbXrecord
280
     1
 90
        1
330
5A
  0
DICTIONARY
  5
223
102
{ACAD_REACTORS
330
C
102
}
330
C
100
AcDbDictionary
281
     1
  3
CANNOSCALE
350
224
  3
CENTEREXE
350
25C
  3
CENTERLTYPEFILE
350
25D
  3
CMLEADERSTYLE
350
259
  3
CTABLESTYLE
350
258
  0
LAYOUT
  5
1E
102
{ACAD_REACTORS
330
1A
102
}
330
1A
100
AcDbPlotSettings
  1

  2
none_device
  4

  6

 40
0.0
 41
0.0
 42
0.0
 43
0.0
 44
0.0
 45
0.0
 46
0.0
 47
0.0
 48
0.0
 49
0.0
140
0.0
141
0.0
142
1.0
143
1.0
 70
   688
 72
     1
 73
     0
 74
     5
  7

 75
    16
 76
     0
 77
     2
 78
   300
147
1.0
148
0.0
149
0.0
100
AcDbLayout
  1
Layout1
 70
     1
 71
     1
 10
0.0
 20
0.0
 11
420.0
 21
297.0
 12
0.0
 22
0.0
 32
0.0
 14
1.000000000000000E+20
 24
1.000000000000000E+20
 34
1.000000000000000E+20
 15
-1.000000000000000E+20
 25
-1.000000000000000E+20
 35
-1.000000000000000E+20
146
0.0
 13
0.0
 23
0.0
 33
0.0
 16
1.0
 26
0.0
 36
0.0
 17
0.0
 27
1.0
 37
0.0
 76
     0
330
1B
  0
LAYOUT
  5
26
102
{ACAD_REACTORS
330
1A
102
}
330
1A
100
AcDbPlotSettings
  1

  2
none_device
  4

  6

 40
0.0
 41
0.0
 42
0.0
 43
0.0
 44
0.0
 45
0.0
 46
0.0
 47
0.0
 48
0.0
 49
0.0
140
0.0
141
0.0
142
1.0
143
1.0
 70
   688
 72
     1
 73
     0
 74
     5
  7

 75
    16
 76
     0
 77
     2
 78
   300
147
1.0
148
0.0
149
0.0
100
AcDbLayout
  1
Layout2
 70
     1
 71
     2
 10
0.0
 20
0.0
 11
0.0
 21
0.0
 12
0.0
 22
0.0
 32
0.0
 14
0.0
 24
0.0
 34
0.0
 15
0.0
 25
0.0
 35
0.0
146
0.0
 13
0.0
 23
0.0
 33
0.0
 16
1.0
 26
0.0
 36
0.0
 17
0.0
 27
1.0
 37
0.0
 76
     0
330
23
  0
LAYOUT
  5
22
102
{ACAD_REACTORS
330
1A
102
}
330
1A
100
AcDbPlotSettings
  1

  2
none_device
  4
Letter_(8.50_x_11.00_Inches)
  6

 40
6.35
 41
6.35
 42
6.35000508
 43
6.35000508
 44
215.9
 45
279.4
 46
0.0
 47
0.0
 48
0.0
 49
0.0
140
0.0
141
0.0
142
1.0
143
1.0
 70
  1712
 72
     1
 73
     0
 74
     0
  7

 75
     0
 76
     0
 77
     2
 78
   300
147
1.0
148
0.0
149
0.0
100
AcDbLayout
  1
Model
 70
     1
 71
     0
 10
0.0
 20
0.0
 11
420.0
 21
297.0
 12
0.0
 22
0.0
 32
0.0
 14
1.000000000000000E+20
 24
1.000000000000000E+20
 34
1.000000000000000E+20
 15
-1.000000000000000E+20
 25
-1.000000000000000E+20
 35
-1.000000000000000E+20
146
0.0
 13
0.0
 23
0.0
 33
0.0
 16
1.0
 26
0.0
 36
0.0
 17
0.0
 27
1.0
 37
0.0
 76
     0
330
1F
331
29
  0
MATERIAL
  5
45
102
{ACAD_REACTORS
330
43
102
}
330
43
100
AcDbMaterial
  1
ByBlock
 72
     1
 94
      127
  0
MATERIAL
  5
44
102
{ACAD_REACTORS
330
43
102
}
330
43
100
AcDbMaterial
  1
ByLayer
 72
     1
 94
      127
  0
MATERIAL
  5
46
102
{ACAD_REACTORS
330
43
102
}
330
43
100
AcDbMaterial
  1
Global
 72
     1
 94
      127
  0
MLEADERSTYLE
  5
5C
102
{ACAD_REACTORS
330
5B
102
}
330
5B
100
AcDbMLeaderStyle
179
     2
170
     2
171
     1
172
     0
 90
        2
 40
0.0
 41
0.0
173
     1
 91
-1056964608
340
14
 92
       -2
290
     1
 42
2.0
291
     1
 43
8.0
  3
Standard
341
0
 44
4.0
300

342
11
174
     1
178
     6
175
     1
176
     0
 93
-1056964608
 45
4.0
292
     0
297
     0
 46
4.0
343
0
 94
-1056964608
 47
1.0
 49
1.0
140
1.0
293
     1
141
0.0
294
     1
177
     0
142
1.0
295
     0
296
     0
143
3.75
271
     0
272
     9
273
     9
  0
MLINESTYLE
  5
18
102
{ACAD_REACTORS
330
17
102
}
330
17
100
AcDbMlineStyle
  2
Standard
 70
     0
  3

 62
   256
 51
90.0
 52
90.0
 71
     2
 49
0.5
 62
   256
  6
BYLAYER
 49
-0.5
 62
   256
  6
BYLAYER
  0
ACDBPLACEHOLDER
  5
F
102
{ACAD_REACTORS
330
E
102
}
330
E
  0
SCALE
  5
48
102
{ACAD_REACTORS
330
47
102
}
330
47
100
AcDbScale
 70
     0
300
1:1
140
1.0
141
1.0
290
     1
  0
SCALE
  5
49
102
{ACAD_REACTORS
330
47
102
}
330
47
100
AcDbScale
 70
     0
300
1:2
140
1.0
141
2.0
290
     0
  0
SCALE
  5
4A
102
{ACAD_REACTORS
330
47
102
}
330
47
100
AcDbScale
 70
     0
300
1:4
140
1.0
141
4.0
290
     0
  0
SCALE
  5
4B
102
{ACAD_REACTORS
330
47
102
}
330
47
100
AcDbScale
 70
     0
300
1:5
140
1.0
141
5.0
290
     0
  0
SCALE
  5
4C
102
{ACAD_REACTORS
330
47
102
}
330
47
100
AcDbScale
 70
     0
300
1:8
140
1.0
141
8.0
290
     0
  0
SCALE
  5
4D
102
{ACAD_REACTORS
330
47
102
}
330
47
100
AcDbScale
 70
     0
300
1:10
140
1.0
141
10.0
290
     0
  0
SCALE
  5
4E
102
{ACAD_REACTORS
330
47
102
}
330
47
100
AcDbScale
 70
     0
300
1:16
140
1.0
141
16.0
290
     0
  0
SCALE
  5
4F
102
{ACAD_REACTORS
330
47
102
}
330
47
100
AcDbScale
 70
     0
300
1:20
140
1.0
141
20.0
290
     0
  0
SCALE
  5
50
102
{ACAD_REACTORS
330
47
102
}
330
47
100
AcDbScale
 70
     0
300
1:30
140
1.0
141
30.0
290
     0
  0
SCALE
  5
51
102
{ACAD_REACTORS
330
47
102
}
330
47
100
AcDbScale
 70
     0
300
1:40
140
1.0
141
40.0
290
     0
  0
SCALE
  5
52
102
{ACAD_REACTORS
330
47
102
}
330
47
100
AcDbScale
 70
     0
300
1:50
140
1.0
141
50.0
290
     0
  0
SCALE
  5
53
102
{ACAD_REACTORS
330
47
102
}
330
47
100
AcDbScale
 70
     0
300
1:100
140
1.0
141
100.0
290
     0
  0
SCALE
  5
54
102
{ACAD_REACTORS
330
47
102
}
330
47
100
AcDbScale
 70
     0
300
2:1
140
2.0
141
1.0
290
     0
  0
SCALE
  5
55
102
{ACAD_REACTORS
330
47
102
}
330
47
100
AcDbScale
 70
     0
300
4:1
140
4.0
141
1.0
290
     0
  0
SCALE
  5
56
102
{ACAD_REACTORS
330
47
102
}
330
47
100
AcDbScale
 70
     0
300
8:1
140
8.0
141
1.0
290
     0
  0
SCALE
  5
57
102
{ACAD_REACTORS
330
47
102
}
330
47
100
AcDbScale
 70
     0
300
10:1
140
10.0
141
1.0
290
     0
  0
SCALE
  5
58
102
{ACAD_REACTORS
330
47
102
}
330
47
100
AcDbScale
 70
     0
300
100:1
140
100.0
141
1.0
290
     0
  0
TABLESTYLE
  5
5A
102
{ACAD_REACTORS
330
59
102
}
102
{ACAD_XDICTIONARY
360
255
102
}
330
59
100
AcDbTableStyle
  3
Standard
 70
     0
 71
     0
 40
0.06
 41
0.06
280
     0
281
     0
  7
Standard
140
4.5
170
     2
 62
     0
 63
   257
283
     0
 90
        4
 91
        0
  1

274
    -2
284
     1
 64
     0
275
    -2
285
     1
 65
     0
276
    -2
286
     1
 66
     0
277
    -2
287
     1
 67
     0
278
    -2
288
     1
 68
     0
279
    -2
289
     1
 69
     0
  7
Standard
140
6.0
170
     5
 62
     0
 63
   257
283
     0
 90
        4
 91
        0
  1

274
    -2
284
     1
 64
     0
275
    -2
285
     1
 65
     0
276
    -2
286
     1
 66
     0
277
    -2
287
     1
 67
     0
278
    -2
288
     1
 68
     0
279
    -2
289
     1
 69
     0
  7
Standard
140
4.5
170
     5
 62
     0
 63
   257
283
     0
 90
        4
 91
        0
  1

274
    -2
284
     1
 64
     0
275
    -2
285
     1
 65
     0
276
    -2
286
     1
 66
     0
277
    -2
287
     1
 67
     0
278
    -2
288
     1
 68
     0
279
    -2
289
     1
 69
     0
  0
VISUALSTYLE
  5
2F
102
{ACAD_REACTORS
330
2A
102
}
102
{ACAD_XDICTIONARY
360
22D
102
}
330
2A
100
AcDbVisualStyle
  2
2dWireframe
 70
     4
177
     2
291
     0
 71
     0
176
     1
 72
     2
176
     1
 73
     0
176
     1
 90
        0
176
     1
 40
0.6
176
     1
 41
30.0
176
     1
 62
     5
 63
     7
421
 16777215
176
     1
 74
     1
176
     1
 91
        4
176
     1
 64
     7
176
     1
 65
   257
176
     1
 75
     1
176
     1
175
     1
176
     1
 42
1.0
176
     1
 92
        0
176
     1
 66
   257
176
     1
 43
1.0
176
     1
 76
     1
176
     1
 77
     6
176
     1
 78
     2
176
     1
 67
     7
176
     1
 79
     5
176
     1
170
     0
176
     1
171
     0
176
     1
290
     0
176
     1
 93
        1
176
     1
 44
0.0
176
     1
173
     0
176
     1
  0
VISUALSTYLE
  5
32
102
{ACAD_REACTORS
330
2A
102
}
102
{ACAD_XDICTIONARY
360
233
102
}
330
2A
100
AcDbVisualStyle
  2
Basic
 70
     7
177
     2
291
     1
 71
     1
176
     1
 72
     0
176
     1
 73
     1
176
     1
 90
        0
176
     1
 40
0.6
176
     1
 41
30.0
176
     1
 62
     5
 63
     7
421
 16777215
176
     1
 74
     0
176
     1
 91
        4
176
     1
 64
     7
176
     1
 65
   257
176
     1
 75
     1
176
     1
175
     1
176
     1
 42
1.0
176
     1
 92
        8
176
     1
 66
     7
176
     1
 43
1.0
176
     1
 76
     1
176
     1
 77
     6
176
     1
 78
     2
176
     1
 67
     7
176
     1
 79
     5
176
     1
170
     0
176
     1
171
     0
176
     1
290
     0
176
     1
 93
        1
176
     1
 44
0.0
176
     1
173
     0
176
     1
  0
VISUALSTYLE
  5
36
102
{ACAD_REACTORS
330
2A
102
}
102
{ACAD_XDICTIONARY
360
23B
102
}
330
2A
100
AcDbVisualStyle
  2
Brighten
 70
    12
177
     2
291
     1
 71
     2
176
     1
 72
     2
176
     1
 73
     0
176
     1
 90
        0
176
     1
 40
0.6
176
     1
 41
30.0
176
     1
 62
     5
 63
     7
421
 16777215
176
     1
 74
     1
176
     1
 91
        4
176
     1
 64
     7
176
     1
 65
   257
176
     1
 75
     1
176
     1
175
     1
176
     1
 42
1.0
176
     1
 92
        8
176
     1
 66
     7
176
     1
 43
1.0
176
     1
 76
     1
176
     1
 77
     6
176
     1
 78
     2
176
     1
 67
     7
176
     1
 79
     5
176
     1
170
     0
176
     1
171
     0
176
     1
290
     0
176
     1
 93
        1
176
     1
 44
50.0
176
     1
173
     0
176
     1
  0
VISUALSTYLE
  5
3A
102
{ACAD_REACTORS
330
2A
102
}
102
{ACAD_XDICTIONARY
360
243
102
}
330
2A
100
AcDbVisualStyle
  2
ColorChange
 70
    16
177
     2
291
     1
 71
     2
176
     1
 72
     2
176
     1
 73
     3
176
     1
 90
        0
176
     1
 40
0.6
176
     1
 41
30.0
176
     1
 62
     5
 63
     8
421
  8421504
176
     1
 74
     1
176
     1
 91
        4
176
     1
 64
     7
176
     1
 65
   257
176
     1
 75
     1
176
     1
175
     1
176
     1
 42
1.0
176
     1
 92
        8
176
     1
 66
     8
424
  8421504
176
     1
 43
1.0
176
     1
 76
     1
176
     1
 77
     6
176
     1
 78
     2
176
     1
 67
     7
176
     1
 79
     5
176
     1
170
     0
176
     1
171
     0
176
     1
290
     0
176
     1
 93
        1
176
     1
 44
0.0
176
     1
173
     0
176
     1
  0
VISUALSTYLE
  5
34
102
{ACAD_REACTORS
330
2A
102
}
102
{ACAD_XDICTIONARY
360
237
102
}
330
2A
100
AcDbVisualStyle
  2
Conceptual
 70
     9
177
     2
291
     0
 71
     3
176
     1
 72
     2
176
     1
 73
     0
176
     1
 90
        0
176
     1
 40
0.6
176
     1
 41
30.0
176
     1
 62
     5
 63
     7
421
 16777215
176
     1
 74
     2
176
     1
 91
        2
176
     1
 64
     7
176
     1
 65
   257
176
     1
 75
     1
176
     1
175
     1
176
     1
 42
179.0
176
     1
 92
        8
176
     1
 66
     7
176
     1
 43
1.0
176
     1
 76
     1
176
     1
 77
     6
176
     1
 78
     2
176
     1
 67
     7
176
     1
 79
     3
176
     1
170
     0
176
     1
171
     0
176
     1
290
     0
176
     1
 93
        1
176
     1
 44
0.0
176
     1
173
     0
176
     1
  0
VISUALSTYLE
  5
35
102
{ACAD_REACTORS
330
2A
102
}
102
{ACAD_XDICTIONARY
360
239
102
}
330
2A
100
AcDbVisualStyle
  2
Dim
 70
    11
177
     2
291
     1
 71
     2
176
     1
 72
     2
176
     1
 73
     0
176
     1
 90
        0
176
     1
 40
0.6
176
     1
 41
30.0
176
     1
 62
     5
 63
     7
421
 16777215
176
     1
 74
     1
176
     1
 91
        4
176
     1
 64
     7
176
     1
 65
   257
176
     1
 75
     1
176
     1
175
     1
176
     1
 42
1.0
176
     1
 92
        8
176
     1
 66
     7
176
     1
 43
1.0
176
     1
 76
     1
176
     1
 77
     6
176
     1
 78
     2
176
     1
 67
     7
176
     1
 79
     5
176
     1
170
     0
176
     1
171
     0
176
     1
290
     0
176
     1
 93
        1
176
     1
 44
-50.0
176
     1
173
     0
176
     1
  0
VISUALSTYLE
  5
3D
102
{ACAD_REACTORS
330
2A
102
}
102
{ACAD_XDICTIONARY
360
249
102
}
330
2A
100
AcDbVisualStyle
  2
EdgeColorOff
 70
    22
177
     2
291
     1
 71
     2
176
     0
 72
     2
176
     0
 73
     0
176
     0
 90
        0
176
     0
 40
0.6
176
     0
 41
30.0
176
     0
 62
     5
 63
     7
421
 16777215
176
     0
 74
     1
176
     0
 91
        4
176
     0
 64
     7
176
     0
 65
   257
176
     0
 75
     1
176
     0
175
     1
176
     0
 42
1.0
176
     0
 92
        8
176
     2
 66
     7
176
     0
 43
1.0
176
     0
 76
     1
176
     0
 77
     6
176
     0
 78
     2
176
     0
 67
     7
176
     0
 79
     5
176
     0
170
     0
176
     0
171
     0
176
     0
290
     0
176
     0
 93
        1
176
     0
 44
0.0
176
     0
173
     0
176
     0
  0
VISUALSTYLE
  5
39
102
{ACAD_REACTORS
330
2A
102
}
102
{ACAD_XDICTIONARY
360
241
102
}
330
2A
100
AcDbVisualStyle
  2
Facepattern
 70
    15
177
     2
291
     1
 71
     2
176
     1
 72
     2
176
     1
 73
     0
176
     1
 90
        0
176
     1
 40
0.6
176
     1
 41
30.0
176
     1
 62
     5
 63
     7
421
 16777215
176
     1
 74
     1
176
     1
 91
        4
176
     1
 64
     7
176
     1
 65
   257
176
     1
 75
     1
176
     1
175
     1
176
     1
 42
1.0
176
     1
 92
        8
176
     1
 66
     7
176
     1
 43
1.0
176
     1
 76
     1
176
     1
 77
     6
176
     1
 78
     2
176
     1
 67
     7
176
     1
 79
     5
176
     1
170
     0
176
     1
171
     0
176
     1
290
     0
176
     1
 93
        1
176
     1
 44
0.0
176
     1
173
     0
176
     1
  0
VISUALSTYLE
  5
2B
102
{ACAD_REACTORS
330
2A
102
}
102
{ACAD_XDICTIONARY
360
225
102
}
330
2A
100
AcDbVisualStyle
  2
Flat
 70
     0
177
     2
291
     1
 71
     2
176
     1
 72
     1
176
     1
 73
     1
176
     1
 90
        2
176
     1
 40
0.6
176
     1
 41
30.0
176
     1
 62
     5
 63
     7
421
 16777215
176
     1
 74
     0
176
     1
 91
        0
176
     1
 64
     7
176
     1
 65
   257
176
     1
 75
     1
176
     1
175
     1
176
     1
 42
1.0
176
     1
 92
        8
176
     1
 66
     7
176
     1
 43
1.0
176
     1
 76
     1
176
     1
 77
     6
176
     1
 78
     2
176
     1
 67
     7
176
     1
 79
     5
176
     1
170
     0
176
     1
171
     0
176
     1
290
     0
176
     1
 93
       13
176
     1
 44
0.0
176
     1
173
     0
176
     1
  0
VISUALSTYLE
  5
2C
102
{ACAD_REACTORS
330
2A
102
}
102
{ACAD_XDICTIONARY
360
227
102
}
330
2A
100
AcDbVisualStyle
  2
FlatWithEdges
 70
     1
177
     2
291
     1
 71
     2
176
     1
 72
     1
176
     1
 73
     1
176
     1
 90
        2
176
     1
 40
0.6
176
     1
 41
30.0
176
     1
 62
     5
 63
     7
421
 16777215
176
     1
 74
     1
176
     1
 91
        0
176
     1
 64
     7
176
     1
 65
   257
176
     1
 75
     1
176
     1
175
     1
176
     1
 42
1.0
176
     1
 92
        0
176
     1
 66
   257
176
     1
 43
1.0
176
     1
 76
     1
176
     1
 77
     6
176
     1
 78
     2
176
     1
 67
     7
176
     1
 79
     5
176
     1
170
     0
176
     1
171
     0
176
     1
290
     0
176
     1
 93
       13
176
     1
 44
0.0
176
     1
173
     0
176
     1
  0
VISUALSTYLE
  5
2D
102
{ACAD_REACTORS
330
2A
102
}
102
{ACAD_XDICTIONARY
360
229
102
}
330
2A
100
AcDbVisualStyle
  2
Gouraud
 70
     2
177
     2
291
     1
 71
     2
176
     1
 72
     2
176
     1
 73
     1
176
     1
 90
        2
176
     1
 40
0.6
176
     1
 41
30.0
176
     1
 62
     5
 63
     7
421
 16777215
176
     1
 74
     0
176
     1
 91
        0
176
     1
 64
     7
176
     1
 65
   257
176
     1
 75
     1
176
     1
175
     1
176
     1
 42
1.0
176
     1
 92
        0
176
     1
 66
     7
176
     1
 43
1.0
176
     1
 76
     1
176
     1
 77
     6
176
     1
 78
     2
176
     1
 67
     7
176
     1
 79
     5
176
     1
170
     0
176
     1
171
     0
176
     1
290
     0
176
     1
 93
       13
176
     1
 44
0.0
176
     1
173
     0
176
     1
  0
VISUALSTYLE
  5
2E
102
{ACAD_REACTORS
330
2A
102
}
102
{ACAD_XDICTIONARY
360
22B
102
}
330
2A
100
AcDbVisualStyle
  2
GouraudWithEdges
 70
     3
177
     2
291
     1
 71
     2
176
     1
 72
     2
176
     1
 73
     1
176
     1
 90
        2
176
     1
 40
0.6
176
     1
 41
30.0
176
     1
 62
     5
 63
     7
421
 16777215
176
     1
 74
     1
176
     1
 91
        0
176
     1
 64
     7
176
     1
 65
   257
176
     1
 75
     1
176
     1
175
     1
176
     1
 42
1.0
176
     1
 92
        0
176
     1
 66
   257
176
     1
 43
1.0
176
     1
 76
     1
176
     1
 77
     6
176
     1
 78
     2
176
     1
 67
     7
176
     1
 79
     5
176
     1
170
     0
176
     1
171
     0
176
     1
290
     0
176
     1
 93
       13
176
     1
 44
0.0
176
     1
173
     0
176
     1
  0
VISUALSTYLE
  5
31
102
{ACAD_REACTORS
330
2A
102
}
102
{ACAD_XDICTIONARY
360
231
102
}
330
2A
100
AcDbVisualStyle
  2
Hidden
 70
     6
177
     2
291
     0
 71
     1
176
     1
 72
     2
176
     1
 73
     2
176
     1
 90
        0
176
     1
 40
0.6
176
     1
 41
30.0
176
     1
 62
     5
 63
     7
421
 16777215
176
     1
 74
     2
176
     1
 91
        2
176
     1
 64
     7
176
     1
 65
   257
176
     1
 75
     2
176
     1
175
     1
176
     1
 42
40.0
176
     1
 92
        0
176
     1
 66
   257
176
     1
 43
1.0
176
     1
 76
     1
176
     1
 77
     6
176
     1
 78
     2
176
     1
 67
     7
176
     1
 79
     3
176
     1
170
     0
176
     1
171
     0
176
     1
290
     0
176
     1
 93
        1
176
     1
 44
0.0
176
     1
173
     0
176
     1
  0
VISUALSTYLE
  5
3B
102
{ACAD_REACTORS
330
2A
102
}
102
{ACAD_XDICTIONARY
360
245
102
}
330
2A
100
AcDbVisualStyle
  2
JitterOff
 70
    20
177
     2
291
     1
 71
     2
176
     0
 72
     2
176
     0
 73
     0
176
     0
 90
        0
176
     0
 40
0.6
176
     0
 41
30.0
176
     0
 62
     5
 63
     7
421
 16777215
176
     0
 74
     1
176
     0
 91
        4
176
     0
 64
     7
176
     0
 65
   257
176
     0
 75
     1
176
     0
175
     1
176
     0
 42
1.0
176
     0
 92
       10
176
     2
 66
     7
176
     0
 43
1.0
176
     0
 76
     1
176
     0
 77
     6
176
     0
 78
     2
176
     0
 67
     7
176
     0
 79
     5
176
     0
170
     0
176
     0
171
     0
176
     0
290
     0
176
     0
 93
        1
176
     0
 44
0.0
176
     0
173
     0
176
     0
  0
VISUALSTYLE
  5
38
102
{ACAD_REACTORS
330
2A
102
}
102
{ACAD_XDICTIONARY
360
23F
102
}
330
2A
100
AcDbVisualStyle
  2
Linepattern
 70
    14
177
     2
291
     1
 71
     2
176
     1
 72
     2
176
     1
 73
     0
176
     1
 90
        0
176
     1
 40
0.6
176
     1
 41
30.0
176
     1
 62
     5
 63
     7
421
 16777215
176
     1
 74
     1
176
     1
 91
        4
176
     1
 64
     7
176
     1
 65
   257
176
     1
 75
     7
176
     1
175
     7
176
     1
 42
1.0
176
     1
 92
        8
176
     1
 66
     7
176
     1
 43
1.0
176
     1
 76
     1
176
     1
 77
     6
176
     1
 78
     2
176
     1
 67
     7
176
     1
 79
     5
176
     1
170
     0
176
     1
171
     0
176
     1
290
     0
176
     1
 93
        1
176
     1
 44
0.0
176
     1
173
     0
176
     1
  0
VISUALSTYLE
  5
3C
102
{ACAD_REACTORS
330
2A
102
}
102
{ACAD_XDICTIONARY
360
247
102
}
330
2A
100
AcDbVisualStyle
  2
OverhangOff
 70
    21
177
     2
291
     1
 71
     2
176
     0
 72
     2
176
     0
 73
     0
176
     0
 90
        0
176
     0
 40
0.6
176
     0
 41
30.0
176
     0
 62
     5
 63
     7
421
 16777215
176
     0
 74
     1
176
     0
 91
        4
176
     0
 64
     7
176
     0
 65
   257
176
     0
 75
     1
176
     0
175
     1
176
     0
 42
1.0
176
     0
 92
        9
176
     2
 66
     7
176
     0
 43
1.0
176
     0
 76
     1
176
     0
 77
     6
176
     0
 78
     2
176
     0
 67
     7
176
     0
 79
     5
176
     0
170
     0
176
     0
171
     0
176
     0
290
     0
176
     0
 93
        1
176
     0
 44
0.0
176
     0
173
     0
176
     0
  0
VISUALSTYLE
  5
33
102
{ACAD_REACTORS
330
2A
102
}
102
{ACAD_XDICTIONARY
360
235
102
}
330
2A
100
AcDbVisualStyle
  2
Realistic
 70
     8
177
     2
291
     0
 71
     2
176
     1
 72
     3
176
     1
 73
     0
176
     1
 90
        2
176
     1
 40
0.6
176
     1
 41
30.0
176
     1
 62
     5
 63
     7
421
 16777215
176
     1
 74
     0
176
     1
 91
        0
176
     1
 64
     7
176
     1
 65
   257
176
     1
 75
     1
176
     1
175
     1
176
     1
 42
1.0
176
     1
 92
        8
176
     1
 66
   257
176
     1
 43
1.0
176
     1
 76
     1
176
     1
 77
     6
176
     1
 78
     2
176
     1
 67
     7
176
     1
 79
     3
176
     1
170
     0
176
     1
171
     0
176
     1
290
     0
176
     1
 93
       13
176
     1
 44
0.0
176
     1
173
     0
176
     1
  0
VISUALSTYLE
  5
42
102
{ACAD_REACTORS
330
2A
102
}
102
{ACAD_XDICTIONARY
360
253
102
}
330
2A
100
AcDbVisualStyle
  2
Shaded
 70
    27
177
     2
291
     0
 71
     2
176
     1
 72
     2
176
     1
 73
     1
176
     1
 90
        2
176
     1
 40
0.6
176
     1
 41
30.0
176
     1
 62
     5
 63
     7
421
 16777215
176
     1
 74
     0
176
     1
 91
        4
176
     1
 64
     7
176
     1
 65
   257
176
     1
 75
     1
176
     1
175
     1
176
     1
 42
1.0
176
     1
 92
        8
176
     1
 66
   257
176
     1
 43
1.0
176
     1
 76
     1
176
     1
 77
     6
176
     1
 78
     2
176
     1
 67
     8
425
  7895160
176
     1
 79
     3
176
     1
170
     0
176
     1
171
     0
176
     1
290
     0
176
     1
 93
        5
176
     1
 44
0.0
176
     1
173
     0
176
     1
  0
VISUALSTYLE
  5
41
102
{ACAD_REACTORS
330
2A
102
}
102
{ACAD_XDICTIONARY
360
251
102
}
330
2A
100
AcDbVisualStyle
  2
Shaded with edges
 70
    26
177
     2
291
     0
 71
     2
176
     1
 72
     2
176
     1
 73
     1
176
     1
 90
        2
176
     1
 40
0.6
176
     1
 41
30.0
176
     1
 62
     5
 63
     7
421
 16777215
176
     1
 74
     1
176
     1
 91
       10
176
     1
 64
     7
176
     1
 65
   257
176
     1
 75
     2
176
     1
175
     1
176
     1
 42
1.0
176
     1
 92
        8
176
     1
 66
   257
176
     1
 43
1.0
176
     1
 76
     1
176
     1
 77
     6
176
     1
 78
     2
176
     1
 67
     7
176
     1
 79
     3
176
     1
170
     0
176
     1
171
     0
176
     1
290
     0
176
     1
 93
        5
176
     1
 44
0.0
176
     1
173
     0
176
     1
  0
VISUALSTYLE
  5
3E
102
{ACAD_REACTORS
330
2A
102
}
102
{ACAD_XDICTIONARY
360
24B
102
}
330
2A
100
AcDbVisualStyle
  2
Shades of Gray
 70
    23
177
     2
291
     0
 71
     2
176
     1
 72
     2
176
     1
 73
     3
176
     1
 90
        0
176
     1
 40
0.6
176
     1
 41
30.0
176
     1
 62
     5
 63
     7
421
 16777215
176
     1
 74
     2
176
     1
 91
        2
176
     1
 64
     7
176
     1
 65
     7
176
     1
 75
     1
176
     1
175
     1
176
     1
 42
40.0
176
     1
 92
        8
176
     1
 66
     7
176
     1
 43
1.0
176
     1
 76
     1
176
     1
 77
     6
176
     1
 78
     2
176
     1
 67
     7
176
     1
 79
     3
176
     1
170
     0
176
     1
171
     0
176
     1
290
     0
176
     1
 93
        1
176
     1
 44
0.0
176
     1
173
     0
176
     1
  0
VISUALSTYLE
  5
3F
102
{ACAD_REACTORS
330
2A
102
}
102
{ACAD_XDICTIONARY
360
24D
102
}
330
2A
100
AcDbVisualStyle
  2
Sketchy
 70
    24
177
     2
291
     0
 71
     1
176
     1
 72
     2
176
     1
 73
     2
176
     1
 90
        0
176
     1
 40
0.6
176
     1
 41
30.0
176
     1
 62
     5
 63
     7
421
 16777215
176
     1
 74
     2
176
     1
 91
        2
176
     1
 64
     7
176
     1
 65
     7
176
     1
 75
     1
176
     1
175
     1
176
     1
 42
40.0
176
     1
 92
       11
176
     1
 66
     7
176
     1
 43
1.0
176
     1
 76
     1
176
     1
 77
     6
176
     1
 78
     2
176
     1
 67
     7
176
     1
 79
     6
176
     1
170
     0
176
     1
171
     0
176
     1
290
     0
176
     1
 93
        1
176
     1
 44
0.0
176
     1
173
     0
176
     1
  0
VISUALSTYLE
  5
37
102
{ACAD_REACTORS
330
2A
102
}
102
{ACAD_XDICTIONARY
360
23D
102
}
330
2A
100
AcDbVisualStyle
  2
Thicken
 70
    13
177
     2
291
     1
 71
     2
176
     1
 72
     2
176
     1
 73
     0
176
     1
 90
        0
176
     1
 40
0.6
176
     1
 41
30.0
176
     1
 62
     5
 63
     7
421
 16777215
176
     1
 74
     1
176
     1
 91
        4
176
     1
 64
     7
176
     1
 65
   257
176
     1
 75
     1
176
     1
175
     1
176
     1
 42
1.0
176
     1
 92
       12
176
     1
 66
     7
176
     1
 43
1.0
176
     1
 76
     1
176
     1
 77
     6
176
     1
 78
     2
176
     1
 67
     7
176
     1
 79
     5
176
     1
170
     0
176
     1
171
     0
176
     1
290
     0
176
     1
 93
        1
176
     1
 44
0.0
176
     1
173
     0
176
     1
  0
VISUALSTYLE
  5
30
102
{ACAD_REACTORS
330
2A
102
}
102
{ACAD_XDICTIONARY
360
22F
102
}
330
2A
100
AcDbVisualStyle
  2
Wireframe
 70
     5
177
     2
291
     0
 71
     0
176
     1
 72
     2
176
     1
 73
     0
176
     1
 90
        0
176
     1
 40
0.6
176
     1
 41
30.0
176
     1
 62
     5
 63
     7
421
 16777215
176
     1
 74
     1
176
     1
 91
        4
176
     1
 64
     7
176
     1
 65
   257
176
     1
 75
     1
176
     1
175
     1
176
     1
 42
1.0
176
     1
 92
        0
176
     1
 66
   257
176
     1
 43
1.0
176
     1
 76
     1
176
     1
 77
     6
176
     1
 78
     2
176
     1
 67
     7
176
     1
 79
     3
176
     1
170
     0
176
     1
171
     0
176
     1
290
     0
176
     1
 93
        1
176
     1
 44
0.0
176
     1
173
     0
176
     1
  0
VISUALSTYLE
  5
40
102
{ACAD_REACTORS
330
2A
102
}
102
{ACAD_XDICTIONARY
360
24F
102
}
330
2A
100
AcDbVisualStyle
  2
X-Ray
 70
    25
177
     2
291
     0
 71
     2
176
     1
 72
     2
176
     1
 73
     1
176
     1
 90
        1
176
     1
 40
0.5
176
     1
 41
30.0
176
     1
 62
     5
 63
     7
421
 16777215
176
     1
 74
     1
176
     1
 91
        0
176
     1
 64
     7
176
     1
 65
   257
176
     1
 75
     1
176
     1
175
     1
176
     1
 42
1.0
176
     1
 92
        8
176
     1
 66
     7
176
     1
 43
1.0
176
     1
 76
     1
176
     1
 77
     6
176
     1
 78
     2
176
     1
 67
     7
176
     1
 79
     3
176
     1
170
     0
176
     1
171
     0
176
     1
290
     0
176
     1
 93
       13
176
     1
 44
0.0
176
     1
173
     0
176
     1
  0
DICTIONARYVAR
  5
224
102
{ACAD_REACTORS
330
223
102
}
330
223
100
DictionaryVariables
280
     0
  1
1:1
  0
DICTIONARYVAR
  5
25C
102
{ACAD_REACTORS
330
223
102
}
330
223
100
DictionaryVariables
280
     0
  1
3.500000
  0
DICTIONARYVAR
  5
25D
102
{ACAD_REACTORS
330
223
102
}
330
223
100
DictionaryVariables
280
     0
  1
acadiso.lin
  0
DICTIONARYVAR
  5
259
102
{ACAD_REACTORS
330
223
102
}
330
223
100
DictionaryVariables
280
     0
  1
Standard
  0
DICTIONARYVAR
  5
258
102
{ACAD_REACTORS
330
223
102
}
330
223
100
DictionaryVariables
280
     0
  1
Standard
  0
DICTIONARY
  5
255
330
5A
100
AcDbDictionary
280
     1
281
     1
  3
ACAD_ROUNDTRIP_2008_TABLESTYLE_CELLSTYLEMAP
360
256
  0
DICTIONARY
  5
22D
330
2F
100
AcDbDictionary
280
     1
281
     1
  3
ACAD_XREC_ROUNDTRIP
360
22E
  0
DICTIONARY
  5
233
330
32
100
AcDbDictionary
280
     1
281
     1
  3
ACAD_XREC_ROUNDTRIP
360
234
  0
DICTIONARY
  5
23B
330
36
100
AcDbDictionary
280
     1
281
     1
  3
ACAD_XREC_ROUNDTRIP
360
23C
  0
DICTIONARY
  5
243
330
3A
100
AcDbDictionary
280
     1
281
     1
  3
ACAD_XREC_ROUNDTRIP
360
244
  0
DICTIONARY
  5
237
330
34
100
AcDbDictionary
280
     1
281
     1
  3
ACAD_XREC_ROUNDTRIP
360
238
  0
DICTIONARY
  5
239
330
35
100
AcDbDictionary
280
     1
281
     1
  3
ACAD_XREC_ROUNDTRIP
360
23A
  0
DICTIONARY
  5
249
330
3D
100
AcDbDictionary
280
     1
281
     1
  3
ACAD_XREC_ROUNDTRIP
360
24A
  0
DICTIONARY
  5
241
330
39
100
AcDbDictionary
280
     1
281
     1
  3
ACAD_XREC_ROUNDTRIP
360
242
  0
DICTIONARY
  5
225
330
2B
100
AcDbDictionary
280
     1
281
     1
  3
ACAD_XREC_ROUNDTRIP
360
226
  0
DICTIONARY
  5
227
330
2C
100
AcDbDictionary
280
     1
281
     1
  3
ACAD_XREC_ROUNDTRIP
360
228
  0
DICTIONARY
  5
229
330
2D
100
AcDbDictionary
280
     1
281
     1
  3
ACAD_XREC_ROUNDTRIP
360
22A
  0
DICTIONARY
  5
22B
330
2E
100
AcDbDictionary
280
     1
281
     1
  3
ACAD_XREC_ROUNDTRIP
360
22C
  0
DICTIONARY
  5
231
330
31
100
AcDbDictionary
280
     1
281
     1
  3
ACAD_XREC_ROUNDTRIP
360
232
  0
DICTIONARY
  5
245
330
3B
100
AcDbDictionary
280
     1
281
     1
  3
ACAD_XREC_ROUNDTRIP
360
246
  0
DICTIONARY
  5
23F
330
38
100
AcDbDictionary
280
     1
281
     1
  3
ACAD_XREC_ROUNDTRIP
360
240
  0
DICTIONARY
  5
247
330
3C
100
AcDbDictionary
280
     1
281
     1
  3
ACAD_XREC_ROUNDTRIP
360
248
  0
DICTIONARY
  5
235
330
33
100
AcDbDictionary
280
     1
281
     1
  3
ACAD_XREC_ROUNDTRIP
360
236
  0
DICTIONARY
  5
253
330
42
100
AcDbDictionary
280
     1
281
     1
  3
ACAD_XREC_ROUNDTRIP
360
254
  0
DICTIONARY
  5
251
330
41
100
AcDbDictionary
280
     1
281
     1
  3
ACAD_XREC_ROUNDTRIP
360
252
  0
DICTIONARY
  5
24B
330
3E
100
AcDbDictionary
280
     1
281
     1
  3
ACAD_XREC_ROUNDTRIP
360
24C
  0
DICTIONARY
  5
24D
330
3F
100
AcDbDictionary
280
     1
281
     1
  3
ACAD_XREC_ROUNDTRIP
360
24E
  0
DICTIONARY
  5
23D
330
37
100
AcDbDictionary
280
     1
281
     1
  3
ACAD_XREC_ROUNDTRIP
360
23E
  0
DICTIONARY
  5
22F
330
30
100
AcDbDictionary
280
     1
281
     1
  3
ACAD_XREC_ROUNDTRIP
360
230
  0
DICTIONARY
  5
24F
330
40
100
AcDbDictionary
280
     1
281
     1
  3
ACAD_XREC_ROUNDTRIP
360
250
  0
CELLSTYLEMAP
  5
256
102
{ACAD_REACTORS
330
255
102
}
330
255
100
AcDbCellStyleMap
 90
        3
300
CELLSTYLE
  1
TABLEFORMAT_BEGIN
 90
        5
170
     1
 91
        0
 92
    32768
 62
   257
 93
        1
300
CONTENTFORMAT
  1
CONTENTFORMAT_BEGIN
 90
        0
 91
        0
 92
        4
 93
        0
300

 40
0.0
140
1.0
 94
        5
 62
     0
340
11
144
6.0
309
CONTENTFORMAT_END
171
     1
301
MARGIN
  1
CELLMARGIN_BEGIN
 40
1.5
 40
1.5
 40
1.5
 40
1.5
 40
1.5
 40
1.5
309
CELLMARGIN_END
 94
        6
 95
        1
302
GRIDFORMAT
  1
GRIDFORMAT_BEGIN
 90
        0
 91
        1
 62
     0
 92
       -2
340
14
 93
        0
 40
0.045
309
GRIDFORMAT_END
 95
        2
302
GRIDFORMAT
  1
GRIDFORMAT_BEGIN
 90
        0
 91
        1
 62
     0
 92
       -2
340
14
 93
        0
 40
0.045
309
GRIDFORMAT_END
 95
        4
302
GRIDFORMAT
  1
GRIDFORMAT_BEGIN
 90
        0
 91
        1
 62
     0
 92
       -2
340
14
 93
        0
 40
0.045
309
GRIDFORMAT_END
 95
        8
302
GRIDFORMAT
  1
GRIDFORMAT_BEGIN
 90
        0
 91
        1
 62
     0
 92
       -2
340
14
 93
        0
 40
0.045
309
GRIDFORMAT_END
 95
       16
302
GRIDFORMAT
  1
GRIDFORMAT_BEGIN
 90
        0
 91
        1
 62
     0
 92
       -2
340
14
 93
        0
 40
0.045
309
GRIDFORMAT_END
 95
       32
302
GRIDFORMAT
  1
GRIDFORMAT_BEGIN
 90
        0
 91
        1
 62
     0
 92
       -2
340
14
 93
        0
 40
0.045
309
GRIDFORMAT_END
309
TABLEFORMAT_END
  1
CELLSTYLE_BEGIN
 90
        1
 91
        1
300
_TITLE
309
CELLSTYLE_END
300
CELLSTYLE
  1
TABLEFORMAT_BEGIN
 90
        5
170
     1
 91
        0
 92
        0
 62
   257
 93
        1
300
CONTENTFORMAT
  1
CONTENTFORMAT_BEGIN
 90
        0
 91
        0
 92
        4
 93
        0
300

 40
0.0
140
1.0
 94
        5
 62
     0
340
11
144
4.5
309
CONTENTFORMAT_END
171
     1
301
MARGIN
  1
CELLMARGIN_BEGIN
 40
1.5
 40
1.5
 40
1.5
 40
1.5
 40
1.5
 40
1.5
309
CELLMARGIN_END
 94
        6
 95
        1
302
GRIDFORMAT
  1
GRIDFORMAT_BEGIN
 90
        0
 91
        1
 62
     0
 92
       -2
340
14
 93
        0
 40
0.045
309
GRIDFORMAT_END
 95
        2
302
GRIDFORMAT
  1
GRIDFORMAT_BEGIN
 90
        0
 91
        1
 62
     0
 92
       -2
340
14
 93
        0
 40
0.045
309
GRIDFORMAT_END
 95
        4
302
GRIDFORMAT
  1
GRIDFORMAT_BEGIN
 90
        0
 91
        1
 62
     0
 92
       -2
340
14
 93
        0
 40
0.045
309
GRIDFORMAT_END
 95
        8
302
GRIDFORMAT
  1
GRIDFORMAT_BEGIN
 90
        0
 91
        1
 62
     0
 92
       -2
340
14
 93
        0
 40
0.045
309
GRIDFORMAT_END
 95
       16
302
GRIDFORMAT
  1
GRIDFORMAT_BEGIN
 90
        0
 91
        1
 62
     0
 92
       -2
340
14
 93
        0
 40
0.045
309
GRIDFORMAT_END
 95
       32
302
GRIDFORMAT
  1
GRIDFORMAT_BEGIN
 90
        0
 91
        1
 62
     0
 92
       -2
340
14
 93
        0
 40
0.045
309
GRIDFORMAT_END
309
TABLEFORMAT_END
  1
CELLSTYLE_BEGIN
 90
        2
 91
        1
300
_HEADER
309
CELLSTYLE_END
300
CELLSTYLE
  1
TABLEFORMAT_BEGIN
 90
        5
170
     1
 91
        0
 92
        0
 62
   257
 93
        1
300
CONTENTFORMAT
  1
CONTENTFORMAT_BEGIN
 90
        0
 91
        0
 92
        4
 93
        0
300

 40
0.0
140
1.0
 94
        2
 62
     0
340
11
144
4.5
309
CONTENTFORMAT_END
171
     1
301
MARGIN
  1
CELLMARGIN_BEGIN
 40
1.5
 40
1.5
 40
1.5
 40
1.5
 40
1.5
 40
1.5
309
CELLMARGIN_END
 94
        6
 95
        1
302
GRIDFORMAT
  1
GRIDFORMAT_BEGIN
 90
        0
 91
        1
 62
     0
 92
       -2
340
14
 93
        0
 40
0.045
309
GRIDFORMAT_END
 95
        2
302
GRIDFORMAT
  1
GRIDFORMAT_BEGIN
 90
        0
 91
        1
 62
     0
 92
       -2
340
14
 93
        0
 40
0.045
309
GRIDFORMAT_END
 95
        4
302
GRIDFORMAT
  1
GRIDFORMAT_BEGIN
 90
        0
 91
        1
 62
     0
 92
       -2
340
14
 93
        0
 40
0.045
309
GRIDFORMAT_END
 95
        8
302
GRIDFORMAT
  1
GRIDFORMAT_BEGIN
 90
        0
 91
        1
 62
     0
 92
       -2
340
14
 93
        0
 40
0.045
309
GRIDFORMAT_END
 95
       16
302
GRIDFORMAT
  1
GRIDFORMAT_BEGIN
 90
        0
 91
        1
 62
     0
 92
       -2
340
14
 93
        0
 40
0.045
309
GRIDFORMAT_END
 95
       32
302
GRIDFORMAT
  1
GRIDFORMAT_BEGIN
 90
        0
 91
        1
 62
     0
 92
       -2
340
14
 93
        0
 40
0.045
309
GRIDFORMAT_END
309
TABLEFORMAT_END
  1
CELLSTYLE_BEGIN
 90
        3
 91
        2
300
_DATA
309
CELLSTYLE_END
  0
XRECORD
  5
22E
102
{ACAD_REACTORS
330
22D
102
}
330
22D
100
AcDbXrecord
280
     1
102
RTVSPost2010Prop28
280
     1
102
RTVSPost2010PropOp28
 70
     1
102
RTVSPost2010Prop29
280
     1
102
RTVSPost2010PropOp29
 70
     1
102
RTVSPost2010Prop30
280
     0
102
RTVSPost2010PropOp30
 70
     1
102
RTVSPost2010Prop31
280
     0
102
RTVSPost2010PropOp31
 70
     1
102
RTVSPost2010Prop32
280
     0
102
RTVSPost2010PropOp32
 70
     1
102
RTVSPost2010Prop33
280
     0
102
RTVSPost2010PropOp33
 70
     1
102
RTVSPost2010Prop34
280
     0
102
RTVSPost2010PropOp34
 70
     1
102
RTVSPost2010Prop35
280
     0
102
RTVSPost2010PropOp35
 70
     1
102
RTVSPost2010Prop36
280
     0
102
RTVSPost2010PropOp36
 70
     1
102
RTVSPost2010Prop37
 90
       50
102
RTVSPost2010PropOp37
 70
     1
102
RTVSPost2010Prop38
140
0.0
102
RTVSPost2010PropOp38
 70
     1
102
RTVSPost2010Prop39
140
1.0
102
RTVSPost2010PropOp39
 70
     1
102
RTVSPost2010Prop40
 90
        0
102
RTVSPost2010PropOp40
 70
     1
102
RTVSPost2010Prop41ColorIndex
 90
       18
102
RTVSPost2010Prop41ColorRGB
 90
        0
102
RTVSPost2010PropOp41
 70
     1
102
RTVSPost2010Prop42
 90
       50
102
RTVSPost2010PropOp42
 70
     1
102
RTVSPost2010Prop43
 90
        3
102
RTVSPost2010PropOp43
 70
     1
102
RTVSPost2010Prop44ColorIndex
 90
        5
102
RTVSPost2010Prop44ColorRGB
 90
      255
102
RTVSPost2010PropOp44
 70
     1
102
RTVSPost2010Prop45
280
     0
102
RTVSPost2010PropOp45
 70
     1
102
RTVSPost2010Prop46
 90
       50
102
RTVSPost2010PropOp46
 70
     1
102
RTVSPost2010Prop47
 90
       50
102
RTVSPost2010PropOp47
 70
     1
102
RTVSPost2010Prop48
 90
       50
102
RTVSPost2010PropOp48
 70
     1
102
RTVSPost2010Prop49
280
     0
102
RTVSPost2010PropOp49
 70
     1
102
RTVSPost2010Prop50
 90
       50
102
RTVSPost2010PropOp50
 70
     1
102
RTVSPost2010Prop51ColorIndex
 90
      256
102
RTVSPost2010Prop51ColorRGB
 90
-16777216
102
RTVSPost2010PropOp51
 70
     0
102
RTVSPost2010Prop52
140
1.0
102
RTVSPost2010PropOp52
 70
     0
102
RTVSPost2010Prop53
 90
        2
102
RTVSPost2010PropOp53
 70
     1
102
RTVSPost2010Prop54
  1
strokes_ogs.tif
102
RTVSPost2010PropOp54
 70
     1
102
RTVSPost2010Prop55
280
     0
102
RTVSPost2010PropOp55
 70
     1
102
RTVSPost2010Prop56
140
1.0
102
RTVSPost2010PropOp56
 70
     1
102
RTVSPost2010Prop57
140
1.0
102
RTVSPost2010PropOp57
 70
     1
  0
XRECORD
  5
234
102
{ACAD_REACTORS
330
233
102
}
330
233
100
AcDbXrecord
280
     1
102
RTVSPost2010Prop28
280
     0
102
RTVSPost2010PropOp28
 70
     1
102
RTVSPost2010Prop29
280
     1
102
RTVSPost2010PropOp29
 70
     1
102
RTVSPost2010Prop30
280
     1
102
RTVSPost2010PropOp30
 70
     1
102
RTVSPost2010Prop31
280
     0
102
RTVSPost2010PropOp31
 70
     1
102
RTVSPost2010Prop32
280
     0
102
RTVSPost2010PropOp32
 70
     1
102
RTVSPost2010Prop33
280
     0
102
RTVSPost2010PropOp33
 70
     1
102
RTVSPost2010Prop34
280
     0
102
RTVSPost2010PropOp34
 70
     1
102
RTVSPost2010Prop35
280
     0
102
RTVSPost2010PropOp35
 70
     1
102
RTVSPost2010Prop36
280
     0
102
RTVSPost2010PropOp36
 70
     1
102
RTVSPost2010Prop37
 90
       50
102
RTVSPost2010PropOp37
 70
     1
102
RTVSPost2010Prop38
140
0.0
102
RTVSPost2010PropOp38
 70
     1
102
RTVSPost2010Prop39
140
1.0
102
RTVSPost2010PropOp39
 70
     1
102
RTVSPost2010Prop40
 90
        0
102
RTVSPost2010PropOp40
 70
     1
102
RTVSPost2010Prop41ColorIndex
 90
       18
102
RTVSPost2010Prop41ColorRGB
 90
        0
102
RTVSPost2010PropOp41
 70
     1
102
RTVSPost2010Prop42
 90
       50
102
RTVSPost2010PropOp42
 70
     1
102
RTVSPost2010Prop43
 90
        3
102
RTVSPost2010PropOp43
 70
     1
102
RTVSPost2010Prop44ColorIndex
 90
        5
102
RTVSPost2010Prop44ColorRGB
 90
      255
102
RTVSPost2010PropOp44
 70
     1
102
RTVSPost2010Prop45
280
     0
102
RTVSPost2010PropOp45
 70
     1
102
RTVSPost2010Prop46
 90
       50
102
RTVSPost2010PropOp46
 70
     1
102
RTVSPost2010Prop47
 90
       50
102
RTVSPost2010PropOp47
 70
     1
102
RTVSPost2010Prop48
 90
       50
102
RTVSPost2010PropOp48
 70
     1
102
RTVSPost2010Prop49
280
     0
102
RTVSPost2010PropOp49
 70
     1
102
RTVSPost2010Prop50
 90
       50
102
RTVSPost2010PropOp50
 70
     1
102
RTVSPost2010Prop51ColorIndex
 90
      256
102
RTVSPost2010Prop51ColorRGB
 90
-16777216
102
RTVSPost2010PropOp51
 70
     0
102
RTVSPost2010Prop52
140
1.0
102
RTVSPost2010PropOp52
 70
     0
102
RTVSPost2010Prop53
 90
        2
102
RTVSPost2010PropOp53
 70
     1
102
RTVSPost2010Prop54
  1
strokes_ogs.tif
102
RTVSPost2010PropOp54
 70
     1
102
RTVSPost2010Prop55
280
     0
102
RTVSPost2010PropOp55
 70
     1
102
RTVSPost2010Prop56
140
1.0
102
RTVSPost2010PropOp56
 70
     1
102
RTVSPost2010Prop57
140
1.0
102
RTVSPost2010PropOp57
 70
     1
  0
XRECORD
  5
23C
102
{ACAD_REACTORS
330
23B
102
}
330
23B
100
AcDbXrecord
280
     1
102
RTVSPost2010Prop28
280
     0
102
RTVSPost2010PropOp28
 70
     1
102
RTVSPost2010Prop29
280
     1
102
RTVSPost2010PropOp29
 70
     1
102
RTVSPost2010Prop30
280
     1
102
RTVSPost2010PropOp30
 70
     1
102
RTVSPost2010Prop31
280
     0
102
RTVSPost2010PropOp31
 70
     1
102
RTVSPost2010Prop32
280
     0
102
RTVSPost2010PropOp32
 70
     1
102
RTVSPost2010Prop33
280
     0
102
RTVSPost2010PropOp33
 70
     1
102
RTVSPost2010Prop34
280
     0
102
RTVSPost2010PropOp34
 70
     1
102
RTVSPost2010Prop35
280
     0
102
RTVSPost2010PropOp35
 70
     1
102
RTVSPost2010Prop36
280
     0
102
RTVSPost2010PropOp36
 70
     1
102
RTVSPost2010Prop37
 90
       50
102
RTVSPost2010PropOp37
 70
     1
102
RTVSPost2010Prop38
140
0.0
102
RTVSPost2010PropOp38
 70
     1
102
RTVSPost2010Prop39
140
1.0
102
RTVSPost2010PropOp39
 70
     1
102
RTVSPost2010Prop40
 90
        0
102
RTVSPost2010PropOp40
 70
     1
102
RTVSPost2010Prop41ColorIndex
 90
       18
102
RTVSPost2010Prop41ColorRGB
 90
        0
102
RTVSPost2010PropOp41
 70
     1
102
RTVSPost2010Prop42
 90
       50
102
RTVSPost2010PropOp42
 70
     1
102
RTVSPost2010Prop43
 90
        3
102
RTVSPost2010PropOp43
 70
     1
102
RTVSPost2010Prop44ColorIndex
 90
        5
102
RTVSPost2010Prop44ColorRGB
 90
      255
102
RTVSPost2010PropOp44
 70
     1
102
RTVSPost2010Prop45
280
     0
102
RTVSPost2010PropOp45
 70
     1
102
RTVSPost2010Prop46
 90
       50
102
RTVSPost2010PropOp46
 70
     1
102
RTVSPost2010Prop47
 90
       50
102
RTVSPost2010PropOp47
 70
     1
102
RTVSPost2010Prop48
 90
       50
102
RTVSPost2010PropOp48
 70
     1
102
RTVSPost2010Prop49
280
     0
102
RTVSPost2010PropOp49
 70
     1
102
RTVSPost2010Prop50
 90
       50
102
RTVSPost2010PropOp50
 70
     1
102
RTVSPost2010Prop51ColorIndex
 90
      256
102
RTVSPost2010Prop51ColorRGB
 90
-16777216
102
RTVSPost2010PropOp51
 70
     0
102
RTVSPost2010Prop52
140
1.0
102
RTVSPost2010PropOp52
 70
     0
102
RTVSPost2010Prop53
 90
        2
102
RTVSPost2010PropOp53
 70
     1
102
RTVSPost2010Prop54
  1
strokes_ogs.tif
102
RTVSPost2010PropOp54
 70
     1
102
RTVSPost2010Prop55
280
     0
102
RTVSPost2010PropOp55
 70
     1
102
RTVSPost2010Prop56
140
1.0
102
RTVSPost2010PropOp56
 70
     1
102
RTVSPost2010Prop57
140
1.0
102
RTVSPost2010PropOp57
 70
     1
  0
XRECORD
  5
244
102
{ACAD_REACTORS
330
243
102
}
330
243
100
AcDbXrecord
280
     1
102
RTVSPost2010Prop28
280
     0
102
RTVSPost2010PropOp28
 70
     1
102
RTVSPost2010Prop29
280
     1
102
RTVSPost2010PropOp29
 70
     1
102
RTVSPost2010Prop30
280
     1
102
RTVSPost2010PropOp30
 70
     1
102
RTVSPost2010Prop31
280
     0
102
RTVSPost2010PropOp31
 70
     1
102
RTVSPost2010Prop32
280
     0
102
RTVSPost2010PropOp32
 70
     1
102
RTVSPost2010Prop33
280
     0
102
RTVSPost2010PropOp33
 70
     1
102
RTVSPost2010Prop34
280
     0
102
RTVSPost2010PropOp34
 70
     1
102
RTVSPost2010Prop35
280
     0
102
RTVSPost2010PropOp35
 70
     1
102
RTVSPost2010Prop36
280
     0
102
RTVSPost2010PropOp36
 70
     1
102
RTVSPost2010Prop37
 90
       50
102
RTVSPost2010PropOp37
 70
     1
102
RTVSPost2010Prop38
140
0.0
102
RTVSPost2010PropOp38
 70
     1
102
RTVSPost2010Prop39
140
1.0
102
RTVSPost2010PropOp39
 70
     1
102
RTVSPost2010Prop40
 90
        0
102
RTVSPost2010PropOp40
 70
     1
102
RTVSPost2010Prop41ColorIndex
 90
       18
102
RTVSPost2010Prop41ColorRGB
 90
        0
102
RTVSPost2010PropOp41
 70
     1
102
RTVSPost2010Prop42
 90
       50
102
RTVSPost2010PropOp42
 70
     1
102
RTVSPost2010Prop43
 90
        3
102
RTVSPost2010PropOp43
 70
     1
102
RTVSPost2010Prop44ColorIndex
 90
        5
102
RTVSPost2010Prop44ColorRGB
 90
      255
102
RTVSPost2010PropOp44
 70
     1
102
RTVSPost2010Prop45
280
     0
102
RTVSPost2010PropOp45
 70
     1
102
RTVSPost2010Prop46
 90
       50
102
RTVSPost2010PropOp46
 70
     1
102
RTVSPost2010Prop47
 90
       50
102
RTVSPost2010PropOp47
 70
     1
102
RTVSPost2010Prop48
 90
       50
102
RTVSPost2010PropOp48
 70
     1
102
RTVSPost2010Prop49
280
     0
102
RTVSPost2010PropOp49
 70
     1
102
RTVSPost2010Prop50
 90
       50
102
RTVSPost2010PropOp50
 70
     1
102
RTVSPost2010Prop51ColorIndex
 90
      256
102
RTVSPost2010Prop51ColorRGB
 90
-16777216
102
RTVSPost2010PropOp51
 70
     0
102
RTVSPost2010Prop52
140
1.0
102
RTVSPost2010PropOp52
 70
     0
102
RTVSPost2010Prop53
 90
        2
102
RTVSPost2010PropOp53
 70
     1
102
RTVSPost2010Prop54
  1
strokes_ogs.tif
102
RTVSPost2010PropOp54
 70
     1
102
RTVSPost2010Prop55
280
     0
102
RTVSPost2010PropOp55
 70
     1
102
RTVSPost2010Prop56
140
1.0
102
RTVSPost2010PropOp56
 70
     1
102
RTVSPost2010Prop57
140
1.0
102
RTVSPost2010PropOp57
 70
     1
  0
XRECORD
  5
238
102
{ACAD_REACTORS
330
237
102
}
330
237
100
AcDbXrecord
280
     1
102
RTVSPost2010Prop28
280
     0
102
RTVSPost2010PropOp28
 70
     1
102
RTVSPost2010Prop29
280
     1
102
RTVSPost2010PropOp29
 70
     1
102
RTVSPost2010Prop30
280
     1
102
RTVSPost2010PropOp30
 70
     1
102
RTVSPost2010Prop31
280
     0
102
RTVSPost2010PropOp31
 70
     1
102
RTVSPost2010Prop32
280
     0
102
RTVSPost2010PropOp32
 70
     1
102
RTVSPost2010Prop33
280
     0
102
RTVSPost2010PropOp33
 70
     1
102
RTVSPost2010Prop34
280
     0
102
RTVSPost2010PropOp34
 70
     1
102
RTVSPost2010Prop35
280
     0
102
RTVSPost2010PropOp35
 70
     1
102
RTVSPost2010Prop36
280
     0
102
RTVSPost2010PropOp36
 70
     1
102
RTVSPost2010Prop37
 90
       50
102
RTVSPost2010PropOp37
 70
     1
102
RTVSPost2010Prop38
140
0.0
102
RTVSPost2010PropOp38
 70
     1
102
RTVSPost2010Prop39
140
1.0
102
RTVSPost2010PropOp39
 70
     1
102
RTVSPost2010Prop40
 90
        0
102
RTVSPost2010PropOp40
 70
     1
102
RTVSPost2010Prop41ColorIndex
 90
       18
102
RTVSPost2010Prop41ColorRGB
 90
        0
102
RTVSPost2010PropOp41
 70
     1
102
RTVSPost2010Prop42
 90
       50
102
RTVSPost2010PropOp42
 70
     1
102
RTVSPost2010Prop43
 90
        3
102
RTVSPost2010PropOp43
 70
     1
102
RTVSPost2010Prop44ColorIndex
 90
        5
102
RTVSPost2010Prop44ColorRGB
 90
      255
102
RTVSPost2010PropOp44
 70
     1
102
RTVSPost2010Prop45
280
     0
102
RTVSPost2010PropOp45
 70
     1
102
RTVSPost2010Prop46
 90
       50
102
RTVSPost2010PropOp46
 70
     1
102
RTVSPost2010Prop47
 90
       50
102
RTVSPost2010PropOp47
 70
     1
102
RTVSPost2010Prop48
 90
       50
102
RTVSPost2010PropOp48
 70
     1
102
RTVSPost2010Prop49
280
     0
102
RTVSPost2010PropOp49
 70
     1
102
RTVSPost2010Prop50
 90
       50
102
RTVSPost2010PropOp50
 70
     1
102
RTVSPost2010Prop51ColorIndex
 90
      256
102
RTVSPost2010Prop51ColorRGB
 90
-16777216
102
RTVSPost2010PropOp51
 70
     0
102
RTVSPost2010Prop52
140
1.0
102
RTVSPost2010PropOp52
 70
     0
102
RTVSPost2010Prop53
 90
        2
102
RTVSPost2010PropOp53
 70
     1
102
RTVSPost2010Prop54
  1
strokes_ogs.tif
102
RTVSPost2010PropOp54
 70
     1
102
RTVSPost2010Prop55
280
     0
102
RTVSPost2010PropOp55
 70
     1
102
RTVSPost2010Prop56
140
1.0
102
RTVSPost2010PropOp56
 70
     1
102
RTVSPost2010Prop57
140
1.0
102
RTVSPost2010PropOp57
 70
     1
  0
XRECORD
  5
23A
102
{ACAD_REACTORS
330
239
102
}
330
239
100
AcDbXrecord
280
     1
102
RTVSPost2010Prop28
280
     0
102
RTVSPost2010PropOp28
 70
     1
102
RTVSPost2010Prop29
280
     1
102
RTVSPost2010PropOp29
 70
     1
102
RTVSPost2010Prop30
280
     1
102
RTVSPost2010PropOp30
 70
     1
102
RTVSPost2010Prop31
280
     0
102
RTVSPost2010PropOp31
 70
     1
102
RTVSPost2010Prop32
280
     0
102
RTVSPost2010PropOp32
 70
     1
102
RTVSPost2010Prop33
280
     0
102
RTVSPost2010PropOp33
 70
     1
102
RTVSPost2010Prop34
280
     0
102
RTVSPost2010PropOp34
 70
     1
102
RTVSPost2010Prop35
280
     0
102
RTVSPost2010PropOp35
 70
     1
102
RTVSPost2010Prop36
280
     0
102
RTVSPost2010PropOp36
 70
     1
102
RTVSPost2010Prop37
 90
       50
102
RTVSPost2010PropOp37
 70
     1
102
RTVSPost2010Prop38
140
0.0
102
RTVSPost2010PropOp38
 70
     1
102
RTVSPost2010Prop39
140
1.0
102
RTVSPost2010PropOp39
 70
     1
102
RTVSPost2010Prop40
 90
        0
102
RTVSPost2010PropOp40
 70
     1
102
RTVSPost2010Prop41ColorIndex
 90
       18
102
RTVSPost2010Prop41ColorRGB
 90
        0
102
RTVSPost2010PropOp41
 70
     1
102
RTVSPost2010Prop42
 90
       50
102
RTVSPost2010PropOp42
 70
     1
102
RTVSPost2010Prop43
 90
        3
102
RTVSPost2010PropOp43
 70
     1
102
RTVSPost2010Prop44ColorIndex
 90
        5
102
RTVSPost2010Prop44ColorRGB
 90
      255
102
RTVSPost2010PropOp44
 70
     1
102
RTVSPost2010Prop45
280
     0
102
RTVSPost2010PropOp45
 70
     1
102
RTVSPost2010Prop46
 90
       50
102
RTVSPost2010PropOp46
 70
     1
102
RTVSPost2010Prop47
 90
       50
102
RTVSPost2010PropOp47
 70
     1
102
RTVSPost2010Prop48
 90
       50
102
RTVSPost2010PropOp48
 70
     1
102
RTVSPost2010Prop49
280
     0
102
RTVSPost2010PropOp49
 70
     1
102
RTVSPost2010Prop50
 90
       50
102
RTVSPost2010PropOp50
 70
     1
102
RTVSPost2010Prop51ColorIndex
 90
      256
102
RTVSPost2010Prop51ColorRGB
 90
-16777216
102
RTVSPost2010PropOp51
 70
     0
102
RTVSPost2010Prop52
140
1.0
102
RTVSPost2010PropOp52
 70
     0
102
RTVSPost2010Prop53
 90
        2
102
RTVSPost2010PropOp53
 70
     1
102
RTVSPost2010Prop54
  1
strokes_ogs.tif
102
RTVSPost2010PropOp54
 70
     1
102
RTVSPost2010Prop55
280
     0
102
RTVSPost2010PropOp55
 70
     1
102
RTVSPost2010Prop56
140
1.0
102
RTVSPost2010PropOp56
 70
     1
102
RTVSPost2010Prop57
140
1.0
102
RTVSPost2010PropOp57
 70
     1
  0
XRECORD
  5
24A
102
{ACAD_REACTORS
330
249
102
}
330
249
100
AcDbXrecord
280
     1
102
RTVSPost2010Prop28
280
     0
102
RTVSPost2010PropOp28
 70
     0
102
RTVSPost2010Prop29
280
     1
102
RTVSPost2010PropOp29
 70
     0
102
RTVSPost2010Prop30
280
     1
102
RTVSPost2010PropOp30
 70
     0
102
RTVSPost2010Prop31
280
     0
102
RTVSPost2010PropOp31
 70
     0
102
RTVSPost2010Prop32
280
     0
102
RTVSPost2010PropOp32
 70
     0
102
RTVSPost2010Prop33
280
     0
102
RTVSPost2010PropOp33
 70
     0
102
RTVSPost2010Prop34
280
     0
102
RTVSPost2010PropOp34
 70
     0
102
RTVSPost2010Prop35
280
     0
102
RTVSPost2010PropOp35
 70
     0
102
RTVSPost2010Prop36
280
     0
102
RTVSPost2010PropOp36
 70
     0
102
RTVSPost2010Prop37
 90
       50
102
RTVSPost2010PropOp37
 70
     0
102
RTVSPost2010Prop38
140
0.0
102
RTVSPost2010PropOp38
 70
     0
102
RTVSPost2010Prop39
140
1.0
102
RTVSPost2010PropOp39
 70
     0
102
RTVSPost2010Prop40
 90
        0
102
RTVSPost2010PropOp40
 70
     0
102
RTVSPost2010Prop41ColorIndex
 90
       18
102
RTVSPost2010Prop41ColorRGB
 90
        0
102
RTVSPost2010PropOp41
 70
     0
102
RTVSPost2010Prop42
 90
       50
102
RTVSPost2010PropOp42
 70
     0
102
RTVSPost2010Prop43
 90
        3
102
RTVSPost2010PropOp43
 70
     0
102
RTVSPost2010Prop44ColorIndex
 90
        5
102
RTVSPost2010Prop44ColorRGB
 90
      255
102
RTVSPost2010PropOp44
 70
     0
102
RTVSPost2010Prop45
280
     0
102
RTVSPost2010PropOp45
 70
     0
102
RTVSPost2010Prop46
 90
       50
102
RTVSPost2010PropOp46
 70
     0
102
RTVSPost2010Prop47
 90
       50
102
RTVSPost2010PropOp47
 70
     0
102
RTVSPost2010Prop48
 90
       50
102
RTVSPost2010PropOp48
 70
     0
102
RTVSPost2010Prop49
280
     0
102
RTVSPost2010PropOp49
 70
     0
102
RTVSPost2010Prop50
 90
       50
102
RTVSPost2010PropOp50
 70
     0
102
RTVSPost2010Prop51ColorIndex
 90
      256
102
RTVSPost2010Prop51ColorRGB
 90
-16777216
102
RTVSPost2010PropOp51
 70
     0
102
RTVSPost2010Prop52
140
1.0
102
RTVSPost2010PropOp52
 70
     0
102
RTVSPost2010Prop53
 90
        2
102
RTVSPost2010PropOp53
 70
     0
102
RTVSPost2010Prop54
  1
strokes_ogs.tif
102
RTVSPost2010PropOp54
 70
     0
102
RTVSPost2010Prop55
280
     0
102
RTVSPost2010PropOp55
 70
     0
102
RTVSPost2010Prop56
140
1.0
102
RTVSPost2010PropOp56
 70
     0
102
RTVSPost2010Prop57
140
1.0
102
RTVSPost2010PropOp57
 70
     0
  0
XRECORD
  5
242
102
{ACAD_REACTORS
330
241
102
}
330
241
100
AcDbXrecord
280
     1
102
RTVSPost2010Prop28
280
     0
102
RTVSPost2010PropOp28
 70
     1
102
RTVSPost2010Prop29
280
     1
102
RTVSPost2010PropOp29
 70
     1
102
RTVSPost2010Prop30
280
     1
102
RTVSPost2010PropOp30
 70
     1
102
RTVSPost2010Prop31
280
     0
102
RTVSPost2010PropOp31
 70
     1
102
RTVSPost2010Prop32
280
     0
102
RTVSPost2010PropOp32
 70
     1
102
RTVSPost2010Prop33
280
     0
102
RTVSPost2010PropOp33
 70
     1
102
RTVSPost2010Prop34
280
     0
102
RTVSPost2010PropOp34
 70
     1
102
RTVSPost2010Prop35
280
     0
102
RTVSPost2010PropOp35
 70
     1
102
RTVSPost2010Prop36
280
     0
102
RTVSPost2010PropOp36
 70
     1
102
RTVSPost2010Prop37
 90
       50
102
RTVSPost2010PropOp37
 70
     1
102
RTVSPost2010Prop38
140
0.0
102
RTVSPost2010PropOp38
 70
     1
102
RTVSPost2010Prop39
140
1.0
102
RTVSPost2010PropOp39
 70
     1
102
RTVSPost2010Prop40
 90
        0
102
RTVSPost2010PropOp40
 70
     1
102
RTVSPost2010Prop41ColorIndex
 90
       18
102
RTVSPost2010Prop41ColorRGB
 90
        0
102
RTVSPost2010PropOp41
 70
     1
102
RTVSPost2010Prop42
 90
       50
102
RTVSPost2010PropOp42
 70
     1
102
RTVSPost2010Prop43
 90
        3
102
RTVSPost2010PropOp43
 70
     1
102
RTVSPost2010Prop44ColorIndex
 90
        5
102
RTVSPost2010Prop44ColorRGB
 90
      255
102
RTVSPost2010PropOp44
 70
     1
102
RTVSPost2010Prop45
280
     0
102
RTVSPost2010PropOp45
 70
     1
102
RTVSPost2010Prop46
 90
       50
102
RTVSPost2010PropOp46
 70
     1
102
RTVSPost2010Prop47
 90
       50
102
RTVSPost2010PropOp47
 70
     1
102
RTVSPost2010Prop48
 90
       50
102
RTVSPost2010PropOp48
 70
     1
102
RTVSPost2010Prop49
280
     0
102
RTVSPost2010PropOp49
 70
     1
102
RTVSPost2010Prop50
 90
       50
102
RTVSPost2010PropOp50
 70
     1
102
RTVSPost2010Prop51ColorIndex
 90
      256
102
RTVSPost2010Prop51ColorRGB
 90
-16777216
102
RTVSPost2010PropOp51
 70
     0
102
RTVSPost2010Prop52
140
1.0
102
RTVSPost2010PropOp52
 70
     0
102
RTVSPost2010Prop53
 90
        2
102
RTVSPost2010PropOp53
 70
     1
102
RTVSPost2010Prop54
  1
strokes_ogs.tif
102
RTVSPost2010PropOp54
 70
     1
102
RTVSPost2010Prop55
280
     0
102
RTVSPost2010PropOp55
 70
     1
102
RTVSPost2010Prop56
140
1.0
102
RTVSPost2010PropOp56
 70
     1
102
RTVSPost2010Prop57
140
1.0
102
RTVSPost2010PropOp57
 70
     1
  0
XRECORD
  5
226
102
{ACAD_REACTORS
330
225
102
}
330
225
100
AcDbXrecord
280
     1
102
RTVSPost2010Prop28
280
     0
102
RTVSPost2010PropOp28
 70
     1
102
RTVSPost2010Prop29
280
     1
102
RTVSPost2010PropOp29
 70
     1
102
RTVSPost2010Prop30
280
     1
102
RTVSPost2010PropOp30
 70
     1
102
RTVSPost2010Prop31
280
     0
102
RTVSPost2010PropOp31
 70
     1
102
RTVSPost2010Prop32
280
     0
102
RTVSPost2010PropOp32
 70
     1
102
RTVSPost2010Prop33
280
     0
102
RTVSPost2010PropOp33
 70
     1
102
RTVSPost2010Prop34
280
     0
102
RTVSPost2010PropOp34
 70
     1
102
RTVSPost2010Prop35
280
     0
102
RTVSPost2010PropOp35
 70
     1
102
RTVSPost2010Prop36
280
     0
102
RTVSPost2010PropOp36
 70
     1
102
RTVSPost2010Prop37
 90
       50
102
RTVSPost2010PropOp37
 70
     1
102
RTVSPost2010Prop38
140
0.0
102
RTVSPost2010PropOp38
 70
     1
102
RTVSPost2010Prop39
140
1.0
102
RTVSPost2010PropOp39
 70
     1
102
RTVSPost2010Prop40
 90
        0
102
RTVSPost2010PropOp40
 70
     1
102
RTVSPost2010Prop41ColorIndex
 90
       18
102
RTVSPost2010Prop41ColorRGB
 90
        0
102
RTVSPost2010PropOp41
 70
     1
102
RTVSPost2010Prop42
 90
       50
102
RTVSPost2010PropOp42
 70
     1
102
RTVSPost2010Prop43
 90
        3
102
RTVSPost2010PropOp43
 70
     1
102
RTVSPost2010Prop44ColorIndex
 90
        5
102
RTVSPost2010Prop44ColorRGB
 90
      255
102
RTVSPost2010PropOp44
 70
     1
102
RTVSPost2010Prop45
280
     0
102
RTVSPost2010PropOp45
 70
     1
102
RTVSPost2010Prop46
 90
       50
102
RTVSPost2010PropOp46
 70
     1
102
RTVSPost2010Prop47
 90
       50
102
RTVSPost2010PropOp47
 70
     1
102
RTVSPost2010Prop48
 90
       50
102
RTVSPost2010PropOp48
 70
     1
102
RTVSPost2010Prop49
280
     0
102
RTVSPost2010PropOp49
 70
     1
102
RTVSPost2010Prop50
 90
       50
102
RTVSPost2010PropOp50
 70
     1
102
RTVSPost2010Prop51ColorIndex
 90
      256
102
RTVSPost2010Prop51ColorRGB
 90
-16777216
102
RTVSPost2010PropOp51
 70
     0
102
RTVSPost2010Prop52
140
1.0
102
RTVSPost2010PropOp52
 70
     0
102
RTVSPost2010Prop53
 90
        2
102
RTVSPost2010PropOp53
 70
     1
102
RTVSPost2010Prop54
  1
strokes_ogs.tif
102
RTVSPost2010PropOp54
 70
     1
102
RTVSPost2010Prop55
280
     0
102
RTVSPost2010PropOp55
 70
     1
102
RTVSPost2010Prop56
140
1.0
102
RTVSPost2010PropOp56
 70
     1
102
RTVSPost2010Prop57
140
1.0
102
RTVSPost2010PropOp57
 70
     1
  0
XRECORD
  5
228
102
{ACAD_REACTORS
330
227
102
}
330
227
100
AcDbXrecord
280
     1
102
RTVSPost2010Prop28
280
     0
102
RTVSPost2010PropOp28
 70
     1
102
RTVSPost2010Prop29
280
     1
102
RTVSPost2010PropOp29
 70
     1
102
RTVSPost2010Prop30
280
     1
102
RTVSPost2010PropOp30
 70
     1
102
RTVSPost2010Prop31
280
     0
102
RTVSPost2010PropOp31
 70
     1
102
RTVSPost2010Prop32
280
     0
102
RTVSPost2010PropOp32
 70
     1
102
RTVSPost2010Prop33
280
     0
102
RTVSPost2010PropOp33
 70
     1
102
RTVSPost2010Prop34
280
     0
102
RTVSPost2010PropOp34
 70
     1
102
RTVSPost2010Prop35
280
     0
102
RTVSPost2010PropOp35
 70
     1
102
RTVSPost2010Prop36
280
     0
102
RTVSPost2010PropOp36
 70
     1
102
RTVSPost2010Prop37
 90
       50
102
RTVSPost2010PropOp37
 70
     1
102
RTVSPost2010Prop38
140
0.0
102
RTVSPost2010PropOp38
 70
     1
102
RTVSPost2010Prop39
140
1.0
102
RTVSPost2010PropOp39
 70
     1
102
RTVSPost2010Prop40
 90
        0
102
RTVSPost2010PropOp40
 70
     1
102
RTVSPost2010Prop41ColorIndex
 90
       18
102
RTVSPost2010Prop41ColorRGB
 90
        0
102
RTVSPost2010PropOp41
 70
     1
102
RTVSPost2010Prop42
 90
       50
102
RTVSPost2010PropOp42
 70
     1
102
RTVSPost2010Prop43
 90
        3
102
RTVSPost2010PropOp43
 70
     1
102
RTVSPost2010Prop44ColorIndex
 90
        5
102
RTVSPost2010Prop44ColorRGB
 90
      255
102
RTVSPost2010PropOp44
 70
     1
102
RTVSPost2010Prop45
280
     0
102
RTVSPost2010PropOp45
 70
     1
102
RTVSPost2010Prop46
 90
       50
102
RTVSPost2010PropOp46
 70
     1
102
RTVSPost2010Prop47
 90
       50
102
RTVSPost2010PropOp47
 70
     1
102
RTVSPost2010Prop48
 90
       50
102
RTVSPost2010PropOp48
 70
     1
102
RTVSPost2010Prop49
280
     0
102
RTVSPost2010PropOp49
 70
     1
102
RTVSPost2010Prop50
 90
       50
102
RTVSPost2010PropOp50
 70
     1
102
RTVSPost2010Prop51ColorIndex
 90
      256
102
RTVSPost2010Prop51ColorRGB
 90
-16777216
102
RTVSPost2010PropOp51
 70
     0
102
RTVSPost2010Prop52
140
1.0
102
RTVSPost2010PropOp52
 70
     0
102
RTVSPost2010Prop53
 90
        2
102
RTVSPost2010PropOp53
 70
     1
102
RTVSPost2010Prop54
  1
strokes_ogs.tif
102
RTVSPost2010PropOp54
 70
     1
102
RTVSPost2010Prop55
280
     0
102
RTVSPost2010PropOp55
 70
     1
102
RTVSPost2010Prop56
140
1.0
102
RTVSPost2010PropOp56
 70
     1
102
RTVSPost2010Prop57
140
1.0
102
RTVSPost2010PropOp57
 70
     1
  0
XRECORD
  5
22A
102
{ACAD_REACTORS
330
229
102
}
330
229
100
AcDbXrecord
280
     1
102
RTVSPost2010Prop28
280
     0
102
RTVSPost2010PropOp28
 70
     1
102
RTVSPost2010Prop29
280
     1
102
RTVSPost2010PropOp29
 70
     1
102
RTVSPost2010Prop30
280
     1
102
RTVSPost2010PropOp30
 70
     1
102
RTVSPost2010Prop31
280
     0
102
RTVSPost2010PropOp31
 70
     1
102
RTVSPost2010Prop32
280
     0
102
RTVSPost2010PropOp32
 70
     1
102
RTVSPost2010Prop33
280
     0
102
RTVSPost2010PropOp33
 70
     1
102
RTVSPost2010Prop34
280
     0
102
RTVSPost2010PropOp34
 70
     1
102
RTVSPost2010Prop35
280
     0
102
RTVSPost2010PropOp35
 70
     1
102
RTVSPost2010Prop36
280
     0
102
RTVSPost2010PropOp36
 70
     1
102
RTVSPost2010Prop37
 90
       50
102
RTVSPost2010PropOp37
 70
     1
102
RTVSPost2010Prop38
140
0.0
102
RTVSPost2010PropOp38
 70
     1
102
RTVSPost2010Prop39
140
1.0
102
RTVSPost2010PropOp39
 70
     1
102
RTVSPost2010Prop40
 90
        0
102
RTVSPost2010PropOp40
 70
     1
102
RTVSPost2010Prop41ColorIndex
 90
       18
102
RTVSPost2010Prop41ColorRGB
 90
        0
102
RTVSPost2010PropOp41
 70
     1
102
RTVSPost2010Prop42
 90
       50
102
RTVSPost2010PropOp42
 70
     1
102
RTVSPost2010Prop43
 90
        3
102
RTVSPost2010PropOp43
 70
     1
102
RTVSPost2010Prop44ColorIndex
 90
        5
102
RTVSPost2010Prop44ColorRGB
 90
      255
102
RTVSPost2010PropOp44
 70
     1
102
RTVSPost2010Prop45
280
     0
102
RTVSPost2010PropOp45
 70
     1
102
RTVSPost2010Prop46
 90
       50
102
RTVSPost2010PropOp46
 70
     1
102
RTVSPost2010Prop47
 90
       50
102
RTVSPost2010PropOp47
 70
     1
102
RTVSPost2010Prop48
 90
       50
102
RTVSPost2010PropOp48
 70
     1
102
RTVSPost2010Prop49
280
     0
102
RTVSPost2010PropOp49
 70
     1
102
RTVSPost2010Prop50
 90
       50
102
RTVSPost2010PropOp50
 70
     1
102
RTVSPost2010Prop51ColorIndex
 90
      256
102
RTVSPost2010Prop51ColorRGB
 90
-16777216
102
RTVSPost2010PropOp51
 70
     0
102
RTVSPost2010Prop52
140
1.0
102
RTVSPost2010PropOp52
 70
     0
102
RTVSPost2010Prop53
 90
        2
102
RTVSPost2010PropOp53
 70
     1
102
RTVSPost2010Prop54
  1
strokes_ogs.tif
102
RTVSPost2010PropOp54
 70
     1
102
RTVSPost2010Prop55
280
     0
102
RTVSPost2010PropOp55
 70
     1
102
RTVSPost2010Prop56
140
1.0
102
RTVSPost2010PropOp56
 70
     1
102
RTVSPost2010Prop57
140
1.0
102
RTVSPost2010PropOp57
 70
     1
  0
XRECORD
  5
22C
102
{ACAD_REACTORS
330
22B
102
}
330
22B
100
AcDbXrecord
280
     1
102
RTVSPost2010Prop28
280
     0
102
RTVSPost2010PropOp28
 70
     1
102
RTVSPost2010Prop29
280
     1
102
RTVSPost2010PropOp29
 70
     1
102
RTVSPost2010Prop30
280
     1
102
RTVSPost2010PropOp30
 70
     1
102
RTVSPost2010Prop31
280
     0
102
RTVSPost2010PropOp31
 70
     1
102
RTVSPost2010Prop32
280
     0
102
RTVSPost2010PropOp32
 70
     1
102
RTVSPost2010Prop33
280
     0
102
RTVSPost2010PropOp33
 70
     1
102
RTVSPost2010Prop34
280
     0
102
RTVSPost2010PropOp34
 70
     1
102
RTVSPost2010Prop35
280
     0
102
RTVSPost2010PropOp35
 70
     1
102
RTVSPost2010Prop36
280
     0
102
RTVSPost2010PropOp36
 70
     1
102
RTVSPost2010Prop37
 90
       50
102
RTVSPost2010PropOp37
 70
     1
102
RTVSPost2010Prop38
140
0.0
102
RTVSPost2010PropOp38
 70
     1
102
RTVSPost2010Prop39
140
1.0
102
RTVSPost2010PropOp39
 70
     1
102
RTVSPost2010Prop40
 90
        0
102
RTVSPost2010PropOp40
 70
     1
102
RTVSPost2010Prop41ColorIndex
 90
       18
102
RTVSPost2010Prop41ColorRGB
 90
        0
102
RTVSPost2010PropOp41
 70
     1
102
RTVSPost2010Prop42
 90
       50
102
RTVSPost2010PropOp42
 70
     1
102
RTVSPost2010Prop43
 90
        3
102
RTVSPost2010PropOp43
 70
     1
102
RTVSPost2010Prop44ColorIndex
 90
        5
102
RTVSPost2010Prop44ColorRGB
 90
      255
102
RTVSPost2010PropOp44
 70
     1
102
RTVSPost2010Prop45
280
     0
102
RTVSPost2010PropOp45
 70
     1
102
RTVSPost2010Prop46
 90
       50
102
RTVSPost2010PropOp46
 70
     1
102
RTVSPost2010Prop47
 90
       50
102
RTVSPost2010PropOp47
 70
     1
102
RTVSPost2010Prop48
 90
       50
102
RTVSPost2010PropOp48
 70
     1
102
RTVSPost2010Prop49
280
     0
102
RTVSPost2010PropOp49
 70
     1
102
RTVSPost2010Prop50
 90
       50
102
RTVSPost2010PropOp50
 70
     1
102
RTVSPost2010Prop51ColorIndex
 90
      256
102
RTVSPost2010Prop51ColorRGB
 90
-16777216
102
RTVSPost2010PropOp51
 70
     0
102
RTVSPost2010Prop52
140
1.0
102
RTVSPost2010PropOp52
 70
     0
102
RTVSPost2010Prop53
 90
        2
102
RTVSPost2010PropOp53
 70
     1
102
RTVSPost2010Prop54
  1
strokes_ogs.tif
102
RTVSPost2010PropOp54
 70
     1
102
RTVSPost2010Prop55
280
     0
102
RTVSPost2010PropOp55
 70
     1
102
RTVSPost2010Prop56
140
1.0
102
RTVSPost2010PropOp56
 70
     1
102
RTVSPost2010Prop57
140
1.0
102
RTVSPost2010PropOp57
 70
     1
  0
XRECORD
  5
232
102
{ACAD_REACTORS
330
231
102
}
330
231
100
AcDbXrecord
280
     1
102
RTVSPost2010Prop28
280
     0
102
RTVSPost2010PropOp28
 70
     1
102
RTVSPost2010Prop29
280
     1
102
RTVSPost2010PropOp29
 70
     1
102
RTVSPost2010Prop30
280
     1
102
RTVSPost2010PropOp30
 70
     1
102
RTVSPost2010Prop31
280
     0
102
RTVSPost2010PropOp31
 70
     1
102
RTVSPost2010Prop32
280
     0
102
RTVSPost2010PropOp32
 70
     1
102
RTVSPost2010Prop33
280
     0
102
RTVSPost2010PropOp33
 70
     1
102
RTVSPost2010Prop34
280
     0
102
RTVSPost2010PropOp34
 70
     1
102
RTVSPost2010Prop35
280
     0
102
RTVSPost2010PropOp35
 70
     1
102
RTVSPost2010Prop36
280
     0
102
RTVSPost2010PropOp36
 70
     1
102
RTVSPost2010Prop37
 90
       50
102
RTVSPost2010PropOp37
 70
     1
102
RTVSPost2010Prop38
140
0.0
102
RTVSPost2010PropOp38
 70
     1
102
RTVSPost2010Prop39
140
1.0
102
RTVSPost2010PropOp39
 70
     1
102
RTVSPost2010Prop40
 90
        0
102
RTVSPost2010PropOp40
 70
     1
102
RTVSPost2010Prop41ColorIndex
 90
       18
102
RTVSPost2010Prop41ColorRGB
 90
        0
102
RTVSPost2010PropOp41
 70
     1
102
RTVSPost2010Prop42
 90
       50
102
RTVSPost2010PropOp42
 70
     1
102
RTVSPost2010Prop43
 90
        3
102
RTVSPost2010PropOp43
 70
     1
102
RTVSPost2010Prop44ColorIndex
 90
        5
102
RTVSPost2010Prop44ColorRGB
 90
      255
102
RTVSPost2010PropOp44
 70
     1
102
RTVSPost2010Prop45
280
     0
102
RTVSPost2010PropOp45
 70
     1
102
RTVSPost2010Prop46
 90
       50
102
RTVSPost2010PropOp46
 70
     1
102
RTVSPost2010Prop47
 90
       50
102
RTVSPost2010PropOp47
 70
     1
102
RTVSPost2010Prop48
 90
       50
102
RTVSPost2010PropOp48
 70
     1
102
RTVSPost2010Prop49
280
     0
102
RTVSPost2010PropOp49
 70
     1
102
RTVSPost2010Prop50
 90
       50
102
RTVSPost2010PropOp50
 70
     1
102
RTVSPost2010Prop51ColorIndex
 90
      256
102
RTVSPost2010Prop51ColorRGB
 90
-16777216
102
RTVSPost2010PropOp51
 70
     0
102
RTVSPost2010Prop52
140
1.0
102
RTVSPost2010PropOp52
 70
     0
102
RTVSPost2010Prop53
 90
        2
102
RTVSPost2010PropOp53
 70
     1
102
RTVSPost2010Prop54
  1
strokes_ogs.tif
102
RTVSPost2010PropOp54
 70
     1
102
RTVSPost2010Prop55
280
     0
102
RTVSPost2010PropOp55
 70
     1
102
RTVSPost2010Prop56
140
1.0
102
RTVSPost2010PropOp56
 70
     1
102
RTVSPost2010Prop57
140
1.0
102
RTVSPost2010PropOp57
 70
     1
  0
XRECORD
  5
246
102
{ACAD_REACTORS
330
245
102
}
330
245
100
AcDbXrecord
280
     1
102
RTVSPost2010Prop28
280
     0
102
RTVSPost2010PropOp28
 70
     0
102
RTVSPost2010Prop29
280
     1
102
RTVSPost2010PropOp29
 70
     0
102
RTVSPost2010Prop30
280
     1
102
RTVSPost2010PropOp30
 70
     0
102
RTVSPost2010Prop31
280
     0
102
RTVSPost2010PropOp31
 70
     0
102
RTVSPost2010Prop32
280
     0
102
RTVSPost2010PropOp32
 70
     0
102
RTVSPost2010Prop33
280
     0
102
RTVSPost2010PropOp33
 70
     0
102
RTVSPost2010Prop34
280
     0
102
RTVSPost2010PropOp34
 70
     0
102
RTVSPost2010Prop35
280
     0
102
RTVSPost2010PropOp35
 70
     0
102
RTVSPost2010Prop36
280
     0
102
RTVSPost2010PropOp36
 70
     0
102
RTVSPost2010Prop37
 90
       50
102
RTVSPost2010PropOp37
 70
     0
102
RTVSPost2010Prop38
140
0.0
102
RTVSPost2010PropOp38
 70
     0
102
RTVSPost2010Prop39
140
1.0
102
RTVSPost2010PropOp39
 70
     0
102
RTVSPost2010Prop40
 90
        0
102
RTVSPost2010PropOp40
 70
     0
102
RTVSPost2010Prop41ColorIndex
 90
       18
102
RTVSPost2010Prop41ColorRGB
 90
        0
102
RTVSPost2010PropOp41
 70
     0
102
RTVSPost2010Prop42
 90
       50
102
RTVSPost2010PropOp42
 70
     0
102
RTVSPost2010Prop43
 90
        3
102
RTVSPost2010PropOp43
 70
     0
102
RTVSPost2010Prop44ColorIndex
 90
        5
102
RTVSPost2010Prop44ColorRGB
 90
      255
102
RTVSPost2010PropOp44
 70
     0
102
RTVSPost2010Prop45
280
     0
102
RTVSPost2010PropOp45
 70
     0
102
RTVSPost2010Prop46
 90
       50
102
RTVSPost2010PropOp46
 70
     0
102
RTVSPost2010Prop47
 90
       50
102
RTVSPost2010PropOp47
 70
     0
102
RTVSPost2010Prop48
 90
       50
102
RTVSPost2010PropOp48
 70
     0
102
RTVSPost2010Prop49
280
     0
102
RTVSPost2010PropOp49
 70
     0
102
RTVSPost2010Prop50
 90
       50
102
RTVSPost2010PropOp50
 70
     0
102
RTVSPost2010Prop51ColorIndex
 90
      256
102
RTVSPost2010Prop51ColorRGB
 90
-16777216
102
RTVSPost2010PropOp51
 70
     0
102
RTVSPost2010Prop52
140
1.0
102
RTVSPost2010PropOp52
 70
     0
102
RTVSPost2010Prop53
 90
        2
102
RTVSPost2010PropOp53
 70
     0
102
RTVSPost2010Prop54
  1
strokes_ogs.tif
102
RTVSPost2010PropOp54
 70
     0
102
RTVSPost2010Prop55
280
     0
102
RTVSPost2010PropOp55
 70
     0
102
RTVSPost2010Prop56
140
1.0
102
RTVSPost2010PropOp56
 70
     0
102
RTVSPost2010Prop57
140
1.0
102
RTVSPost2010PropOp57
 70
     0
  0
XRECORD
  5
240
102
{ACAD_REACTORS
330
23F
102
}
330
23F
100
AcDbXrecord
280
     1
102
RTVSPost2010Prop28
280
     0
102
RTVSPost2010PropOp28
 70
     1
102
RTVSPost2010Prop29
280
     1
102
RTVSPost2010PropOp29
 70
     1
102
RTVSPost2010Prop30
280
     1
102
RTVSPost2010PropOp30
 70
     1
102
RTVSPost2010Prop31
280
     0
102
RTVSPost2010PropOp31
 70
     1
102
RTVSPost2010Prop32
280
     0
102
RTVSPost2010PropOp32
 70
     1
102
RTVSPost2010Prop33
280
     0
102
RTVSPost2010PropOp33
 70
     1
102
RTVSPost2010Prop34
280
     0
102
RTVSPost2010PropOp34
 70
     1
102
RTVSPost2010Prop35
280
     0
102
RTVSPost2010PropOp35
 70
     1
102
RTVSPost2010Prop36
280
     0
102
RTVSPost2010PropOp36
 70
     1
102
RTVSPost2010Prop37
 90
       50
102
RTVSPost2010PropOp37
 70
     1
102
RTVSPost2010Prop38
140
0.0
102
RTVSPost2010PropOp38
 70
     1
102
RTVSPost2010Prop39
140
1.0
102
RTVSPost2010PropOp39
 70
     1
102
RTVSPost2010Prop40
 90
        0
102
RTVSPost2010PropOp40
 70
     1
102
RTVSPost2010Prop41ColorIndex
 90
       18
102
RTVSPost2010Prop41ColorRGB
 90
        0
102
RTVSPost2010PropOp41
 70
     1
102
RTVSPost2010Prop42
 90
       50
102
RTVSPost2010PropOp42
 70
     1
102
RTVSPost2010Prop43
 90
        3
102
RTVSPost2010PropOp43
 70
     1
102
RTVSPost2010Prop44ColorIndex
 90
        5
102
RTVSPost2010Prop44ColorRGB
 90
      255
102
RTVSPost2010PropOp44
 70
     1
102
RTVSPost2010Prop45
280
     0
102
RTVSPost2010PropOp45
 70
     1
102
RTVSPost2010Prop46
 90
       50
102
RTVSPost2010PropOp46
 70
     1
102
RTVSPost2010Prop47
 90
       50
102
RTVSPost2010PropOp47
 70
     1
102
RTVSPost2010Prop48
 90
       50
102
RTVSPost2010PropOp48
 70
     1
102
RTVSPost2010Prop49
280
     0
102
RTVSPost2010PropOp49
 70
     1
102
RTVSPost2010Prop50
 90
       50
102
RTVSPost2010PropOp50
 70
     1
102
RTVSPost2010Prop51ColorIndex
 90
      256
102
RTVSPost2010Prop51ColorRGB
 90
-16777216
102
RTVSPost2010PropOp51
 70
     0
102
RTVSPost2010Prop52
140
1.0
102
RTVSPost2010PropOp52
 70
     0
102
RTVSPost2010Prop53
 90
        2
102
RTVSPost2010PropOp53
 70
     1
102
RTVSPost2010Prop54
  1
strokes_ogs.tif
102
RTVSPost2010PropOp54
 70
     1
102
RTVSPost2010Prop55
280
     0
102
RTVSPost2010PropOp55
 70
     1
102
RTVSPost2010Prop56
140
1.0
102
RTVSPost2010PropOp56
 70
     1
102
RTVSPost2010Prop57
140
1.0
102
RTVSPost2010PropOp57
 70
     1
  0
XRECORD
  5
248
102
{ACAD_REACTORS
330
247
102
}
330
247
100
AcDbXrecord
280
     1
102
RTVSPost2010Prop28
280
     0
102
RTVSPost2010PropOp28
 70
     0
102
RTVSPost2010Prop29
280
     1
102
RTVSPost2010PropOp29
 70
     0
102
RTVSPost2010Prop30
280
     1
102
RTVSPost2010PropOp30
 70
     0
102
RTVSPost2010Prop31
280
     0
102
RTVSPost2010PropOp31
 70
     0
102
RTVSPost2010Prop32
280
     0
102
RTVSPost2010PropOp32
 70
     0
102
RTVSPost2010Prop33
280
     0
102
RTVSPost2010PropOp33
 70
     0
102
RTVSPost2010Prop34
280
     0
102
RTVSPost2010PropOp34
 70
     0
102
RTVSPost2010Prop35
280
     0
102
RTVSPost2010PropOp35
 70
     0
102
RTVSPost2010Prop36
280
     0
102
RTVSPost2010PropOp36
 70
     0
102
RTVSPost2010Prop37
 90
       50
102
RTVSPost2010PropOp37
 70
     0
102
RTVSPost2010Prop38
140
0.0
102
RTVSPost2010PropOp38
 70
     0
102
RTVSPost2010Prop39
140
1.0
102
RTVSPost2010PropOp39
 70
     0
102
RTVSPost2010Prop40
 90
        0
102
RTVSPost2010PropOp40
 70
     0
102
RTVSPost2010Prop41ColorIndex
 90
       18
102
RTVSPost2010Prop41ColorRGB
 90
        0
102
RTVSPost2010PropOp41
 70
     0
102
RTVSPost2010Prop42
 90
       50
102
RTVSPost2010PropOp42
 70
     0
102
RTVSPost2010Prop43
 90
        3
102
RTVSPost2010PropOp43
 70
     0
102
RTVSPost2010Prop44ColorIndex
 90
        5
102
RTVSPost2010Prop44ColorRGB
 90
      255
102
RTVSPost2010PropOp44
 70
     0
102
RTVSPost2010Prop45
280
     0
102
RTVSPost2010PropOp45
 70
     0
102
RTVSPost2010Prop46
 90
       50
102
RTVSPost2010PropOp46
 70
     0
102
RTVSPost2010Prop47
 90
       50
102
RTVSPost2010PropOp47
 70
     0
102
RTVSPost2010Prop48
 90
       50
102
RTVSPost2010PropOp48
 70
     0
102
RTVSPost2010Prop49
280
     0
102
RTVSPost2010PropOp49
 70
     0
102
RTVSPost2010Prop50
 90
       50
102
RTVSPost2010PropOp50
 70
     0
102
RTVSPost2010Prop51ColorIndex
 90
      256
102
RTVSPost2010Prop51ColorRGB
 90
-16777216
102
RTVSPost2010PropOp51
 70
     0
102
RTVSPost2010Prop52
140
1.0
102
RTVSPost2010PropOp52
 70
     0
102
RTVSPost2010Prop53
 90
        2
102
RTVSPost2010PropOp53
 70
     0
102
RTVSPost2010Prop54
  1
strokes_ogs.tif
102
RTVSPost2010PropOp54
 70
     0
102
RTVSPost2010Prop55
280
     0
102
RTVSPost2010PropOp55
 70
     0
102
RTVSPost2010Prop56
140
1.0
102
RTVSPost2010PropOp56
 70
     0
102
RTVSPost2010Prop57
140
1.0
102
RTVSPost2010PropOp57
 70
     0
  0
XRECORD
  5
236
102
{ACAD_REACTORS
330
235
102
}
330
235
100
AcDbXrecord
280
     1
102
RTVSPost2010Prop28
280
     0
102
RTVSPost2010PropOp28
 70
     1
102
RTVSPost2010Prop29
280
     1
102
RTVSPost2010PropOp29
 70
     1
102
RTVSPost2010Prop30
280
     1
102
RTVSPost2010PropOp30
 70
     1
102
RTVSPost2010Prop31
280
     0
102
RTVSPost2010PropOp31
 70
     1
102
RTVSPost2010Prop32
280
     0
102
RTVSPost2010PropOp32
 70
     1
102
RTVSPost2010Prop33
280
     0
102
RTVSPost2010PropOp33
 70
     1
102
RTVSPost2010Prop34
280
     0
102
RTVSPost2010PropOp34
 70
     1
102
RTVSPost2010Prop35
280
     0
102
RTVSPost2010PropOp35
 70
     1
102
RTVSPost2010Prop36
280
     0
102
RTVSPost2010PropOp36
 70
     1
102
RTVSPost2010Prop37
 90
       50
102
RTVSPost2010PropOp37
 70
     1
102
RTVSPost2010Prop38
140
0.0
102
RTVSPost2010PropOp38
 70
     1
102
RTVSPost2010Prop39
140
1.0
102
RTVSPost2010PropOp39
 70
     1
102
RTVSPost2010Prop40
 90
        0
102
RTVSPost2010PropOp40
 70
     1
102
RTVSPost2010Prop41ColorIndex
 90
       18
102
RTVSPost2010Prop41ColorRGB
 90
        0
102
RTVSPost2010PropOp41
 70
     1
102
RTVSPost2010Prop42
 90
       50
102
RTVSPost2010PropOp42
 70
     1
102
RTVSPost2010Prop43
 90
        3
102
RTVSPost2010PropOp43
 70
     1
102
RTVSPost2010Prop44ColorIndex
 90
        5
102
RTVSPost2010Prop44ColorRGB
 90
      255
102
RTVSPost2010PropOp44
 70
     1
102
RTVSPost2010Prop45
280
     0
102
RTVSPost2010PropOp45
 70
     1
102
RTVSPost2010Prop46
 90
       50
102
RTVSPost2010PropOp46
 70
     1
102
RTVSPost2010Prop47
 90
       50
102
RTVSPost2010PropOp47
 70
     1
102
RTVSPost2010Prop48
 90
       50
102
RTVSPost2010PropOp48
 70
     1
102
RTVSPost2010Prop49
280
     0
102
RTVSPost2010PropOp49
 70
     1
102
RTVSPost2010Prop50
 90
       50
102
RTVSPost2010PropOp50
 70
     1
102
RTVSPost2010Prop51ColorIndex
 90
      256
102
RTVSPost2010Prop51ColorRGB
 90
-16777216
102
RTVSPost2010PropOp51
 70
     0
102
RTVSPost2010Prop52
140
1.0
102
RTVSPost2010PropOp52
 70
     0
102
RTVSPost2010Prop53
 90
        2
102
RTVSPost2010PropOp53
 70
     1
102
RTVSPost2010Prop54
  1
strokes_ogs.tif
102
RTVSPost2010PropOp54
 70
     1
102
RTVSPost2010Prop55
280
     0
102
RTVSPost2010PropOp55
 70
     1
102
RTVSPost2010Prop56
140
1.0
102
RTVSPost2010PropOp56
 70
     1
102
RTVSPost2010Prop57
140
1.0
102
RTVSPost2010PropOp57
 70
     1
  0
XRECORD
  5
254
102
{ACAD_REACTORS
330
253
102
}
330
253
100
AcDbXrecord
280
     1
102
RTVSPost2010Prop28
280
     0
102
RTVSPost2010PropOp28
 70
     1
102
RTVSPost2010Prop29
280
     1
102
RTVSPost2010PropOp29
 70
     1
102
RTVSPost2010Prop30
280
     1
102
RTVSPost2010PropOp30
 70
     1
102
RTVSPost2010Prop31
280
     0
102
RTVSPost2010PropOp31
 70
     1
102
RTVSPost2010Prop32
280
     0
102
RTVSPost2010PropOp32
 70
     1
102
RTVSPost2010Prop33
280
     0
102
RTVSPost2010PropOp33
 70
     1
102
RTVSPost2010Prop34
280
     0
102
RTVSPost2010PropOp34
 70
     1
102
RTVSPost2010Prop35
280
     0
102
RTVSPost2010PropOp35
 70
     1
102
RTVSPost2010Prop36
280
     0
102
RTVSPost2010PropOp36
 70
     1
102
RTVSPost2010Prop37
 90
       50
102
RTVSPost2010PropOp37
 70
     1
102
RTVSPost2010Prop38
140
0.0
102
RTVSPost2010PropOp38
 70
     1
102
RTVSPost2010Prop39
140
1.0
102
RTVSPost2010PropOp39
 70
     1
102
RTVSPost2010Prop40
 90
        0
102
RTVSPost2010PropOp40
 70
     1
102
RTVSPost2010Prop41ColorIndex
 90
       18
102
RTVSPost2010Prop41ColorRGB
 90
        0
102
RTVSPost2010PropOp41
 70
     1
102
RTVSPost2010Prop42
 90
       50
102
RTVSPost2010PropOp42
 70
     1
102
RTVSPost2010Prop43
 90
        3
102
RTVSPost2010PropOp43
 70
     1
102
RTVSPost2010Prop44ColorIndex
 90
        5
102
RTVSPost2010Prop44ColorRGB
 90
      255
102
RTVSPost2010PropOp44
 70
     1
102
RTVSPost2010Prop45
280
     0
102
RTVSPost2010PropOp45
 70
     1
102
RTVSPost2010Prop46
 90
       50
102
RTVSPost2010PropOp46
 70
     1
102
RTVSPost2010Prop47
 90
       50
102
RTVSPost2010PropOp47
 70
     1
102
RTVSPost2010Prop48
 90
       50
102
RTVSPost2010PropOp48
 70
     1
102
RTVSPost2010Prop49
280
     0
102
RTVSPost2010PropOp49
 70
     1
102
RTVSPost2010Prop50
 90
       50
102
RTVSPost2010PropOp50
 70
     1
102
RTVSPost2010Prop51ColorIndex
 90
      256
102
RTVSPost2010Prop51ColorRGB
 90
-16777216
102
RTVSPost2010PropOp51
 70
     0
102
RTVSPost2010Prop52
140
1.0
102
RTVSPost2010PropOp52
 70
     0
102
RTVSPost2010Prop53
 90
        2
102
RTVSPost2010PropOp53
 70
     1
102
RTVSPost2010Prop54
  1
strokes_ogs.tif
102
RTVSPost2010PropOp54
 70
     1
102
RTVSPost2010Prop55
280
     0
102
RTVSPost2010PropOp55
 70
     1
102
RTVSPost2010Prop56
140
1.0
102
RTVSPost2010PropOp56
 70
     1
102
RTVSPost2010Prop57
140
1.0
102
RTVSPost2010PropOp57
 70
     1
  0
XRECORD
  5
252
102
{ACAD_REACTORS
330
251
102
}
330
251
100
AcDbXrecord
280
     1
102
RTVSPost2010Prop28
280
     0
102
RTVSPost2010PropOp28
 70
     1
102
RTVSPost2010Prop29
280
     1
102
RTVSPost2010PropOp29
 70
     1
102
RTVSPost2010Prop30
280
     1
102
RTVSPost2010PropOp30
 70
     1
102
RTVSPost2010Prop31
280
     0
102
RTVSPost2010PropOp31
 70
     1
102
RTVSPost2010Prop32
280
     0
102
RTVSPost2010PropOp32
 70
     1
102
RTVSPost2010Prop33
280
     0
102
RTVSPost2010PropOp33
 70
     1
102
RTVSPost2010Prop34
280
     0
102
RTVSPost2010PropOp34
 70
     1
102
RTVSPost2010Prop35
280
     0
102
RTVSPost2010PropOp35
 70
     1
102
RTVSPost2010Prop36
280
     0
102
RTVSPost2010PropOp36
 70
     1
102
RTVSPost2010Prop37
 90
       50
102
RTVSPost2010PropOp37
 70
     1
102
RTVSPost2010Prop38
140
0.0
102
RTVSPost2010PropOp38
 70
     1
102
RTVSPost2010Prop39
140
1.0
102
RTVSPost2010PropOp39
 70
     1
102
RTVSPost2010Prop40
 90
        0
102
RTVSPost2010PropOp40
 70
     1
102
RTVSPost2010Prop41ColorIndex
 90
       18
102
RTVSPost2010Prop41ColorRGB
 90
        0
102
RTVSPost2010PropOp41
 70
     1
102
RTVSPost2010Prop42
 90
       50
102
RTVSPost2010PropOp42
 70
     1
102
RTVSPost2010Prop43
 90
        3
102
RTVSPost2010PropOp43
 70
     1
102
RTVSPost2010Prop44ColorIndex
 90
        5
102
RTVSPost2010Prop44ColorRGB
 90
      255
102
RTVSPost2010PropOp44
 70
     1
102
RTVSPost2010Prop45
280
     0
102
RTVSPost2010PropOp45
 70
     1
102
RTVSPost2010Prop46
 90
       50
102
RTVSPost2010PropOp46
 70
     1
102
RTVSPost2010Prop47
 90
       50
102
RTVSPost2010PropOp47
 70
     1
102
RTVSPost2010Prop48
 90
       50
102
RTVSPost2010PropOp48
 70
     1
102
RTVSPost2010Prop49
280
     0
102
RTVSPost2010PropOp49
 70
     1
102
RTVSPost2010Prop50
 90
       50
102
RTVSPost2010PropOp50
 70
     1
102
RTVSPost2010Prop51ColorIndex
 90
      256
102
RTVSPost2010Prop51ColorRGB
 90
-16777216
102
RTVSPost2010PropOp51
 70
     0
102
RTVSPost2010Prop52
140
1.0
102
RTVSPost2010PropOp52
 70
     0
102
RTVSPost2010Prop53
 90
        2
102
RTVSPost2010PropOp53
 70
     1
102
RTVSPost2010Prop54
  1
strokes_ogs.tif
102
RTVSPost2010PropOp54
 70
     1
102
RTVSPost2010Prop55
280
     0
102
RTVSPost2010PropOp55
 70
     1
102
RTVSPost2010Prop56
140
1.0
102
RTVSPost2010PropOp56
 70
     1
102
RTVSPost2010Prop57
140
1.0
102
RTVSPost2010PropOp57
 70
     1
  0
XRECORD
  5
24C
102
{ACAD_REACTORS
330
24B
102
}
330
24B
100
AcDbXrecord
280
     1
102
RTVSPost2010Prop28
280
     0
102
RTVSPost2010PropOp28
 70
     1
102
RTVSPost2010Prop29
280
     1
102
RTVSPost2010PropOp29
 70
     1
102
RTVSPost2010Prop30
280
     1
102
RTVSPost2010PropOp30
 70
     1
102
RTVSPost2010Prop31
280
     0
102
RTVSPost2010PropOp31
 70
     1
102
RTVSPost2010Prop32
280
     0
102
RTVSPost2010PropOp32
 70
     1
102
RTVSPost2010Prop33
280
     0
102
RTVSPost2010PropOp33
 70
     1
102
RTVSPost2010Prop34
280
     0
102
RTVSPost2010PropOp34
 70
     1
102
RTVSPost2010Prop35
280
     0
102
RTVSPost2010PropOp35
 70
     1
102
RTVSPost2010Prop36
280
     0
102
RTVSPost2010PropOp36
 70
     1
102
RTVSPost2010Prop37
 90
       50
102
RTVSPost2010PropOp37
 70
     1
102
RTVSPost2010Prop38
140
0.0
102
RTVSPost2010PropOp38
 70
     1
102
RTVSPost2010Prop39
140
1.0
102
RTVSPost2010PropOp39
 70
     1
102
RTVSPost2010Prop40
 90
        0
102
RTVSPost2010PropOp40
 70
     1
102
RTVSPost2010Prop41ColorIndex
 90
       18
102
RTVSPost2010Prop41ColorRGB
 90
        0
102
RTVSPost2010PropOp41
 70
     1
102
RTVSPost2010Prop42
 90
       50
102
RTVSPost2010PropOp42
 70
     1
102
RTVSPost2010Prop43
 90
        3
102
RTVSPost2010PropOp43
 70
     1
102
RTVSPost2010Prop44ColorIndex
 90
        5
102
RTVSPost2010Prop44ColorRGB
 90
      255
102
RTVSPost2010PropOp44
 70
     1
102
RTVSPost2010Prop45
280
     0
102
RTVSPost2010PropOp45
 70
     1
102
RTVSPost2010Prop46
 90
       50
102
RTVSPost2010PropOp46
 70
     1
102
RTVSPost2010Prop47
 90
       50
102
RTVSPost2010PropOp47
 70
     1
102
RTVSPost2010Prop48
 90
       50
102
RTVSPost2010PropOp48
 70
     1
102
RTVSPost2010Prop49
280
     0
102
RTVSPost2010PropOp49
 70
     1
102
RTVSPost2010Prop50
 90
       50
102
RTVSPost2010PropOp50
 70
     1
102
RTVSPost2010Prop51ColorIndex
 90
      256
102
RTVSPost2010Prop51ColorRGB
 90
-16777216
102
RTVSPost2010PropOp51
 70
     0
102
RTVSPost2010Prop52
140
1.0
102
RTVSPost2010PropOp52
 70
     0
102
RTVSPost2010Prop53
 90
        2
102
RTVSPost2010PropOp53
 70
     1
102
RTVSPost2010Prop54
  1
strokes_ogs.tif
102
RTVSPost2010PropOp54
 70
     1
102
RTVSPost2010Prop55
280
     0
102
RTVSPost2010PropOp55
 70
     1
102
RTVSPost2010Prop56
140
1.0
102
RTVSPost2010PropOp56
 70
     1
102
RTVSPost2010Prop57
140
1.0
102
RTVSPost2010PropOp57
 70
     1
  0
XRECORD
  5
24E
102
{ACAD_REACTORS
330
24D
102
}
330
24D
100
AcDbXrecord
280
     1
102
RTVSPost2010Prop28
280
     0
102
RTVSPost2010PropOp28
 70
     1
102
RTVSPost2010Prop29
280
     1
102
RTVSPost2010PropOp29
 70
     1
102
RTVSPost2010Prop30
280
     1
102
RTVSPost2010PropOp30
 70
     1
102
RTVSPost2010Prop31
280
     0
102
RTVSPost2010PropOp31
 70
     1
102
RTVSPost2010Prop32
280
     0
102
RTVSPost2010PropOp32
 70
     1
102
RTVSPost2010Prop33
280
     0
102
RTVSPost2010PropOp33
 70
     1
102
RTVSPost2010Prop34
280
     0
102
RTVSPost2010PropOp34
 70
     1
102
RTVSPost2010Prop35
280
     0
102
RTVSPost2010PropOp35
 70
     1
102
RTVSPost2010Prop36
280
     0
102
RTVSPost2010PropOp36
 70
     1
102
RTVSPost2010Prop37
 90
       50
102
RTVSPost2010PropOp37
 70
     1
102
RTVSPost2010Prop38
140
0.0
102
RTVSPost2010PropOp38
 70
     1
102
RTVSPost2010Prop39
140
1.0
102
RTVSPost2010PropOp39
 70
     1
102
RTVSPost2010Prop40
 90
        0
102
RTVSPost2010PropOp40
 70
     1
102
RTVSPost2010Prop41ColorIndex
 90
       18
102
RTVSPost2010Prop41ColorRGB
 90
        0
102
RTVSPost2010PropOp41
 70
     1
102
RTVSPost2010Prop42
 90
       50
102
RTVSPost2010PropOp42
 70
     1
102
RTVSPost2010Prop43
 90
        3
102
RTVSPost2010PropOp43
 70
     1
102
RTVSPost2010Prop44ColorIndex
 90
        5
102
RTVSPost2010Prop44ColorRGB
 90
      255
102
RTVSPost2010PropOp44
 70
     1
102
RTVSPost2010Prop45
280
     0
102
RTVSPost2010PropOp45
 70
     1
102
RTVSPost2010Prop46
 90
       50
102
RTVSPost2010PropOp46
 70
     1
102
RTVSPost2010Prop47
 90
       50
102
RTVSPost2010PropOp47
 70
     1
102
RTVSPost2010Prop48
 90
       50
102
RTVSPost2010PropOp48
 70
     1
102
RTVSPost2010Prop49
280
     0
102
RTVSPost2010PropOp49
 70
     1
102
RTVSPost2010Prop50
 90
       50
102
RTVSPost2010PropOp50
 70
     1
102
RTVSPost2010Prop51ColorIndex
 90
      256
102
RTVSPost2010Prop51ColorRGB
 90
-16777216
102
RTVSPost2010PropOp51
 70
     0
102
RTVSPost2010Prop52
140
1.0
102
RTVSPost2010PropOp52
 70
     0
102
RTVSPost2010Prop53
 90
        2
102
RTVSPost2010PropOp53
 70
     1
102
RTVSPost2010Prop54
  1
strokes_ogs.tif
102
RTVSPost2010PropOp54
 70
     1
102
RTVSPost2010Prop55
280
     0
102
RTVSPost2010PropOp55
 70
     1
102
RTVSPost2010Prop56
140
1.0
102
RTVSPost2010PropOp56
 70
     1
102
RTVSPost2010Prop57
140
1.0
102
RTVSPost2010PropOp57
 70
     1
  0
XRECORD
  5
23E
102
{ACAD_REACTORS
330
23D
102
}
330
23D
100
AcDbXrecord
280
     1
102
RTVSPost2010Prop28
280
     0
102
RTVSPost2010PropOp28
 70
     1
102
RTVSPost2010Prop29
280
     1
102
RTVSPost2010PropOp29
 70
     1
102
RTVSPost2010Prop30
280
     1
102
RTVSPost2010PropOp30
 70
     1
102
RTVSPost2010Prop31
280
     0
102
RTVSPost2010PropOp31
 70
     1
102
RTVSPost2010Prop32
280
     0
102
RTVSPost2010PropOp32
 70
     1
102
RTVSPost2010Prop33
280
     0
102
RTVSPost2010PropOp33
 70
     1
102
RTVSPost2010Prop34
280
     0
102
RTVSPost2010PropOp34
 70
     1
102
RTVSPost2010Prop35
280
     0
102
RTVSPost2010PropOp35
 70
     1
102
RTVSPost2010Prop36
280
     0
102
RTVSPost2010PropOp36
 70
     1
102
RTVSPost2010Prop37
 90
       50
102
RTVSPost2010PropOp37
 70
     1
102
RTVSPost2010Prop38
140
0.0
102
RTVSPost2010PropOp38
 70
     1
102
RTVSPost2010Prop39
140
1.0
102
RTVSPost2010PropOp39
 70
     1
102
RTVSPost2010Prop40
 90
        0
102
RTVSPost2010PropOp40
 70
     1
102
RTVSPost2010Prop41ColorIndex
 90
       18
102
RTVSPost2010Prop41ColorRGB
 90
        0
102
RTVSPost2010PropOp41
 70
     1
102
RTVSPost2010Prop42
 90
       50
102
RTVSPost2010PropOp42
 70
     1
102
RTVSPost2010Prop43
 90
        3
102
RTVSPost2010PropOp43
 70
     1
102
RTVSPost2010Prop44ColorIndex
 90
        5
102
RTVSPost2010Prop44ColorRGB
 90
      255
102
RTVSPost2010PropOp44
 70
     1
102
RTVSPost2010Prop45
280
     0
102
RTVSPost2010PropOp45
 70
     1
102
RTVSPost2010Prop46
 90
       50
102
RTVSPost2010PropOp46
 70
     1
102
RTVSPost2010Prop47
 90
       50
102
RTVSPost2010PropOp47
 70
     1
102
RTVSPost2010Prop48
 90
       50
102
RTVSPost2010PropOp48
 70
     1
102
RTVSPost2010Prop49
280
     0
102
RTVSPost2010PropOp49
 70
     1
102
RTVSPost2010Prop50
 90
       50
102
RTVSPost2010PropOp50
 70
     1
102
RTVSPost2010Prop51ColorIndex
 90
      256
102
RTVSPost2010Prop51ColorRGB
 90
-16777216
102
RTVSPost2010PropOp51
 70
     0
102
RTVSPost2010Prop52
140
1.0
102
RTVSPost2010PropOp52
 70
     0
102
RTVSPost2010Prop53
 90
        2
102
RTVSPost2010PropOp53
 70
     1
102
RTVSPost2010Prop54
  1
strokes_ogs.tif
102
RTVSPost2010PropOp54
 70
     1
102
RTVSPost2010Prop55
280
     0
102
RTVSPost2010PropOp55
 70
     1
102
RTVSPost2010Prop56
140
1.0
102
RTVSPost2010PropOp56
 70
     1
102
RTVSPost2010Prop57
140
1.0
102
RTVSPost2010PropOp57
 70
     1
  0
XRECORD
  5
230
102
{ACAD_REACTORS
330
22F
102
}
330
22F
100
AcDbXrecord
280
     1
102
RTVSPost2010Prop28
280
     0
102
RTVSPost2010PropOp28
 70
     1
102
RTVSPost2010Prop29
280
     1
102
RTVSPost2010PropOp29
 70
     1
102
RTVSPost2010Prop30
280
     1
102
RTVSPost2010PropOp30
 70
     1
102
RTVSPost2010Prop31
280
     0
102
RTVSPost2010PropOp31
 70
     1
102
RTVSPost2010Prop32
280
     0
102
RTVSPost2010PropOp32
 70
     1
102
RTVSPost2010Prop33
280
     0
102
RTVSPost2010PropOp33
 70
     1
102
RTVSPost2010Prop34
280
     0
102
RTVSPost2010PropOp34
 70
     1
102
RTVSPost2010Prop35
280
     0
102
RTVSPost2010PropOp35
 70
     1
102
RTVSPost2010Prop36
280
     0
102
RTVSPost2010PropOp36
 70
     1
102
RTVSPost2010Prop37
 90
       50
102
RTVSPost2010PropOp37
 70
     1
102
RTVSPost2010Prop38
140
0.0
102
RTVSPost2010PropOp38
 70
     1
102
RTVSPost2010Prop39
140
1.0
102
RTVSPost2010PropOp39
 70
     1
102
RTVSPost2010Prop40
 90
        0
102
RTVSPost2010PropOp40
 70
     1
102
RTVSPost2010Prop41ColorIndex
 90
       18
102
RTVSPost2010Prop41ColorRGB
 90
        0
102
RTVSPost2010PropOp41
 70
     1
102
RTVSPost2010Prop42
 90
       50
102
RTVSPost2010PropOp42
 70
     1
102
RTVSPost2010Prop43
 90
        3
102
RTVSPost2010PropOp43
 70
     1
102
RTVSPost2010Prop44ColorIndex
 90
        5
102
RTVSPost2010Prop44ColorRGB
 90
      255
102
RTVSPost2010PropOp44
 70
     1
102
RTVSPost2010Prop45
280
     0
102
RTVSPost2010PropOp45
 70
     1
102
RTVSPost2010Prop46
 90
       50
102
RTVSPost2010PropOp46
 70
     1
102
RTVSPost2010Prop47
 90
       50
102
RTVSPost2010PropOp47
 70
     1
102
RTVSPost2010Prop48
 90
       50
102
RTVSPost2010PropOp48
 70
     1
102
RTVSPost2010Prop49
280
     0
102
RTVSPost2010PropOp49
 70
     1
102
RTVSPost2010Prop50
 90
       50
102
RTVSPost2010PropOp50
 70
     1
102
RTVSPost2010Prop51ColorIndex
 90
      256
102
RTVSPost2010Prop51ColorRGB
 90
-16777216
102
RTVSPost2010PropOp51
 70
     0
102
RTVSPost2010Prop52
140
1.0
102
RTVSPost2010PropOp52
 70
     0
102
RTVSPost2010Prop53
 90
        2
102
RTVSPost2010PropOp53
 70
     1
102
RTVSPost2010Prop54
  1
strokes_ogs.tif
102
RTVSPost2010PropOp54
 70
     1
102
RTVSPost2010Prop55
280
     0
102
RTVSPost2010PropOp55
 70
     1
102
RTVSPost2010Prop56
140
1.0
102
RTVSPost2010PropOp56
 70
     1
102
RTVSPost2010Prop57
140
1.0
102
RTVSPost2010PropOp57
 70
     1
  0
XRECORD
  5
250
102
{ACAD_REACTORS
330
24F
102
}
330
24F
100
AcDbXrecord
280
     1
102
RTVSPost2010Prop28
280
     0
102
RTVSPost2010PropOp28
 70
     1
102
RTVSPost2010Prop29
280
     1
102
RTVSPost2010PropOp29
 70
     1
102
RTVSPost2010Prop30
280
     1
102
RTVSPost2010PropOp30
 70
     1
102
RTVSPost2010Prop31
280
     0
102
RTVSPost2010PropOp31
 70
     1
102
RTVSPost2010Prop32
280
     0
102
RTVSPost2010PropOp32
 70
     1
102
RTVSPost2010Prop33
280
     0
102
RTVSPost2010PropOp33
 70
     1
102
RTVSPost2010Prop34
280
     0
102
RTVSPost2010PropOp34
 70
     1
102
RTVSPost2010Prop35
280
     0
102
RTVSPost2010PropOp35
 70
     1
102
RTVSPost2010Prop36
280
     0
102
RTVSPost2010PropOp36
 70
     1
102
RTVSPost2010Prop37
 90
       50
102
RTVSPost2010PropOp37
 70
     1
102
RTVSPost2010Prop38
140
0.0
102
RTVSPost2010PropOp38
 70
     1
102
RTVSPost2010Prop39
140
1.0
102
RTVSPost2010PropOp39
 70
     1
102
RTVSPost2010Prop40
 90
        0
102
RTVSPost2010PropOp40
 70
     1
102
RTVSPost2010Prop41ColorIndex
 90
       18
102
RTVSPost2010Prop41ColorRGB
 90
        0
102
RTVSPost2010PropOp41
 70
     1
102
RTVSPost2010Prop42
 90
       50
102
RTVSPost2010PropOp42
 70
     1
102
RTVSPost2010Prop43
 90
        3
102
RTVSPost2010PropOp43
 70
     1
102
RTVSPost2010Prop44ColorIndex
 90
        5
102
RTVSPost2010Prop44ColorRGB
 90
      255
102
RTVSPost2010PropOp44
 70
     1
102
RTVSPost2010Prop45
280
     0
102
RTVSPost2010PropOp45
 70
     1
102
RTVSPost2010Prop46
 90
       50
102
RTVSPost2010PropOp46
 70
     1
102
RTVSPost2010Prop47
 90
       50
102
RTVSPost2010PropOp47
 70
     1
102
RTVSPost2010Prop48
 90
       50
102
RTVSPost2010PropOp48
 70
     1
102
RTVSPost2010Prop49
280
     0
102
RTVSPost2010PropOp49
 70
     1
102
RTVSPost2010Prop50
 90
       50
102
RTVSPost2010PropOp50
 70
     1
102
RTVSPost2010Prop51ColorIndex
 90
      256
102
RTVSPost2010Prop51ColorRGB
 90
-16777216
102
RTVSPost2010PropOp51
 70
     0
102
RTVSPost2010Prop52
140
1.0
102
RTVSPost2010PropOp52
 70
     0
102
RTVSPost2010Prop53
 90
        2
102
RTVSPost2010PropOp53
 70
     1
102
RTVSPost2010Prop54
  1
strokes_ogs.tif
102
RTVSPost2010PropOp54
 70
     1
102
RTVSPost2010Prop55
280
     0
102
RTVSPost2010PropOp55
 70
     1
102
RTVSPost2010Prop56
140
1.0
102
RTVSPost2010PropOp56
 70
     1
102
RTVSPost2010Prop57
140
1.0
102
RTVSPost2010PropOp57
 70
     1
  0
ENDSEC
  0
EOF
